SplineFontDB: 3.0
FontName: KorinnaNormal
FullName: Korinna Normal
FamilyName: Korinna
Weight: Book
Copyright: AzBuki press 1991
Version: 001.000
ItalicAngle: 0
UnderlinePosition: -186
UnderlineWidth: 52
Ascent: 1638
Descent: 410
InvalidEm: 0
sfntRevision: 0x00010000
LayerCount: 2
Layer: 0 1 "Back" 1
Layer: 1 1 "Fore" 0
XUID: [1021 129 -1678385188 1077486]
StyleMap: 0x0000
FSType: 0
OS2Version: 0
OS2_WeightWidthSlopeOnly: 0
OS2_UseTypoMetrics: 0
CreationTime: -2082844800
ModificationTime: 1444562733
PfmFamily: 17
TTFWeight: 400
TTFWidth: 5
LineGap: 0
VLineGap: 0
Panose: 2 2 5 0 0 0 0 0 0 0
OS2TypoAscent: 1327
OS2TypoAOffset: 0
OS2TypoDescent: -410
OS2TypoDOffset: 0
OS2TypoLinegap: 0
OS2WinAscent: 1544
OS2WinAOffset: 0
OS2WinDescent: 438
OS2WinDOffset: 0
HheadAscent: 1327
HheadAOffset: 0
HheadDescent: -430
HheadDOffset: 0
OS2SubXSize: 410
OS2SubYSize: 369
OS2SubXOff: 0
OS2SubYOff: -410
OS2SupXSize: 410
OS2SupYSize: 369
OS2SupXOff: 0
OS2SupYOff: 1116
OS2StrikeYSize: 102
OS2StrikeYPos: 530
OS2Vendor: 'PfEd'
OS2UnicodeRanges: 00000000.00000000.00000000.00000000
DEI: 91125
TtTable: prep
NPUSHB
 22
 12
 31
 16
 28
 2
 28
 85
 14
 13
 20
 88
 4
 85
 41
 81
 3
 85
 85
 42
 13
 58
 0
SCANTYPE
PUSHW_1
 828
SCANCTRL
SCVTCI
CALL
CALL
EndTTInstrs
TtTable: fpgm
NPUSHB
 22
 21
 20
 19
 18
 17
 16
 15
 14
 13
 12
 11
 10
 9
 8
 7
 6
 5
 4
 3
 2
 1
 0
FDEF
PUSHB_3
 0
 128
 0
RS
DUP
ROLL
DIV
ROLL
SWAP
WS
FLOOR
ODD
ENDF
FDEF
PUSHB_3
 42
 0
 0
RS
EQ
JROT
PUSHB_1
 0
CALL
IF
SLOOP
IP
EIF
PUSHB_1
 0
CALL
IF
SLOOP
ALIGNRP
EIF
PUSHB_1
 0
CALL
IF
PUSHB_1
 10
LOOPCALL
EIF
PUSHB_1
 1
RS
SRP0
PUSHB_1
 0
CALL
IF
SLOOP
ALIGNRP
EIF
PUSHB_1
 0
CALL
IF
PUSHB_1
 10
LOOPCALL
EIF
ENDF
FDEF
CALL
ENDF
FDEF
CALL
PUSHB_1
 2
LOOPCALL
ENDF
FDEF
PUSHB_1
 2
LOOPCALL
ENDF
FDEF
PUSHB_1
 1
DIV
PUSHB_1
 0
SWAP
WS
PUSHB_2
 1
 3
CINDEX
WS
DUP
GC[cur]
DUP
ROUND[Grey]
SUB
ABS
PUSHB_1
 3
CINDEX
GC[cur]
DUP
ROUND[Grey]
DUP
PUSHB_1
 4
RS
SWAP
SUB
DUP
ABS
PUSHB_2
 64
 64
ROLL
EQ
IF
POP
POP
POP
POP
PUSHB_2
 0
 33
JMPR
EIF

StartChar: .notdef
Encoding: 256 -1 0
Width: 1536
Flags: W
LayerCount: 2
Fore
SplineSet
256 0 m 1,0,-1
 256 1280 l 1,1,-1
 1280 1280 l 1,2,-1
 1280 0 l 1,3,-1
 256 0 l 1,0,-1
1247 33 m 1,4,-1
 1247 1247 l 1,5,-1
 289 1247 l 1,6,-1
 289 33 l 1,7,-1
 1247 33 l 1,4,-1
EndSplineSet
Validated: 1
EndChar

StartChar: exclam
Encoding: 260 33 4
Width: 446
Flags: W
LayerCount: 2
Fore
SplineSet
270 319 m 1,0,-1
 201 1069 l 2,1,2
 193 1119 193 1119 193 1163 c 0,3,4
 193 1323 193 1323 295 1323 c 2,5,-1
 319 1323 l 1,6,7
 401 1308 401 1308 401 1176 c 0,8,9
 401 1153 401 1153 397 1116 c 128,-1,10
 393 1079 393 1079 393 1069 c 2,11,-1
 328 319 l 1,12,-1
 270 319 l 1,0,-1
397 45 m 0,13,14
 368 -25 368 -25 295 -25 c 0,15,16
 252 -25 252 -25 218 6 c 128,-1,17
 184 37 184 37 184 86 c 0,18,19
 184 130 184 130 217.5 163.5 c 128,-1,20
 251 197 251 197 295 197 c 256,21,22
 339 197 339 197 372.5 160 c 128,-1,23
 406 123 406 123 406 86 c 0,24,25
 406 72 406 72 397 45 c 0,13,14
EndSplineSet
Validated: 1
EndChar

StartChar: quotedbl
Encoding: 261 34 5
Width: 627
Flags: W
LayerCount: 2
Fore
SplineSet
213 786 m 1,0,-1
 184 786 l 1,1,-1
 127 1200 l 2,2,3
 127 1203 127 1203 125 1215 c 128,-1,4
 123 1227 123 1227 123 1233 c 0,5,6
 123 1271 123 1271 142.5 1299 c 128,-1,7
 162 1327 162 1327 201 1327 c 0,8,9
 241 1327 241 1327 257.5 1299 c 128,-1,10
 274 1271 274 1271 274 1229 c 2,11,-1
 274 1200 l 1,12,-1
 213 786 l 1,0,-1
573 1200 m 1,13,-1
 512 786 l 1,14,-1
 483 786 l 1,15,-1
 426 1200 l 2,16,17
 426 1204 426 1204 424 1215 c 128,-1,18
 422 1226 422 1226 422 1229 c 0,19,20
 422 1276 422 1276 444 1303.5 c 128,-1,21
 466 1331 466 1331 496 1331 c 0,22,23
 525 1331 525 1331 549 1303.5 c 128,-1,24
 573 1276 573 1276 573 1229 c 2,25,-1
 573 1200 l 1,13,-1
EndSplineSet
Validated: 1
EndChar

StartChar: numbersign
Encoding: 262 35 6
Width: 1417
Flags: W
LayerCount: 2
Fore
SplineSet
750 1323 m 1,0,-1
 868 1323 l 1,1,-1
 717 893 l 1,2,-1
 975 893 l 1,3,-1
 1130 1323 l 1,4,-1
 1249 1323 l 1,5,-1
 1098 893 l 1,6,-1
 1376 893 l 1,7,-1
 1339 791 l 1,8,-1
 1057 791 l 1,9,-1
 967 532 l 1,10,-1
 1270 532 l 1,11,-1
 1229 426 l 1,12,-1
 930 426 l 1,13,-1
 778 0 l 1,14,-1
 659 0 l 1,15,-1
 811 426 l 1,16,-1
 549 426 l 1,17,-1
 397 0 l 1,18,-1
 279 0 l 1,19,-1
 430 426 l 1,20,-1
 135 426 l 1,21,-1
 176 532 l 1,22,-1
 467 532 l 1,23,-1
 557 791 l 1,24,-1
 242 791 l 1,25,-1
 283 893 l 1,26,-1
 598 893 l 1,27,-1
 750 1323 l 1,0,-1
942 791 m 1,28,-1
 676 791 l 1,29,-1
 586 528 l 1,30,-1
 848 528 l 1,31,-1
 942 791 l 1,28,-1
EndSplineSet
Validated: 1
EndChar

StartChar: dollar
Encoding: 263 36 7
Width: 1012
Flags: W
LayerCount: 2
Fore
SplineSet
152 213 m 1,0,-1
 152 422 l 1,1,-1
 209 422 l 1,2,3
 230 367 230 367 255 333 c 128,-1,4
 280 299 280 299 324 279 c 0,5,6
 415 233 415 233 545 233 c 0,7,8
 610 233 610 233 668.5 253.5 c 128,-1,9
 727 274 727 274 758 319 c 0,10,11
 782 356 782 356 782 406 c 0,12,13
 782 441 782 441 767.5 474 c 128,-1,14
 753 507 753 507 725 524 c 0,15,16
 674 556 674 556 582.5 580.5 c 128,-1,17
 491 605 491 605 384.5 636.5 c 128,-1,18
 278 668 278 668 215.5 718 c 128,-1,19
 153 768 153 768 139 856 c 0,20,21
 139 861 139 861 137 877 c 128,-1,22
 135 893 135 893 135 901 c 0,23,24
 135 1150 135 1150 496 1192 c 1,25,-1
 496 1421 l 1,26,-1
 610 1421 l 1,27,-1
 610 1196 l 1,28,29
 676 1193 676 1193 744 1182.5 c 128,-1,30
 812 1172 812 1172 881 1155 c 1,31,-1
 881 946 l 1,32,-1
 819 946 l 1,33,34
 803 1001 803 1001 773 1031.5 c 128,-1,35
 743 1062 743 1062 688 1077 c 0,36,37
 640 1094 640 1094 569 1094 c 0,38,39
 504 1094 504 1094 475 1085 c 0,40,41
 407 1073 407 1073 359 1023 c 128,-1,42
 311 973 311 973 311 922 c 0,43,44
 311 859 311 859 393 823 c 0,45,46
 442 803 442 803 557 773.5 c 128,-1,47
 672 744 672 744 739.5 722 c 128,-1,48
 807 700 807 700 870 656 c 128,-1,49
 933 612 933 612 958 541 c 0,50,51
 971 505 971 505 971 459 c 0,52,53
 971 403 971 403 952 351.5 c 128,-1,54
 933 300 933 300 901 258 c 0,55,56
 870 219 870 219 823 195 c 128,-1,57
 776 171 776 171 731.5 160 c 128,-1,58
 687 149 687 149 610 135 c 1,59,-1
 610 -131 l 1,60,-1
 496 -131 l 1,61,-1
 496 131 l 1,62,63
 398 137 398 137 319.5 155.5 c 128,-1,64
 241 174 241 174 152 213 c 1,0,-1
EndSplineSet
Validated: 1
EndChar

StartChar: percent
Encoding: 264 37 8
Width: 1376
Flags: W
LayerCount: 2
Fore
SplineSet
360 -20 m 1,0,-1
 246 -20 l 1,1,-1
 975 1090 l 1,2,3
 884 1040 884 1040 811 1040 c 0,4,5
 756 1040 756 1040 688 1073 c 1,6,7
 688 1066 688 1066 690 1049 c 128,-1,8
 692 1032 692 1032 692 1024 c 0,9,10
 692 939 692 939 663.5 866.5 c 128,-1,11
 635 794 635 794 572.5 751.5 c 128,-1,12
 510 709 510 709 414 709 c 0,13,14
 284 709 284 709 207.5 797.5 c 128,-1,15
 131 886 131 886 131 1012 c 0,16,17
 131 1069 131 1069 152 1135 c 0,18,19
 184 1221 184 1221 252 1268 c 128,-1,20
 320 1315 320 1315 414 1315 c 0,21,22
 489 1315 489 1315 540.5 1288 c 128,-1,23
 592 1261 592 1261 651 1200 c 0,24,25
 725 1126 725 1126 815 1126 c 0,26,27
 870 1126 870 1126 925.5 1151.5 c 128,-1,28
 981 1177 981 1177 1032 1221 c 128,-1,29
 1083 1265 1083 1265 1118 1315 c 1,30,-1
 1229 1315 l 1,31,-1
 360 -20 l 1,0,-1
1049 479 m 0,32,33
 969 479 969 479 933 424.5 c 128,-1,34
 897 370 897 370 897 283 c 0,35,36
 897 195 897 195 933.5 138.5 c 128,-1,37
 970 82 970 82 1049 82 c 256,38,39
 1128 82 1128 82 1164 138 c 128,-1,40
 1200 194 1200 194 1200 279 c 0,41,42
 1200 326 1200 326 1183.5 372.5 c 128,-1,43
 1167 419 1167 419 1133.5 449 c 128,-1,44
 1100 479 1100 479 1049 479 c 0,32,33
262 1008 m 0,45,46
 262 815 262 815 414 815 c 0,47,48
 493 815 493 815 529 871.5 c 128,-1,49
 565 928 565 928 565 1016 c 0,50,51
 565 1098 565 1098 531 1157.5 c 128,-1,52
 497 1217 497 1217 410 1217 c 0,53,54
 335 1217 335 1217 298.5 1156 c 128,-1,55
 262 1095 262 1095 262 1008 c 0,45,46
786 401 m 0,56,57
 816 487 816 487 890.5 536.5 c 128,-1,58
 965 586 965 586 1053 586 c 0,59,60
 1093 586 1093 586 1135 573.5 c 128,-1,61
 1177 561 1177 561 1208 541 c 0,62,63
 1267 499 1267 499 1297 428.5 c 128,-1,64
 1327 358 1327 358 1327 279 c 0,65,66
 1327 234 1327 234 1311 160 c 1,67,68
 1282 72 1282 72 1209 26 c 128,-1,69
 1136 -20 1136 -20 1044 -20 c 0,70,71
 1034 -20 1034 -20 1014 -18 c 128,-1,72
 994 -16 994 -16 983 -16 c 0,73,74
 915 -4 915 -4 866.5 40 c 128,-1,75
 818 84 818 84 794 149 c 128,-1,76
 770 214 770 214 770 283 c 0,77,78
 770 353 770 353 786 401 c 0,56,57
EndSplineSet
Validated: 1
EndChar

StartChar: ampersand
Encoding: 265 38 9
Width: 1417
Flags: W
LayerCount: 2
Fore
SplineSet
1376 516 m 1,0,1
 1310 516 1310 516 1283.5 509.5 c 128,-1,2
 1257 503 1257 503 1242.5 475 c 128,-1,3
 1228 447 1228 447 1221 385 c 0,4,5
 1211 282 1211 282 1161 204 c 128,-1,6
 1111 126 1111 126 1030.5 72.5 c 128,-1,7
 950 19 950 19 854 -7 c 128,-1,8
 758 -33 758 -33 659 -33 c 0,9,10
 574 -33 574 -33 446.5 4 c 128,-1,11
 319 41 319 41 219 133 c 128,-1,12
 119 225 119 225 119 373 c 0,13,14
 119 500 119 500 194 588 c 128,-1,15
 269 676 269 676 397 717 c 1,16,-1
 397 729 l 1,17,18
 308 765 308 765 248 840 c 128,-1,19
 188 915 188 915 188 1004 c 0,20,21
 188 1047 188 1047 217 1114 c 0,22,23
 314 1323 314 1323 627 1323 c 0,24,25
 794 1323 794 1323 1004 1266 c 1,26,-1
 1004 1032 l 1,27,-1
 942 1032 l 1,28,29
 913 1114 913 1114 853.5 1156.5 c 128,-1,30
 794 1199 794 1199 705 1208 c 1,31,-1
 655 1208 l 2,32,33
 495 1208 495 1208 418 1130 c 0,34,35
 365 1078 365 1078 365 995 c 0,36,37
 365 919 365 919 406 872 c 0,38,39
 452 816 452 816 515.5 799 c 128,-1,40
 579 782 579 782 672 782 c 2,41,-1
 717 782 l 1,42,-1
 717 668 l 1,43,-1
 639 668 l 2,44,45
 536 668 536 668 475 639 c 0,46,47
 409 610 409 610 364.5 558 c 128,-1,48
 320 506 320 506 307 434 c 0,49,50
 307 427 307 427 305 408 c 128,-1,51
 303 389 303 389 303 381 c 0,52,53
 303 292 303 292 353 226.5 c 128,-1,54
 403 161 403 161 486 125.5 c 128,-1,55
 569 90 569 90 659 90 c 0,56,57
 808 90 808 90 932.5 173 c 128,-1,58
 1057 256 1057 256 1057 397 c 2,59,-1
 1057 414 l 2,60,61
 1054 480 1054 480 1009.5 498 c 128,-1,62
 965 516 965 516 889 516 c 2,63,-1
 881 516 l 1,64,-1
 881 582 l 1,65,-1
 1376 582 l 1,66,-1
 1376 516 l 1,0,1
EndSplineSet
Validated: 1
EndChar

StartChar: quotesingle
Encoding: 266 39 10
Width: 324
Flags: W
LayerCount: 2
Fore
SplineSet
213 786 m 1,0,-1
 184 786 l 1,1,-1
 127 1200 l 2,2,3
 127 1204 127 1204 125 1215 c 128,-1,4
 123 1226 123 1226 123 1229 c 0,5,6
 123 1276 123 1276 145 1303.5 c 128,-1,7
 167 1331 167 1331 197 1331 c 0,8,9
 226 1331 226 1331 250 1302.5 c 128,-1,10
 274 1274 274 1274 274 1225 c 2,11,-1
 274 1200 l 1,12,-1
 213 786 l 1,0,-1
EndSplineSet
Validated: 1
EndChar

StartChar: parenleft
Encoding: 267 40 11
Width: 606
Flags: W
LayerCount: 2
Fore
SplineSet
561 -295 m 1,0,-1
 504 -352 l 1,1,2
 319 -149 319 -149 225 48 c 128,-1,3
 131 245 131 245 131 487 c 0,4,5
 131 608 131 608 157.5 722.5 c 128,-1,6
 184 837 184 837 234.5 941 c 128,-1,7
 285 1045 285 1045 352 1137.5 c 128,-1,8
 419 1230 419 1230 504 1323 c 1,9,-1
 561 1270 l 1,10,11
 471 1149 471 1149 415 1026 c 128,-1,12
 359 903 359 903 331 769 c 128,-1,13
 303 635 303 635 303 487 c 0,14,15
 303 341 303 341 330 205.5 c 128,-1,16
 357 70 357 70 415.5 -55.5 c 128,-1,17
 474 -181 474 -181 561 -295 c 1,0,-1
EndSplineSet
Validated: 1
EndChar

StartChar: parenright
Encoding: 268 41 12
Width: 565
Flags: W
LayerCount: 2
Fore
SplineSet
78 1270 m 1,0,-1
 135 1323 l 1,1,2
 257 1190 257 1190 338 1064 c 128,-1,3
 419 938 419 938 465.5 794 c 128,-1,4
 512 650 512 650 512 487 c 0,5,6
 512 246 512 246 415.5 47.5 c 128,-1,7
 319 -151 319 -151 135 -352 c 1,8,-1
 78 -295 l 1,9,10
 213 -120 213 -120 276.5 71.5 c 128,-1,11
 340 263 340 263 340 487 c 0,12,13
 340 710 340 710 276 902.5 c 128,-1,14
 212 1095 212 1095 78 1270 c 1,0,-1
EndSplineSet
Validated: 1
EndChar

StartChar: asterisk
Encoding: 269 42 13
Width: 893
Flags: W
LayerCount: 2
Fore
SplineSet
520 922 m 1,0,1
 521 860 521 860 528.5 831 c 128,-1,2
 536 802 536 802 553 766.5 c 128,-1,3
 570 731 570 731 582 688 c 0,4,5
 586 676 586 676 586 655 c 0,6,7
 586 620 586 620 569 594.5 c 128,-1,8
 552 569 552 569 520 569 c 2,9,-1
 512 569 l 2,10,11
 470 569 470 569 446 594 c 128,-1,12
 422 619 422 619 422 655 c 0,13,14
 422 679 422 679 434 705 c 0,15,16
 439 722 439 722 458.5 761 c 128,-1,17
 478 800 478 800 483 827 c 0,18,19
 492 883 492 883 492 897 c 2,20,-1
 492 926 l 1,21,22
 470 910 470 910 454 899.5 c 128,-1,23
 438 889 438 889 425 879.5 c 128,-1,24
 412 870 412 870 401 856 c 0,25,26
 395 849 395 849 366.5 807 c 128,-1,27
 338 765 338 765 319 750 c 0,28,29
 280 717 280 717 242 717 c 0,30,31
 207 717 207 717 180 750 c 1,32,33
 164 782 164 782 164 795 c 0,34,35
 164 828 164 828 193 855 c 128,-1,36
 222 882 222 882 258 889 c 0,37,38
 283 893 283 893 330.5 898 c 128,-1,39
 378 903 378 903 410 913 c 128,-1,40
 442 923 442 923 475 950 c 1,41,42
 435 974 435 974 406 983 c 128,-1,43
 377 992 377 992 319.5 999 c 128,-1,44
 262 1006 262 1006 254 1008 c 0,45,46
 217 1015 217 1015 190.5 1038.5 c 128,-1,47
 164 1062 164 1062 164 1094 c 0,48,49
 164 1097 164 1097 166.5 1106.5 c 128,-1,50
 169 1116 169 1116 172 1124.5 c 128,-1,51
 175 1133 175 1133 176 1139 c 0,52,53
 198 1176 198 1176 242 1176 c 0,54,55
 264 1176 264 1176 289 1164 c 128,-1,56
 314 1152 314 1152 328 1135 c 0,57,58
 384 1060 384 1060 409 1033.5 c 128,-1,59
 434 1007 434 1007 492 971 c 1,60,61
 489 1035 489 1035 479 1070.5 c 128,-1,62
 469 1106 469 1106 438 1180 c 0,63,64
 426 1210 426 1210 426 1241 c 0,65,66
 426 1278 426 1278 446.5 1300.5 c 128,-1,67
 467 1323 467 1323 508 1323 c 0,68,69
 546 1323 546 1323 566 1298.5 c 128,-1,70
 586 1274 586 1274 586 1237 c 0,71,72
 586 1217 586 1217 582 1204 c 0,73,74
 577 1183 577 1183 555.5 1135 c 128,-1,75
 534 1087 534 1087 528 1065 c 0,76,77
 520 1007 520 1007 520 971 c 1,78,79
 583 1009 583 1009 610 1036 c 0,80,81
 627 1053 627 1053 650.5 1090 c 128,-1,82
 674 1127 674 1127 692 1143 c 0,83,84
 727 1176 727 1176 766 1176 c 0,85,86
 815 1176 815 1176 840 1122 c 0,87,88
 844 1114 844 1114 844 1094 c 0,89,90
 844 1062 844 1062 818 1038 c 128,-1,91
 792 1014 792 1014 758 1008 c 0,92,93
 735 1005 735 1005 684 998 c 128,-1,94
 633 991 633 991 600 980 c 128,-1,95
 567 969 567 969 537 946 c 1,96,97
 590 916 590 916 618.5 908.5 c 128,-1,98
 647 901 647 901 687 898.5 c 128,-1,99
 727 896 727 896 770 885 c 0,100,101
 803 876 803 876 825.5 851 c 128,-1,102
 848 826 848 826 848 795 c 0,103,104
 848 788 848 788 843 775 c 128,-1,105
 838 762 838 762 836 754 c 0,106,107
 802 713 802 713 766 713 c 0,108,109
 729 713 729 713 692 750 c 0,110,111
 668 774 668 774 641.5 812 c 128,-1,112
 615 850 615 850 593 872 c 128,-1,113
 571 894 571 894 520 922 c 1,0,1
EndSplineSet
Validated: 1
EndChar

StartChar: plus
Encoding: 270 43 14
Width: 1417
Flags: W
LayerCount: 2
Fore
SplineSet
762 1110 m 1,0,-1
 872 1110 l 1,1,-1
 872 610 l 1,2,-1
 1360 610 l 1,3,-1
 1360 504 l 1,4,-1
 872 504 l 1,5,-1
 872 0 l 1,6,-1
 762 0 l 1,7,-1
 762 504 l 1,8,-1
 274 504 l 1,9,-1
 274 610 l 1,10,-1
 762 610 l 1,11,-1
 762 1110 l 1,0,-1
EndSplineSet
Validated: 1
EndChar

StartChar: comma
Encoding: 271 44 15
Width: 426
Flags: W
LayerCount: 2
Fore
SplineSet
197 -279 m 1,0,-1
 143 -233 l 1,1,2
 249 -122 249 -122 279 -29 c 1,3,4
 220 -19 220 -19 192 13 c 128,-1,5
 164 45 164 45 164 86 c 0,6,7
 164 128 164 128 193 160.5 c 128,-1,8
 222 193 222 193 270 193 c 2,9,-1
 311 193 l 1,10,11
 385 166 385 166 385 53 c 2,12,-1
 385 29 l 1,13,14
 379 -28 379 -28 351.5 -81.5 c 128,-1,15
 324 -135 324 -135 293.5 -171.5 c 128,-1,16
 263 -208 263 -208 197 -279 c 1,0,-1
EndSplineSet
Validated: 1
EndChar

StartChar: hyphen
Encoding: 272 45 16
Width: 627
Flags: W
LayerCount: 2
Fore
SplineSet
119 365 m 1,0,-1
 119 504 l 1,1,-1
 573 504 l 1,2,-1
 573 365 l 1,3,-1
 119 365 l 1,0,-1
EndSplineSet
Validated: 1
EndChar

StartChar: period
Encoding: 273 46 17
Width: 426
Flags: W
LayerCount: 2
Fore
SplineSet
373 33 m 0,0,1
 362 2 362 2 333.5 -15.5 c 128,-1,2
 305 -33 305 -33 274 -33 c 0,3,4
 229 -33 229 -33 196.5 -4 c 128,-1,5
 164 25 164 25 164 74 c 0,6,7
 164 120 164 120 196 152 c 128,-1,8
 228 184 228 184 274 184 c 2,9,-1
 295 184 l 1,10,11
 334 175 334 175 357.5 143.5 c 128,-1,12
 381 112 381 112 381 74 c 0,13,14
 381 45 381 45 373 33 c 0,0,1
EndSplineSet
Validated: 1
EndChar

StartChar: slash
Encoding: 274 47 18
Width: 729
Flags: W
LayerCount: 2
Fore
SplineSet
131 -172 m 1,0,-1
 33 -172 l 1,1,-1
 573 1323 l 1,2,-1
 676 1323 l 1,3,-1
 131 -172 l 1,0,-1
EndSplineSet
Validated: 1
EndChar

StartChar: zero
Encoding: 275 48 19
Width: 1053
Flags: W
LayerCount: 2
Fore
SplineSet
102 647 m 0,0,1
 102 912 102 912 207.5 1113.5 c 128,-1,2
 313 1315 313 1315 545 1315 c 0,3,4
 555 1315 555 1315 578 1313 c 128,-1,5
 601 1311 601 1311 610 1311 c 0,6,7
 758 1294 758 1294 845.5 1190.5 c 128,-1,8
 933 1087 933 1087 968.5 942 c 128,-1,9
 1004 797 1004 797 1004 647 c 0,10,11
 1004 538 1004 538 985.5 426.5 c 128,-1,12
 967 315 967 315 923.5 220.5 c 128,-1,13
 880 126 880 126 801 60.5 c 128,-1,14
 722 -5 722 -5 610 -16 c 0,15,16
 590 -20 590 -20 545 -20 c 0,17,18
 313 -20 313 -20 207.5 181.5 c 128,-1,19
 102 383 102 383 102 647 c 0,0,1
594 1196 m 0,20,21
 578 1200 578 1200 549 1200 c 0,22,23
 274 1200 274 1200 274 647 c 0,24,25
 274 552 274 552 282.5 465 c 128,-1,26
 291 378 291 378 319.5 289.5 c 128,-1,27
 348 201 348 201 404 145.5 c 128,-1,28
 460 90 460 90 549 90 c 0,29,30
 578 90 578 90 594 94 c 0,31,32
 741 116 741 116 786 278 c 128,-1,33
 831 440 831 440 831 647 c 0,34,35
 831 773 831 773 816.5 885 c 128,-1,36
 802 997 802 997 749.5 1089.5 c 128,-1,37
 697 1182 697 1182 594 1196 c 0,20,21
EndSplineSet
Validated: 1
EndChar

StartChar: one
Encoding: 276 49 20
Width: 709
Flags: W
LayerCount: 2
Fore
SplineSet
209 0 m 1,0,-1
 209 57 l 1,1,2
 243 61 243 61 267 63.5 c 128,-1,3
 291 66 291 66 314 74.5 c 128,-1,4
 337 83 337 83 351 100.5 c 128,-1,5
 365 118 365 118 365 147 c 2,6,-1
 365 1135 l 1,7,8
 234 1095 234 1095 115 1077 c 1,9,-1
 115 1143 l 1,10,11
 229 1174 229 1174 300.5 1205 c 128,-1,12
 372 1236 372 1236 434 1290 c 1,13,-1
 520 1290 l 1,14,-1
 520 147 l 2,15,16
 520 120 520 120 532.5 102.5 c 128,-1,17
 545 85 545 85 567.5 76 c 128,-1,18
 590 67 590 67 614.5 63.5 c 128,-1,19
 639 60 639 60 664 57 c 1,20,-1
 664 0 l 1,21,-1
 209 0 l 1,0,-1
EndSplineSet
Validated: 1
EndChar

StartChar: two
Encoding: 277 50 21
Width: 1012
Flags: W
LayerCount: 2
Fore
SplineSet
967 0 m 1,0,-1
 82 0 l 1,1,2
 93 186 93 186 185 301 c 128,-1,3
 277 416 277 416 450.5 534 c 128,-1,4
 624 652 624 652 699 724.5 c 128,-1,5
 774 797 774 797 774 918 c 0,6,7
 774 981 774 981 751 1031 c 128,-1,8
 728 1081 728 1081 687.5 1117 c 128,-1,9
 647 1153 647 1153 590.5 1172.5 c 128,-1,10
 534 1192 534 1192 475 1192 c 0,11,12
 365 1192 365 1192 290.5 1139.5 c 128,-1,13
 216 1087 216 1087 188 987 c 1,14,-1
 115 987 l 1,15,-1
 115 1196 l 1,16,17
 212 1257 212 1257 301 1286 c 128,-1,18
 390 1315 390 1315 492 1315 c 0,19,20
 520 1315 520 1315 586 1307 c 0,21,22
 651 1300 651 1300 714 1272 c 128,-1,23
 777 1244 777 1244 825.5 1200.5 c 128,-1,24
 874 1157 874 1157 905 1099.5 c 128,-1,25
 936 1042 936 1042 942 975 c 0,26,27
 946 958 946 958 946 926 c 0,28,29
 946 803 946 803 872.5 697 c 128,-1,30
 799 591 799 591 684 516 c 0,31,32
 643 491 643 491 565 444.5 c 128,-1,33
 487 398 487 398 430.5 357 c 128,-1,34
 374 316 374 316 325 263.5 c 128,-1,35
 276 211 276 211 242 147 c 1,36,-1
 242 131 l 1,37,-1
 791 131 l 2,38,39
 851 131 851 131 880.5 151.5 c 128,-1,40
 910 172 910 172 913 229 c 1,41,-1
 967 229 l 1,42,-1
 967 0 l 1,0,-1
EndSplineSet
Validated: 1
EndChar

StartChar: three
Encoding: 278 51 22
Width: 1012
Flags: W
LayerCount: 2
Fore
SplineSet
684 774 m 1,0,-1
 684 770 l 1,1,2
 778 741 778 741 838 691 c 128,-1,3
 898 641 898 641 928 576 c 128,-1,4
 958 511 958 511 958 438 c 0,5,6
 958 325 958 325 884 219 c 128,-1,7
 810 113 810 113 668 46.5 c 128,-1,8
 526 -20 526 -20 336 -20 c 0,9,10
 208 -20 208 -20 82 8 c 1,11,-1
 82 221 l 1,12,-1
 152 221 l 1,13,14
 173 102 173 102 332 102 c 0,15,16
 422 102 422 102 529 139 c 128,-1,17
 636 176 636 176 709 251.5 c 128,-1,18
 782 327 782 327 782 434 c 0,19,20
 782 506 782 506 744 573 c 128,-1,21
 706 640 706 640 635 672 c 1,22,23
 567 696 567 696 455 696 c 2,24,-1
 397 696 l 1,25,-1
 397 819 l 1,26,27
 465 819 465 819 512.5 823 c 128,-1,28
 560 827 560 827 608 845.5 c 128,-1,29
 656 864 656 864 692 905 c 0,30,31
 733 953 733 953 733 1016 c 0,32,33
 733 1090 733 1090 688 1135 c 0,34,35
 623 1200 623 1200 492 1200 c 0,36,37
 396 1200 396 1200 318.5 1160 c 128,-1,38
 241 1120 241 1120 225 1049 c 1,39,-1
 164 1049 l 1,40,-1
 164 1233 l 1,41,42
 212 1252 212 1252 278 1272 c 128,-1,43
 344 1292 344 1292 410.5 1303.5 c 128,-1,44
 477 1315 477 1315 532 1315 c 0,45,46
 746 1315 746 1315 848 1180 c 0,47,48
 897 1119 897 1119 897 1028 c 0,49,50
 897 960 897 960 868 909 c 0,51,52
 841 864 841 864 802.5 838.5 c 128,-1,53
 764 813 764 813 684 774 c 1,0,-1
EndSplineSet
Validated: 1
EndChar

StartChar: four
Encoding: 279 52 23
Width: 1053
Flags: W
LayerCount: 2
Fore
SplineSet
905 0 m 1,0,-1
 610 0 l 1,1,-1
 610 57 l 1,2,3
 640 62 640 62 652.5 65.5 c 128,-1,4
 665 69 665 69 676 86 c 1,5,6
 684 110 684 110 684 188 c 0,7,8
 684 211 684 211 682 249 c 128,-1,9
 680 287 680 287 680 295 c 1,10,-1
 74 295 l 1,11,-1
 74 430 l 1,12,-1
 709 1290 l 1,13,-1
 836 1290 l 1,14,-1
 836 430 l 1,15,-1
 1004 430 l 1,16,-1
 1004 295 l 1,17,-1
 836 295 l 1,18,19
 836 274 836 274 833.5 235.5 c 128,-1,20
 831 197 831 197 831 172 c 0,21,22
 831 106 831 106 844 86 c 0,23,24
 850 74 850 74 859.5 69 c 128,-1,25
 869 64 869 64 880 61.5 c 128,-1,26
 891 59 891 59 905 57 c 1,27,-1
 905 0 l 1,0,-1
684 426 m 1,28,-1
 692 1073 l 1,29,-1
 217 430 l 1,30,-1
 217 426 l 1,31,-1
 684 426 l 1,28,-1
EndSplineSet
Validated: 1
EndChar

StartChar: five
Encoding: 280 53 24
Width: 1032
Flags: W
LayerCount: 2
Fore
SplineSet
102 -8 m 1,0,-1
 102 225 l 1,1,-1
 160 225 l 1,2,3
 168 163 168 163 206.5 139 c 128,-1,4
 245 115 245 115 311 115 c 0,5,6
 423 115 423 115 539 168.5 c 128,-1,7
 655 222 655 222 731 313 c 128,-1,8
 807 404 807 404 807 512 c 0,9,10
 807 640 807 640 726.5 719.5 c 128,-1,11
 646 799 646 799 537 799 c 0,12,13
 454 799 454 799 377.5 755.5 c 128,-1,14
 301 712 301 712 254 631 c 1,15,-1
 152 664 l 1,16,-1
 180 1290 l 1,17,-1
 889 1290 l 1,18,-1
 823 1155 l 1,19,-1
 303 1155 l 1,20,-1
 287 836 l 1,21,22
 402 926 402 926 557 926 c 0,23,24
 657 926 657 926 754.5 870.5 c 128,-1,25
 852 815 852 815 913.5 721.5 c 128,-1,26
 975 628 975 628 975 520 c 0,27,28
 975 410 975 410 925 312.5 c 128,-1,29
 875 215 875 215 787 142.5 c 128,-1,30
 699 70 699 70 594 33 c 1,31,32
 472 -16 472 -16 291 -16 c 0,33,34
 234 -16 234 -16 102 -8 c 1,0,-1
EndSplineSet
Validated: 1
EndChar

StartChar: six
Encoding: 281 54 25
Width: 1053
Flags: W
LayerCount: 2
Fore
SplineSet
279 696 m 1,0,1
 343 777 343 777 421 820.5 c 128,-1,2
 499 864 499 864 594 864 c 0,3,4
 682 864 682 864 762 829 c 128,-1,5
 842 794 842 794 901 729 c 1,6,7
 1004 626 1004 626 1004 438 c 0,8,9
 1004 339 1004 339 966 242.5 c 128,-1,10
 928 146 928 146 854.5 77.5 c 128,-1,11
 781 9 781 9 684 -12 c 1,12,13
 602 -20 602 -20 561 -20 c 0,14,15
 408 -20 408 -20 307.5 65 c 128,-1,16
 207 150 207 150 161 289 c 128,-1,17
 115 428 115 428 115 586 c 0,18,19
 115 703 115 703 143 840 c 0,20,21
 169 958 169 958 248.5 1067 c 128,-1,22
 328 1176 328 1176 440.5 1243.5 c 128,-1,23
 553 1311 553 1311 672 1311 c 0,24,25
 782 1311 782 1311 926 1262 c 1,26,-1
 926 1077 l 1,27,-1
 877 1077 l 1,28,29
 860 1137 860 1137 802.5 1166.5 c 128,-1,30
 745 1196 745 1196 676 1196 c 0,31,32
 562 1196 562 1196 474 1121 c 128,-1,33
 386 1046 386 1046 335.5 930 c 128,-1,34
 285 814 285 814 279 696 c 1,0,1
848 426 m 0,35,36
 848 499 848 499 811.5 569 c 128,-1,37
 775 639 775 639 712 682 c 128,-1,38
 649 725 649 725 573 725 c 0,39,40
 498 725 498 725 432.5 682.5 c 128,-1,41
 367 640 367 640 329 570 c 128,-1,42
 291 500 291 500 291 426 c 256,43,44
 291 352 291 352 327.5 281 c 128,-1,45
 364 210 364 210 427.5 164.5 c 128,-1,46
 491 119 491 119 565 119 c 0,47,48
 641 119 641 119 706.5 163.5 c 128,-1,49
 772 208 772 208 810 280 c 128,-1,50
 848 352 848 352 848 426 c 0,35,36
EndSplineSet
Validated: 1
EndChar

StartChar: seven
Encoding: 282 55 26
Width: 991
Flags: W
LayerCount: 2
Fore
SplineSet
565 0 m 1,0,-1
 389 0 l 1,1,2
 391 134 391 134 413.5 251.5 c 128,-1,3
 436 369 436 369 478 477.5 c 128,-1,4
 520 586 520 586 590 713 c 0,5,6
 599 730 599 730 648.5 814 c 128,-1,7
 698 898 698 898 729 953.5 c 128,-1,8
 760 1009 760 1009 787.5 1069.5 c 128,-1,9
 815 1130 815 1130 815 1163 c 1,10,-1
 299 1163 l 2,11,12
 238 1163 238 1163 208.5 1143.5 c 128,-1,13
 179 1124 179 1124 176 1065 c 1,14,-1
 123 1065 l 1,15,-1
 123 1290 l 1,16,-1
 950 1290 l 1,17,18
 950 1238 950 1238 947.5 1204.5 c 128,-1,19
 945 1171 945 1171 934 1135 c 0,20,21
 920 1071 920 1071 893 1008 c 128,-1,22
 866 945 866 945 836.5 887 c 128,-1,23
 807 829 807 829 766 745 c 0,24,25
 693 596 693 596 650 487.5 c 128,-1,26
 607 379 607 379 586 265 c 128,-1,27
 565 151 565 151 565 0 c 1,0,-1
EndSplineSet
Validated: 1
EndChar

StartChar: eight
Encoding: 283 56 27
Width: 1053
Flags: W
LayerCount: 2
Fore
SplineSet
336 713 m 1,0,-1
 336 725 l 1,1,2
 249 771 249 771 206.5 830.5 c 128,-1,3
 164 890 164 890 164 983 c 0,4,5
 164 1061 164 1061 227 1137.5 c 128,-1,6
 290 1214 290 1214 383 1262.5 c 128,-1,7
 476 1311 476 1311 553 1311 c 0,8,9
 627 1311 627 1311 695.5 1289 c 128,-1,10
 764 1267 764 1267 820 1225 c 128,-1,11
 876 1183 876 1183 909 1124.5 c 128,-1,12
 942 1066 942 1066 942 991 c 0,13,14
 942 818 942 818 774 725 c 1,15,-1
 774 713 l 1,16,17
 838 684 838 684 882.5 647 c 128,-1,18
 927 610 927 610 958 553 c 0,19,20
 999 472 999 472 999 369 c 0,21,22
 999 252 999 252 934.5 163 c 128,-1,23
 870 74 870 74 766.5 27 c 128,-1,24
 663 -20 663 -20 553 -20 c 0,25,26
 442 -20 442 -20 339.5 23.5 c 128,-1,27
 237 67 237 67 171.5 156.5 c 128,-1,28
 106 246 106 246 106 377 c 0,29,30
 106 489 106 489 164 571 c 128,-1,31
 222 653 222 653 336 713 c 1,0,-1
549 655 m 0,32,33
 469 655 469 655 408.5 624 c 128,-1,34
 348 593 348 593 313.5 531 c 128,-1,35
 279 469 279 469 279 385 c 0,36,37
 279 257 279 257 352 177.5 c 128,-1,38
 425 98 425 98 553 98 c 0,39,40
 624 98 624 98 687.5 134 c 128,-1,41
 751 170 751 170 789 230 c 128,-1,42
 827 290 827 290 827 360 c 0,43,44
 827 433 827 433 795.5 501.5 c 128,-1,45
 764 570 764 570 701 612.5 c 128,-1,46
 638 655 638 655 549 655 c 0,32,33
324 1004 m 0,47,48
 324 905 324 905 393.5 839.5 c 128,-1,49
 463 774 463 774 553 774 c 0,50,51
 613 774 613 774 666 799 c 128,-1,52
 719 824 719 824 752.5 872.5 c 128,-1,53
 786 921 786 921 786 987 c 0,54,55
 786 1084 786 1084 720.5 1140 c 128,-1,56
 655 1196 655 1196 553 1196 c 0,57,58
 488 1196 488 1196 436.5 1175.5 c 128,-1,59
 385 1155 385 1155 354.5 1111.5 c 128,-1,60
 324 1068 324 1068 324 1004 c 0,47,48
EndSplineSet
Validated: 1
EndChar

StartChar: nine
Encoding: 284 57 28
Width: 1032
Flags: W
LayerCount: 2
Fore
SplineSet
258 881 m 0,0,1
 258 764 258 764 329 666.5 c 128,-1,2
 400 569 400 569 512 569 c 0,3,4
 570 569 570 569 624.5 592 c 128,-1,5
 679 615 679 615 720.5 656 c 128,-1,6
 762 697 762 697 786.5 752 c 128,-1,7
 811 807 811 807 811 864 c 0,8,9
 811 940 811 940 771 1009.5 c 128,-1,10
 731 1079 731 1079 664.5 1121 c 128,-1,11
 598 1163 598 1163 520 1163 c 0,12,13
 449 1163 449 1163 388.5 1123 c 128,-1,14
 328 1083 328 1083 293 1017.5 c 128,-1,15
 258 952 258 952 258 881 c 0,0,1
745 291 m 0,16,17
 787 359 787 359 803.5 431 c 128,-1,18
 820 503 820 503 823 594 c 1,19,20
 697 436 697 436 520 430 c 1,21,-1
 508 430 l 2,22,23
 411 430 411 430 320.5 474.5 c 128,-1,24
 230 519 230 519 172 598 c 1,25,26
 94 716 94 716 94 856 c 0,27,28
 94 989 94 989 160 1102 c 1,29,30
 214 1204 214 1204 309 1258 c 128,-1,31
 404 1312 404 1312 524 1315 c 2,32,-1
 528 1315 l 2,33,34
 652 1315 652 1315 741.5 1262.5 c 128,-1,35
 831 1210 831 1210 884.5 1122 c 128,-1,36
 938 1034 938 1034 962.5 925.5 c 128,-1,37
 987 817 987 817 987 696 c 0,38,39
 987 605 987 605 963 451 c 1,40,41
 923 269 923 269 795 135 c 128,-1,42
 667 1 667 1 492 -16 c 1,43,-1
 426 -16 l 2,44,45
 303 -16 303 -16 176 29 c 1,46,-1
 176 213 l 1,47,-1
 225 213 l 1,48,49
 244 154 244 154 299 126 c 128,-1,50
 354 98 354 98 426 98 c 0,51,52
 459 98 459 98 475 102 c 0,53,54
 561 112 561 112 631 163.5 c 128,-1,55
 701 215 701 215 745 291 c 0,16,17
EndSplineSet
Validated: 1
EndChar

StartChar: colon
Encoding: 285 58 29
Width: 446
Flags: W
LayerCount: 2
Fore
SplineSet
389 655 m 0,0,1
 377 622 377 622 349.5 606 c 128,-1,2
 322 590 322 590 291 590 c 0,3,4
 244 590 244 590 210 619 c 128,-1,5
 176 648 176 648 176 696 c 0,6,7
 176 743 176 743 209 775 c 128,-1,8
 242 807 242 807 287 807 c 2,9,-1
 311 807 l 1,10,11
 348 798 348 798 372.5 766 c 128,-1,12
 397 734 397 734 397 696 c 0,13,14
 397 681 397 681 389 655 c 0,0,1
311 201 m 0,15,16
 352 195 352 195 376.5 161.5 c 128,-1,17
 401 128 401 128 401 90 c 0,18,19
 401 79 401 79 393 53 c 0,20,21
 377 19 377 19 350 1.5 c 128,-1,22
 323 -16 323 -16 291 -16 c 0,23,24
 248 -16 248 -16 214 15 c 128,-1,25
 180 46 180 46 180 94 c 0,26,27
 180 141 180 141 213 173 c 128,-1,28
 246 205 246 205 291 205 c 0,29,30
 293 205 293 205 301 203 c 128,-1,31
 309 201 309 201 311 201 c 0,15,16
EndSplineSet
Validated: 1
EndChar

StartChar: semicolon
Encoding: 286 59 30
Width: 446
Flags: W
LayerCount: 2
Fore
SplineSet
209 -279 m 1,0,-1
 156 -233 l 1,1,2
 206 -180 206 -180 240.5 -129.5 c 128,-1,3
 275 -79 275 -79 291 -29 c 1,4,5
 232 -19 232 -19 202 13 c 128,-1,6
 172 45 172 45 172 86 c 0,7,8
 172 125 172 125 203.5 159 c 128,-1,9
 235 193 235 193 283 193 c 2,10,-1
 319 193 l 1,11,12
 397 167 397 167 397 53 c 2,13,-1
 397 29 l 1,14,15
 391 -28 391 -28 363.5 -81.5 c 128,-1,16
 336 -135 336 -135 305.5 -171.5 c 128,-1,17
 275 -208 275 -208 209 -279 c 1,0,-1
389 651 m 0,18,19
 377 618 377 618 349 600 c 128,-1,20
 321 582 321 582 291 582 c 0,21,22
 244 582 244 582 210 612 c 128,-1,23
 176 642 176 642 176 692 c 0,24,25
 176 739 176 739 209 771 c 128,-1,26
 242 803 242 803 287 803 c 0,27,28
 288 803 288 803 297 801 c 128,-1,29
 306 799 306 799 311 799 c 0,30,31
 348 793 348 793 372.5 760.5 c 128,-1,32
 397 728 397 728 397 692 c 0,33,34
 397 677 397 677 389 651 c 0,18,19
EndSplineSet
Validated: 1
EndChar

StartChar: less
Encoding: 287 60 31
Width: 1397
Flags: W
LayerCount: 2
Fore
SplineSet
1352 1040 m 1,0,-1
 1352 926 l 1,1,-1
 442 553 l 1,2,-1
 1352 188 l 1,3,-1
 1352 70 l 1,4,-1
 283 508 l 1,5,-1
 283 602 l 1,6,-1
 1352 1040 l 1,0,-1
EndSplineSet
Validated: 1
EndChar

StartChar: equal
Encoding: 288 61 32
Width: 1417
Flags: W
LayerCount: 2
Fore
SplineSet
274 782 m 1,0,-1
 1360 782 l 1,1,-1
 1360 676 l 1,2,-1
 274 676 l 1,3,-1
 274 782 l 1,0,-1
274 434 m 1,4,-1
 1360 434 l 1,5,-1
 1360 328 l 1,6,-1
 274 328 l 1,7,-1
 274 434 l 1,4,-1
EndSplineSet
Validated: 1
EndChar

StartChar: greater
Encoding: 289 62 33
Width: 1397
Flags: W
LayerCount: 2
Fore
SplineSet
283 1040 m 1,0,-1
 1352 602 l 1,1,-1
 1352 508 l 1,2,-1
 283 70 l 1,3,-1
 283 188 l 1,4,-1
 1188 553 l 1,5,-1
 283 926 l 1,6,-1
 283 1040 l 1,0,-1
EndSplineSet
Validated: 1
EndChar

StartChar: question
Encoding: 290 63 34
Width: 893
Flags: W
LayerCount: 2
Fore
SplineSet
225 86 m 0,0,1
 225 130 225 130 258.5 163.5 c 128,-1,2
 292 197 292 197 336 197 c 0,3,4
 338 197 338 197 346 195 c 128,-1,5
 354 193 354 193 356 193 c 0,6,7
 395 187 395 187 420.5 154.5 c 128,-1,8
 446 122 446 122 446 86 c 0,9,10
 446 69 446 69 438 45 c 0,11,12
 409 -25 409 -25 336 -25 c 0,13,14
 293 -25 293 -25 259 6 c 128,-1,15
 225 37 225 37 225 86 c 0,0,1
377 459 m 1,16,-1
 377 340 l 1,17,-1
 295 340 l 1,18,-1
 295 598 l 1,19,20
 311 598 311 598 336 596 c 128,-1,21
 361 594 361 594 373 594 c 0,22,23
 443 594 443 594 498 610 c 128,-1,24
 553 626 553 626 596 665.5 c 128,-1,25
 639 705 639 705 664 774 c 0,26,27
 680 818 680 818 680 877 c 0,28,29
 680 940 680 940 658 1001 c 128,-1,30
 636 1062 636 1062 594 1106 c 0,31,32
 549 1154 549 1154 484 1181 c 128,-1,33
 419 1208 419 1208 352 1208 c 0,34,35
 324 1208 324 1208 274 1200 c 1,36,37
 219 1185 219 1185 191.5 1156 c 128,-1,38
 164 1127 164 1127 152 1073 c 1,39,-1
 98 1073 l 1,40,-1
 98 1278 l 1,41,42
 225 1323 225 1323 348 1323 c 0,43,44
 409 1323 409 1323 471 1311 c 0,45,46
 592 1287 592 1287 685 1197.5 c 128,-1,47
 778 1108 778 1108 815 987 c 1,48,49
 836 901 836 901 836 840 c 0,50,51
 836 759 836 759 808 687.5 c 128,-1,52
 780 616 780 616 725 561 c 0,53,54
 666 502 666 502 587 478.5 c 128,-1,55
 508 455 508 455 414 455 c 0,56,57
 407 455 407 455 395 457 c 128,-1,58
 383 459 383 459 377 459 c 1,16,-1
EndSplineSet
Validated: 1
EndChar

StartChar: at
Encoding: 291 64 35
Width: 1786
Flags: W
LayerCount: 2
Fore
SplineSet
1020 877 m 1,0,1
 917 864 917 864 836.5 714.5 c 128,-1,2
 756 565 756 565 733 434 c 0,3,4
 721 385 721 385 721 332 c 0,5,6
 721 269 721 269 745 225 c 0,7,8
 787 160 787 160 864 160 c 0,9,10
 894 160 894 160 926 172 c 0,11,12
 997 201 997 201 1056 285.5 c 128,-1,13
 1115 370 1115 370 1149.5 477 c 128,-1,14
 1184 584 1184 584 1184 680 c 0,15,16
 1184 770 1184 770 1149.5 823.5 c 128,-1,17
 1115 877 1115 877 1040 877 c 2,18,-1
 1020 877 l 1,0,1
1122 307 m 1,19,20
 1004 115 1004 115 844 115 c 0,21,22
 815 115 815 115 799 119 c 0,23,24
 699 130 699 130 644.5 219.5 c 128,-1,25
 590 309 590 309 590 418 c 0,26,27
 590 450 590 450 598 500 c 0,28,29
 614 582 614 582 658.5 657 c 128,-1,30
 703 732 703 732 765.5 789.5 c 128,-1,31
 828 847 828 847 898.5 880 c 128,-1,32
 969 913 969 913 1032 913 c 0,33,34
 1182 913 1182 913 1233 737 c 1,35,-1
 1278 901 l 1,36,-1
 1409 901 l 1,37,-1
 1257 348 l 2,38,39
 1241 282 1241 282 1241 254 c 0,40,41
 1241 152 1241 152 1319 152 c 0,42,43
 1347 152 1347 152 1389 172 c 0,44,45
 1474 204 1474 204 1536.5 269 c 128,-1,46
 1599 334 1599 334 1637.5 417.5 c 128,-1,47
 1676 501 1676 501 1692 594 c 0,48,49
 1700 635 1700 635 1700 705 c 0,50,51
 1700 825 1700 825 1656.5 929.5 c 128,-1,52
 1613 1034 1613 1034 1529 1112 c 128,-1,53
 1445 1190 1445 1190 1327 1233 c 0,54,55
 1266 1255 1266 1255 1200 1266.5 c 128,-1,56
 1134 1278 1134 1278 1069 1278 c 0,57,58
 915 1278 915 1278 770.5 1221 c 128,-1,59
 626 1164 626 1164 520 1061 c 0,60,61
 418 962 418 962 358.5 833.5 c 128,-1,62
 299 705 299 705 287 565 c 0,63,64
 279 499 279 499 279 459 c 0,65,66
 279 305 279 305 332 188 c 0,67,68
 375 90 375 90 445 18 c 128,-1,69
 515 -54 515 -54 611.5 -105.5 c 128,-1,70
 708 -157 708 -157 810 -181 c 128,-1,71
 912 -205 912 -205 1016 -205 c 0,72,73
 1102 -205 1102 -205 1143 -197 c 0,74,75
 1272 -178 1272 -178 1370 -136 c 128,-1,76
 1468 -94 1468 -94 1577 -20 c 1,77,-1
 1606 -53 l 1,78,79
 1490 -133 1490 -133 1381 -180 c 128,-1,80
 1272 -227 1272 -227 1139 -246 c 1,81,82
 1049 -254 1049 -254 995 -254 c 0,83,84
 826 -254 826 -254 668.5 -200.5 c 128,-1,85
 511 -147 511 -147 393 -37 c 0,86,87
 284 68 284 68 228 202.5 c 128,-1,88
 172 337 172 337 172 479 c 0,89,90
 172 639 172 639 235.5 792 c 128,-1,91
 299 945 299 945 414 1057 c 0,92,93
 497 1140 497 1140 601.5 1199.5 c 128,-1,94
 706 1259 706 1259 823 1289 c 128,-1,95
 940 1319 940 1319 1057 1319 c 0,96,97
 1153 1319 1153 1319 1225 1303 c 0,98,99
 1339 1284 1339 1284 1436 1231 c 128,-1,100
 1533 1178 1533 1178 1601 1100.5 c 128,-1,101
 1669 1023 1669 1023 1707 922.5 c 128,-1,102
 1745 822 1745 822 1745 705 c 0,103,104
 1742 549 1742 549 1684.5 413 c 128,-1,105
 1627 277 1627 277 1516 193 c 0,106,107
 1413 111 1413 111 1307 111 c 0,108,109
 1265 111 1265 111 1225 131 c 1,110,111
 1137 165 1137 165 1122 307 c 1,19,20
EndSplineSet
Validated: 1
EndChar

StartChar: A
Encoding: 292 65 36
Width: 1257
Flags: W
LayerCount: 2
Fore
SplineSet
422 643 m 1,0,-1
 778 643 l 1,1,-1
 594 1098 l 1,2,-1
 422 643 l 1,0,-1
266 57 m 1,3,-1
 266 0 l 1,4,-1
 29 0 l 1,5,-1
 29 57 l 1,6,7
 68 66 68 66 90 135 c 1,8,-1
 561 1298 l 1,9,-1
 680 1298 l 1,10,-1
 1163 115 l 2,11,12
 1169 102 1169 102 1175 88.5 c 128,-1,13
 1181 75 1181 75 1189.5 66.5 c 128,-1,14
 1198 58 1198 58 1212 57 c 1,15,-1
 1212 0 l 1,16,-1
 946 0 l 1,17,-1
 946 57 l 1,18,19
 995 65 995 65 995 90 c 0,20,21
 995 94 995 94 993 101 c 128,-1,22
 991 108 991 108 991 111 c 2,23,-1
 827 524 l 1,24,-1
 373 524 l 1,25,-1
 217 123 l 2,26,27
 217 119 217 119 215 111 c 128,-1,28
 213 103 213 103 213 102 c 0,29,30
 213 65 213 65 266 57 c 1,3,-1
EndSplineSet
Validated: 1
EndChar

StartChar: B
Encoding: 293 66 37
Width: 1257
Flags: W
LayerCount: 2
Fore
SplineSet
614 0 m 2,0,-1
 123 0 l 1,1,-1
 123 57 l 1,2,3
 158 60 158 60 173 75 c 128,-1,4
 188 90 188 90 188 123 c 2,5,-1
 188 1176 l 2,6,7
 188 1209 188 1209 173.5 1224 c 128,-1,8
 159 1239 159 1239 123 1245 c 1,9,-1
 123 1298 l 1,10,-1
 676 1298 l 2,11,12
 783 1298 783 1298 873.5 1279 c 128,-1,13
 964 1260 964 1260 1027.5 1203.5 c 128,-1,14
 1091 1147 1091 1147 1106 1044 c 0,15,16
 1106 1036 1106 1036 1108 1016 c 128,-1,17
 1110 996 1110 996 1110 987 c 0,18,19
 1110 897 1110 897 1057 833 c 128,-1,20
 1004 769 1004 769 909 729 c 1,21,22
 994 708 994 708 1053 677.5 c 128,-1,23
 1112 647 1112 647 1151 590 c 0,24,25
 1204 507 1204 507 1204 389 c 0,26,27
 1204 318 1204 318 1184 250 c 1,28,29
 1127 95 1127 95 978 47.5 c 128,-1,30
 829 0 829 0 614 0 c 2,0,-1
684 668 m 2,31,-1
 356 668 l 1,32,-1
 356 123 l 1,33,-1
 659 123 l 2,34,35
 816 123 816 123 915 175.5 c 128,-1,36
 1014 228 1014 228 1028 369 c 1,37,-1
 1028 393 l 2,38,39
 1028 526 1028 526 928.5 597 c 128,-1,40
 829 668 829 668 684 668 c 2,31,-1
705 786 m 2,41,42
 796 786 796 786 866 830 c 128,-1,43
 936 874 936 874 942 963 c 1,44,-1
 942 983 l 2,45,46
 942 1048 942 1048 910.5 1093.5 c 128,-1,47
 879 1139 879 1139 825.5 1159.5 c 128,-1,48
 772 1180 772 1180 700 1180 c 2,49,-1
 356 1180 l 1,50,-1
 356 786 l 1,51,-1
 705 786 l 2,41,42
EndSplineSet
Validated: 1
EndChar

StartChar: C
Encoding: 294 67 38
Width: 1298
Flags: W
LayerCount: 2
Fore
SplineSet
1180 -12 m 1,0,1
 1006 -29 1006 -29 918 -29 c 0,2,3
 831 -29 831 -29 758 -17 c 128,-1,4
 685 -5 685 -5 610 25 c 0,5,6
 391 106 391 106 251 296.5 c 128,-1,7
 111 487 111 487 111 717 c 0,8,9
 111 824 111 824 144.5 920 c 128,-1,10
 178 1016 178 1016 239.5 1092.5 c 128,-1,11
 301 1169 301 1169 388 1224 c 128,-1,12
 475 1279 475 1279 578 1303 c 0,13,14
 680 1323 680 1323 774 1323 c 0,15,16
 910 1323 910 1323 1020 1282 c 1,17,18
 1134 1233 1134 1233 1245 1135 c 1,19,-1
 1077 971 l 1,20,-1
 1036 1012 l 1,21,22
 1053 1033 1053 1033 1053 1061 c 0,23,24
 1053 1099 1053 1099 1013 1131 c 128,-1,25
 973 1163 973 1163 907 1181.5 c 128,-1,26
 841 1200 841 1200 766 1200 c 0,27,28
 651 1200 651 1200 543.5 1154 c 128,-1,29
 436 1108 436 1108 366 1003.5 c 128,-1,30
 296 899 296 899 295 737 c 0,31,32
 295 735 295 735 293 733 c 128,-1,33
 291 731 291 731 291 729 c 0,34,35
 291 582 291 582 351 461 c 128,-1,36
 411 340 411 340 508 258.5 c 128,-1,37
 605 177 605 177 715 135.5 c 128,-1,38
 825 94 825 94 918 94 c 0,39,40
 1003 94 1003 94 1060 128 c 128,-1,41
 1117 162 1117 162 1126 225 c 1,42,-1
 1180 225 l 1,43,-1
 1180 -12 l 1,0,1
EndSplineSet
Validated: 1
EndChar

StartChar: D
Encoding: 295 68 39
Width: 1356
Flags: W
LayerCount: 2
Fore
SplineSet
365 127 m 1,0,-1
 586 127 l 2,1,2
 733 127 733 127 831.5 148.5 c 128,-1,3
 930 170 930 170 1004 246 c 0,4,5
 1122 364 1122 364 1122 565 c 0,6,7
 1122 668 1122 668 1085 791 c 0,8,9
 1044 921 1044 921 972.5 1001.5 c 128,-1,10
 901 1082 901 1082 808.5 1120 c 128,-1,11
 716 1158 716 1158 616.5 1169 c 128,-1,12
 517 1180 517 1180 365 1180 c 1,13,-1
 365 127 l 1,0,-1
541 0 m 1,14,-1
 127 0 l 1,15,-1
 127 57 l 1,16,17
 151 61 151 61 165.5 69 c 128,-1,18
 180 77 180 77 186.5 92 c 128,-1,19
 193 107 193 107 193 131 c 2,20,-1
 193 1171 l 2,21,22
 193 1208 193 1208 177.5 1223.5 c 128,-1,23
 162 1239 162 1239 127 1245 c 1,24,-1
 127 1298 l 1,25,-1
 373 1298 l 2,26,27
 561 1298 561 1298 689 1284.5 c 128,-1,28
 817 1271 817 1271 930 1217 c 0,29,30
 1003 1183 1003 1183 1066.5 1126 c 128,-1,31
 1130 1069 1130 1069 1175.5 1001 c 128,-1,32
 1221 933 1221 933 1251.5 856 c 128,-1,33
 1282 779 1282 779 1298 692 c 0,34,35
 1307 625 1307 625 1307 573 c 0,36,37
 1307 482 1307 482 1282.5 393.5 c 128,-1,38
 1258 305 1258 305 1209 232.5 c 128,-1,39
 1160 160 1160 160 1085 106 c 0,40,41
 1016 59 1016 59 928 35.5 c 128,-1,42
 840 12 840 12 758.5 6 c 128,-1,43
 677 0 677 0 557 0 c 2,44,-1
 541 0 l 1,14,-1
EndSplineSet
Validated: 1
EndChar

StartChar: E
Encoding: 296 69 40
Width: 1176
Flags: W
LayerCount: 2
Fore
SplineSet
0 0 m 1,0,-1
 119 0 l 1,1,-1
 119 57 l 1,2,3
 158 65 158 65 173 80 c 128,-1,4
 188 95 188 95 188 131 c 2,5,-1
 188 1171 l 2,6,7
 188 1208 188 1208 172.5 1223.5 c 128,-1,8
 157 1239 157 1239 119 1245 c 1,9,-1
 119 1298 l 1,10,-1
 1081 1298 l 1,11,-1
 1081 1081 l 1,12,-1
 1032 1081 l 1,13,14
 1026 1143 1026 1143 991.5 1161.5 c 128,-1,15
 957 1180 957 1180 893 1180 c 2,16,-1
 356 1180 l 1,17,-1
 356 795 l 1,18,-1
 819 795 l 2,19,20
 903 795 903 795 913 860 c 1,21,-1
 963 860 l 1,22,-1
 963 610 l 1,23,-1
 913 610 l 1,24,25
 903 676 903 676 819 676 c 2,26,-1
 356 676 l 1,27,-1
 356 127 l 1,28,-1
 946 127 l 2,29,30
 1010 127 1010 127 1042 153 c 128,-1,31
 1074 179 1074 179 1077 242 c 1,32,-1
 1130 242 l 1,33,-1
 1130 0 l 1,34,-1
 0 0 l 1,0,-1
EndSplineSet
Validated: 5
EndChar

StartChar: F
Encoding: 297 70 41
Width: 1196
Flags: W
LayerCount: 2
Fore
SplineSet
0 0 m 1,0,-1
 135 0 l 1,1,-1
 135 57 l 1,2,3
 174 65 174 65 187.5 78.5 c 128,-1,4
 201 92 201 92 201 131 c 2,5,-1
 201 1171 l 2,6,7
 201 1211 201 1211 187 1225 c 128,-1,8
 173 1239 173 1239 135 1245 c 1,9,-1
 135 1298 l 1,10,-1
 1155 1298 l 1,11,-1
 1155 1065 l 1,12,-1
 1106 1065 l 1,13,14
 1100 1129 1100 1129 1068.5 1154.5 c 128,-1,15
 1037 1180 1037 1180 971 1180 c 2,16,-1
 369 1180 l 1,17,-1
 369 795 l 1,18,-1
 803 795 l 2,19,20
 887 795 887 795 897 860 c 1,21,-1
 954 860 l 1,22,-1
 954 610 l 1,23,-1
 897 610 l 1,24,25
 887 676 887 676 803 676 c 2,26,-1
 369 676 l 1,27,-1
 369 131 l 2,28,29
 369 95 369 95 383 80 c 128,-1,30
 397 65 397 65 434 57 c 1,31,-1
 434 0 l 1,32,-1
 0 0 l 1,0,-1
EndSplineSet
Validated: 5
EndChar

StartChar: G
Encoding: 298 71 42
Width: 1319
Flags: W
LayerCount: 2
Fore
SplineSet
1278 750 m 1,0,-1
 1278 692 l 1,1,2
 1241 686 1241 686 1226 671 c 128,-1,3
 1211 656 1211 656 1208 618 c 2,4,-1
 1208 127 l 1,5,6
 1212 92 1212 92 1221.5 74 c 128,-1,7
 1231 56 1231 56 1257 53 c 1,8,-1
 1257 0 l 1,9,10
 1044 -25 1044 -25 946 -25 c 256,11,12
 848 -25 848 -25 725 -4 c 0,13,14
 560 29 560 29 423.5 123.5 c 128,-1,15
 287 218 287 218 204 357.5 c 128,-1,16
 121 497 121 497 111 668 c 1,17,-1
 111 709 l 2,18,19
 111 851 111 851 168 974 c 128,-1,20
 225 1097 225 1097 331 1183 c 128,-1,21
 437 1269 437 1269 578 1303 c 1,22,23
 680 1323 680 1323 770 1323 c 0,24,25
 910 1323 910 1323 1020 1282 c 1,26,27
 1142 1231 1142 1231 1270 1110 c 1,28,-1
 1102 946 l 1,29,-1
 1057 987 l 1,30,31
 1077 1015 1077 1015 1077 1036 c 0,32,33
 1077 1089 1077 1089 1013.5 1135 c 128,-1,34
 950 1181 950 1181 885 1196 c 0,35,36
 830 1208 830 1208 770 1208 c 0,37,38
 626 1208 626 1208 505 1136 c 128,-1,39
 384 1064 384 1064 332 934 c 0,40,41
 291 832 291 832 291 729 c 0,42,43
 291 641 291 641 317 554 c 128,-1,44
 343 467 343 467 390 390 c 128,-1,45
 437 313 437 313 504 254 c 0,46,47
 594 177 594 177 704 137.5 c 128,-1,48
 814 98 814 98 930 98 c 0,49,50
 953 98 953 98 1049 111 c 1,51,-1
 1049 623 l 2,52,53
 1049 686 1049 686 983 692 c 1,54,-1
 983 750 l 1,55,-1
 1278 750 l 1,0,-1
EndSplineSet
Validated: 1
EndChar

StartChar: H
Encoding: 299 72 43
Width: 1356
Flags: W
LayerCount: 2
Fore
SplineSet
356 131 m 2,0,1
 356 107 356 107 362.5 92 c 128,-1,2
 369 77 369 77 383.5 69.5 c 128,-1,3
 398 62 398 62 422 57 c 1,4,-1
 422 0 l 1,5,-1
 123 0 l 1,6,-1
 123 57 l 1,7,8
 161 65 161 65 174.5 79.5 c 128,-1,9
 188 94 188 94 188 131 c 2,10,-1
 188 1171 l 2,11,12
 188 1209 188 1209 174 1224 c 128,-1,13
 160 1239 160 1239 123 1245 c 1,14,-1
 123 1298 l 1,15,-1
 422 1298 l 1,16,-1
 422 1245 l 1,17,18
 384 1239 384 1239 370 1224 c 128,-1,19
 356 1209 356 1209 356 1171 c 2,20,-1
 356 791 l 1,21,-1
 1077 791 l 1,22,-1
 1077 1171 l 2,23,24
 1074 1211 1074 1211 1060 1225 c 128,-1,25
 1046 1239 1046 1239 1008 1245 c 1,26,-1
 1008 1298 l 1,27,-1
 1311 1298 l 1,28,-1
 1311 1245 l 1,29,30
 1270 1239 1270 1239 1255.5 1225 c 128,-1,31
 1241 1211 1241 1211 1241 1171 c 2,32,-1
 1241 131 l 2,33,34
 1241 95 1241 95 1256.5 80 c 128,-1,35
 1272 65 1272 65 1311 57 c 1,36,-1
 1311 0 l 1,37,-1
 1008 0 l 1,38,-1
 1008 57 l 1,39,40
 1047 65 1047 65 1062 80 c 128,-1,41
 1077 95 1077 95 1077 131 c 2,42,-1
 1077 672 l 1,43,-1
 356 672 l 1,44,-1
 356 131 l 2,0,1
EndSplineSet
Validated: 1
EndChar

StartChar: I
Encoding: 300 73 44
Width: 487
Flags: W
LayerCount: 2
Fore
SplineSet
0 0 m 1,0,-1
 127 0 l 1,1,-1
 127 57 l 1,2,3
 166 65 166 65 179.5 78.5 c 128,-1,4
 193 92 193 92 193 131 c 2,5,-1
 193 1171 l 2,6,7
 193 1208 193 1208 177.5 1223.5 c 128,-1,8
 162 1239 162 1239 127 1245 c 1,9,-1
 127 1298 l 1,10,-1
 430 1298 l 1,11,-1
 430 1245 l 1,12,13
 389 1239 389 1239 377 1225.5 c 128,-1,14
 365 1212 365 1212 365 1171 c 2,15,-1
 365 131 l 2,16,17
 365 92 365 92 378 78.5 c 128,-1,18
 391 65 391 65 430 57 c 1,19,-1
 430 0 l 1,20,-1
 0 0 l 1,0,-1
EndSplineSet
Validated: 5
EndChar

StartChar: J
Encoding: 301 74 45
Width: 991
Flags: W
LayerCount: 2
Fore
SplineSet
29 254 m 1,0,-1
 201 397 l 1,1,-1
 242 352 l 1,2,3
 209 320 209 320 209 270 c 0,4,5
 209 225 209 225 247 183.5 c 128,-1,6
 285 142 285 142 336 123 c 0,7,8
 383 106 383 106 434 106 c 0,9,10
 500 106 500 106 560 131.5 c 128,-1,11
 620 157 620 157 655 205 c 0,12,13
 685 243 685 243 695 293.5 c 128,-1,14
 705 344 705 344 705 414 c 2,15,-1
 705 1171 l 2,16,17
 705 1212 705 1212 692 1225.5 c 128,-1,18
 679 1239 679 1239 639 1245 c 1,19,-1
 639 1298 l 1,20,-1
 942 1298 l 1,21,-1
 942 1245 l 1,22,23
 904 1239 904 1239 890.5 1224 c 128,-1,24
 877 1209 877 1209 877 1171 c 2,25,-1
 877 442 l 2,26,27
 877 222 877 222 766 97.5 c 128,-1,28
 655 -27 655 -27 438 -33 c 1,29,-1
 418 -33 l 2,30,31
 322 -33 322 -33 250.5 1.5 c 128,-1,32
 179 36 179 36 128.5 97 c 128,-1,33
 78 158 78 158 29 254 c 1,0,-1
EndSplineSet
Validated: 1
EndChar

StartChar: K
Encoding: 302 75 46
Width: 1298
Flags: W
LayerCount: 2
Fore
SplineSet
0 0 m 1,0,-1
 123 0 l 1,1,-1
 123 57 l 1,2,3
 162 65 162 65 175 78.5 c 128,-1,4
 188 92 188 92 188 131 c 2,5,-1
 188 1171 l 2,6,7
 188 1208 188 1208 173.5 1223.5 c 128,-1,8
 159 1239 159 1239 123 1245 c 1,9,-1
 123 1298 l 1,10,-1
 422 1298 l 1,11,-1
 422 1245 l 1,12,13
 384 1239 384 1239 370 1224 c 128,-1,14
 356 1209 356 1209 356 1171 c 2,15,-1
 356 745 l 1,16,-1
 881 1200 l 2,17,18
 893 1212 893 1212 893 1221 c 0,19,20
 893 1232 893 1232 872 1238.5 c 128,-1,21
 851 1245 851 1245 831 1245 c 1,22,-1
 831 1298 l 1,23,-1
 1192 1298 l 1,24,-1
 1192 1245 l 1,25,26
 1154 1241 1154 1241 1131.5 1234.5 c 128,-1,27
 1109 1228 1109 1228 1090 1208 c 2,28,-1
 729 897 l 1,29,-1
 1171 119 l 2,30,31
 1200 69 1200 69 1249 57 c 1,32,-1
 1249 0 l 1,33,-1
 938 0 l 1,34,-1
 938 57 l 1,35,36
 961 57 961 57 978 65 c 128,-1,37
 995 73 995 73 995 86 c 0,38,39
 995 93 995 93 987 111 c 2,40,-1
 602 786 l 1,41,-1
 356 573 l 1,42,-1
 356 131 l 2,43,44
 356 63 356 63 422 57 c 1,45,-1
 422 0 l 1,46,-1
 0 0 l 1,0,-1
EndSplineSet
Validated: 5
EndChar

StartChar: L
Encoding: 303 76 47
Width: 1094
Flags: W
LayerCount: 2
Fore
SplineSet
0 0 m 1,0,-1
 119 0 l 1,1,-1
 119 57 l 1,2,3
 158 65 158 65 173 80 c 128,-1,4
 188 95 188 95 188 131 c 2,5,-1
 188 1171 l 2,6,7
 188 1208 188 1208 172.5 1223.5 c 128,-1,8
 157 1239 157 1239 119 1245 c 1,9,-1
 119 1298 l 1,10,-1
 426 1298 l 1,11,-1
 426 1245 l 1,12,13
 388 1239 388 1239 372 1223.5 c 128,-1,14
 356 1208 356 1208 356 1171 c 2,15,-1
 356 127 l 1,16,-1
 868 127 l 2,17,18
 935 127 935 127 965.5 152.5 c 128,-1,19
 996 178 996 178 999 242 c 1,20,-1
 1053 242 l 1,21,-1
 1053 0 l 1,22,-1
 0 0 l 1,0,-1
EndSplineSet
Validated: 5
EndChar

StartChar: M
Encoding: 304 77 48
Width: 1520
Flags: W
LayerCount: 2
Fore
SplineSet
279 0 m 1,0,-1
 33 0 l 1,1,-1
 33 57 l 1,2,3
 89 72 89 72 94 119 c 2,4,-1
 287 1184 l 1,5,-1
 287 1196 l 2,6,7
 287 1239 287 1239 242 1245 c 1,8,-1
 242 1298 l 1,9,-1
 459 1298 l 1,10,-1
 758 561 l 1,11,-1
 1040 1298 l 1,12,-1
 1266 1298 l 1,13,-1
 1266 1245 l 1,14,15
 1217 1240 1217 1240 1217 1192 c 0,16,17
 1217 1189 1217 1189 1219 1180 c 128,-1,18
 1221 1171 1221 1171 1221 1163 c 2,19,-1
 1401 119 l 2,20,21
 1407 89 1407 89 1419.5 77 c 128,-1,22
 1432 65 1432 65 1462 57 c 1,23,-1
 1462 0 l 1,24,-1
 1184 0 l 1,25,-1
 1184 57 l 1,26,27
 1237 63 1237 63 1237 102 c 2,28,-1
 1237 119 l 1,29,-1
 1073 1065 l 1,30,-1
 782 303 l 1,31,-1
 700 303 l 1,32,-1
 397 1057 l 1,33,-1
 225 119 l 1,34,-1
 225 102 l 2,35,36
 225 57 225 57 279 57 c 1,37,-1
 279 0 l 1,0,-1
EndSplineSet
Validated: 1
EndChar

StartChar: N
Encoding: 305 78 49
Width: 1319
Flags: W
LayerCount: 2
Fore
SplineSet
0 0 m 1,0,-1
 123 0 l 1,1,-1
 123 57 l 1,2,3
 161 65 161 65 174.5 79.5 c 128,-1,4
 188 94 188 94 188 131 c 2,5,-1
 188 1171 l 2,6,7
 188 1208 188 1208 173.5 1223.5 c 128,-1,8
 159 1239 159 1239 123 1245 c 1,9,-1
 123 1298 l 1,10,-1
 360 1298 l 1,11,-1
 1077 672 l 1,12,-1
 1077 1171 l 2,13,14
 1077 1211 1077 1211 1063.5 1225 c 128,-1,15
 1050 1239 1050 1239 1012 1245 c 1,16,-1
 1012 1298 l 1,17,-1
 1270 1298 l 1,18,-1
 1270 1245 l 1,19,20
 1230 1239 1230 1239 1217 1225.5 c 128,-1,21
 1204 1212 1204 1212 1204 1171 c 2,22,-1
 1204 131 l 2,23,24
 1204 92 1204 92 1217.5 78.5 c 128,-1,25
 1231 65 1231 65 1270 57 c 1,26,-1
 1270 0 l 1,27,-1
 1012 0 l 1,28,-1
 1012 57 l 1,29,30
 1051 65 1051 65 1064 78.5 c 128,-1,31
 1077 92 1077 92 1077 131 c 2,32,-1
 1077 446 l 1,33,-1
 315 1110 l 1,34,-1
 315 131 l 2,35,36
 315 95 315 95 330 80 c 128,-1,37
 345 65 345 65 381 57 c 1,38,-1
 381 0 l 1,39,-1
 0 0 l 1,0,-1
EndSplineSet
Validated: 5
EndChar

StartChar: O
Encoding: 306 79 50
Width: 1479
Flags: W
LayerCount: 2
Fore
SplineSet
106 647 m 0,0,1
 106 809 106 809 161 939 c 128,-1,2
 216 1069 216 1069 310 1155 c 128,-1,3
 404 1241 404 1241 520.5 1284 c 128,-1,4
 637 1327 637 1327 766 1327 c 0,5,6
 893 1327 893 1327 1010 1284 c 128,-1,7
 1127 1241 1127 1241 1221.5 1154.5 c 128,-1,8
 1316 1068 1316 1068 1370.5 938.5 c 128,-1,9
 1425 809 1425 809 1425 647 c 0,10,11
 1425 501 1425 501 1378.5 376.5 c 128,-1,12
 1332 252 1332 252 1243.5 159.5 c 128,-1,13
 1155 67 1155 67 1033.5 17 c 128,-1,14
 912 -33 912 -33 766 -33 c 0,15,16
 575 -33 575 -33 423.5 54.5 c 128,-1,17
 272 142 272 142 189 297 c 128,-1,18
 106 452 106 452 106 647 c 0,0,1
877 1196 m 1,19,20
 795 1204 795 1204 758 1204 c 0,21,22
 613 1204 613 1204 507 1130.5 c 128,-1,23
 401 1057 401 1057 346 929 c 128,-1,24
 291 801 291 801 291 647 c 0,25,26
 291 537 291 537 320.5 435 c 128,-1,27
 350 333 350 333 409 255.5 c 128,-1,28
 468 178 468 178 559 134 c 128,-1,29
 650 90 650 90 766 90 c 0,30,31
 884 90 884 90 973.5 133.5 c 128,-1,32
 1063 177 1063 177 1122.5 254 c 128,-1,33
 1182 331 1182 331 1211.5 430.5 c 128,-1,34
 1241 530 1241 530 1241 647 c 0,35,36
 1241 743 1241 743 1219.5 832 c 128,-1,37
 1198 921 1198 921 1154.5 996 c 128,-1,38
 1111 1071 1111 1071 1041.5 1124.5 c 128,-1,39
 972 1178 972 1178 877 1196 c 1,19,20
EndSplineSet
Validated: 1
EndChar

StartChar: P
Encoding: 307 80 51
Width: 1094
Flags: W
LayerCount: 2
Fore
SplineSet
356 532 m 1,0,1
 433 562 433 562 490 584 c 128,-1,2
 547 606 547 606 606 633.5 c 128,-1,3
 665 661 665 661 718.5 696.5 c 128,-1,4
 772 732 772 732 815 778 c 0,5,6
 846 812 846 812 861.5 855 c 128,-1,7
 877 898 877 898 877 946 c 0,8,9
 877 1002 877 1002 860 1036 c 1,10,11
 840 1094 840 1094 786.5 1130 c 128,-1,12
 733 1166 733 1166 668 1176 c 1,13,14
 544 1184 544 1184 479 1184 c 2,15,-1
 356 1184 l 1,16,-1
 356 532 l 1,0,1
123 0 m 1,17,-1
 123 57 l 1,18,19
 161 65 161 65 174.5 79.5 c 128,-1,20
 188 94 188 94 188 131 c 2,21,-1
 188 1171 l 2,22,23
 188 1209 188 1209 174 1224 c 128,-1,24
 160 1239 160 1239 123 1245 c 1,25,-1
 123 1298 l 1,26,-1
 598 1298 l 2,27,28
 676 1298 676 1298 738 1291 c 128,-1,29
 800 1284 800 1284 856 1262 c 0,30,31
 933 1229 933 1229 987 1158.5 c 128,-1,32
 1041 1088 1041 1088 1053 1004 c 1,33,-1
 1053 954 l 2,34,35
 1053 838 1053 838 983.5 747 c 128,-1,36
 914 656 914 656 813.5 596 c 128,-1,37
 713 536 713 536 569 479.5 c 128,-1,38
 425 423 425 423 356 397 c 1,39,-1
 356 131 l 2,40,41
 356 107 356 107 362.5 92 c 128,-1,42
 369 77 369 77 383.5 69.5 c 128,-1,43
 398 62 398 62 422 57 c 1,44,-1
 422 0 l 1,45,-1
 123 0 l 1,17,-1
EndSplineSet
Validated: 1
EndChar

StartChar: Q
Encoding: 308 81 52
Width: 1561
Flags: W
LayerCount: 2
Fore
SplineSet
1053 180 m 1,0,1
 919 307 919 307 803 307 c 0,2,3
 715 307 715 307 623 238 c 1,4,-1
 557 307 l 1,5,6
 702 434 702 434 827 434 c 0,7,8
 966 434 966 434 1151 283 c 1,9,10
 1245 431 1245 431 1245 647 c 0,11,12
 1242 796 1242 796 1194.5 920 c 128,-1,13
 1147 1044 1147 1044 1044 1118 c 0,14,15
 987 1161 987 1161 914 1182.5 c 128,-1,16
 841 1204 841 1204 766 1204 c 0,17,18
 703 1204 703 1204 642 1189.5 c 128,-1,19
 581 1175 581 1175 532 1147 c 0,20,21
 455 1103 455 1103 398.5 1022 c 128,-1,22
 342 941 342 941 314.5 843 c 128,-1,23
 287 745 287 745 287 643 c 0,24,25
 287 555 287 555 306.5 474 c 128,-1,26
 326 393 326 393 363.5 324 c 128,-1,27
 401 255 401 255 455 205 c 0,28,29
 512 148 512 148 591.5 119 c 128,-1,30
 671 90 671 90 758 90 c 0,31,32
 924 90 924 90 1053 180 c 1,0,1
1462 152 m 1,33,-1
 1516 152 l 1,34,-1
 1516 -33 l 1,35,36
 1467 -49 1467 -49 1417 -49 c 0,37,38
 1368 -49 1368 -49 1327 -32.5 c 128,-1,39
 1286 -16 1286 -16 1247 11.5 c 128,-1,40
 1208 39 1208 39 1155 82 c 1,41,42
 1009 -8 1009 -8 877 -25 c 0,43,44
 803 -33 803 -33 758 -33 c 0,45,46
 641 -33 641 -33 516 12 c 0,47,48
 324 80 324 80 217.5 258 c 128,-1,49
 111 436 111 436 111 647 c 0,50,51
 111 771 111 771 148 887.5 c 128,-1,52
 185 1004 185 1004 258 1098 c 0,53,54
 322 1175 322 1175 401.5 1224.5 c 128,-1,55
 481 1274 481 1274 574.5 1298.5 c 128,-1,56
 668 1323 668 1323 766 1323 c 0,57,58
 815 1323 815 1323 836 1319 c 0,59,60
 944 1312 944 1312 1042.5 1269 c 128,-1,61
 1141 1226 1141 1226 1216.5 1154.5 c 128,-1,62
 1292 1083 1292 1083 1343 983 c 0,63,64
 1385 900 1385 900 1405 817.5 c 128,-1,65
 1425 735 1425 735 1425 651 c 0,66,67
 1425 524 1425 524 1383 405 c 128,-1,68
 1341 286 1341 286 1257 184 c 1,69,70
 1271 173 1271 173 1297 149.5 c 128,-1,71
 1323 126 1323 126 1346.5 112.5 c 128,-1,72
 1370 99 1370 99 1393 94 c 1,73,-1
 1409 94 l 2,74,75
 1432 94 1432 94 1447 109.5 c 128,-1,76
 1462 125 1462 125 1462 152 c 1,33,-1
EndSplineSet
Validated: 1
EndChar

StartChar: R
Encoding: 309 82 53
Width: 1217
Flags: W
LayerCount: 2
Fore
SplineSet
0 0 m 1,0,-1
 123 0 l 1,1,-1
 123 57 l 1,2,3
 161 65 161 65 174.5 79.5 c 128,-1,4
 188 94 188 94 188 131 c 2,5,-1
 188 1171 l 2,6,7
 188 1209 188 1209 174 1224 c 128,-1,8
 160 1239 160 1239 123 1245 c 1,9,-1
 123 1298 l 1,10,-1
 692 1298 l 2,11,12
 795 1298 795 1298 871.5 1279 c 128,-1,13
 948 1260 948 1260 1008 1200 c 0,14,15
 1052 1155 1052 1155 1075 1092 c 128,-1,16
 1098 1029 1098 1029 1098 958 c 0,17,18
 1098 842 1098 842 1047.5 767 c 128,-1,19
 997 692 997 692 909.5 651.5 c 128,-1,20
 822 611 822 611 709 598 c 1,21,-1
 1069 106 l 1,22,23
 1099 73 1099 73 1163 57 c 1,24,-1
 1163 0 l 1,25,-1
 946 0 l 1,26,-1
 520 590 l 1,27,-1
 356 590 l 1,28,-1
 356 131 l 2,29,30
 356 107 356 107 362.5 92 c 128,-1,31
 369 77 369 77 383.5 69.5 c 128,-1,32
 398 62 398 62 422 57 c 1,33,-1
 422 0 l 1,34,-1
 0 0 l 1,0,-1
590 705 m 2,35,36
 684 705 684 705 761 727.5 c 128,-1,37
 838 750 838 750 886 803.5 c 128,-1,38
 934 857 934 857 934 942 c 0,39,40
 934 1067 934 1067 847 1123.5 c 128,-1,41
 760 1180 760 1180 631 1180 c 2,42,-1
 356 1180 l 1,43,-1
 356 705 l 1,44,-1
 590 705 l 2,35,36
EndSplineSet
Validated: 5
EndChar

StartChar: S
Encoding: 310 83 54
Width: 1155
Flags: W
LayerCount: 2
Fore
SplineSet
78 295 m 1,0,-1
 270 418 l 1,1,-1
 307 365 l 1,2,3
 258 322 258 322 258 274 c 0,4,5
 258 224 258 224 328 168 c 0,6,7
 427 86 427 86 582 86 c 0,8,9
 673 86 673 86 745 111 c 1,10,11
 833 135 833 135 885.5 192.5 c 128,-1,12
 938 250 938 250 938 332 c 0,13,14
 938 365 938 365 934 377 c 0,15,16
 923 448 923 448 863 489 c 128,-1,17
 803 530 803 530 717 557 c 2,18,-1
 446 647 l 2,19,20
 384 667 384 667 327 695.5 c 128,-1,21
 270 724 270 724 224.5 767 c 128,-1,22
 179 810 179 810 156 868 c 0,23,24
 135 921 135 921 135 975 c 0,25,26
 135 1038 135 1038 158.5 1095.5 c 128,-1,27
 182 1153 182 1153 225 1196 c 0,28,29
 364 1323 364 1323 606 1323 c 0,30,31
 735 1323 735 1323 835.5 1277 c 128,-1,32
 936 1231 936 1231 1044 1139 c 1,33,-1
 901 967 l 1,34,-1
 852 1004 l 1,35,36
 868 1052 868 1052 868 1065 c 0,37,38
 868 1135 868 1135 758 1184 c 1,39,40
 672 1212 672 1212 594 1212 c 0,41,42
 504 1212 504 1212 418 1176 c 0,43,44
 365 1154 365 1154 328 1105.5 c 128,-1,45
 291 1057 291 1057 291 1004 c 0,46,47
 291 970 291 970 307 942 c 0,48,49
 332 891 332 891 374 870 c 128,-1,50
 416 849 416 849 512 815 c 2,51,-1
 733 741 l 2,52,53
 825 712 825 712 891.5 678.5 c 128,-1,54
 958 645 958 645 1010.5 591 c 128,-1,55
 1063 537 1063 537 1085 459 c 0,56,57
 1098 411 1098 411 1098 356 c 0,58,59
 1098 265 1098 265 1054 183.5 c 128,-1,60
 1010 102 1010 102 934 53 c 0,61,62
 801 -33 801 -33 594 -33 c 0,63,64
 490 -33 490 -33 426 -16 c 0,65,66
 338 6 338 6 275 47.5 c 128,-1,67
 212 89 212 89 167.5 148 c 128,-1,68
 123 207 123 207 78 295 c 1,0,-1
EndSplineSet
Validated: 1
EndChar

StartChar: T
Encoding: 311 84 55
Width: 1196
Flags: W
LayerCount: 2
Fore
SplineSet
442 0 m 1,0,-1
 442 57 l 1,1,2
 472 59 472 59 487.5 65 c 128,-1,3
 503 71 503 71 509.5 86 c 128,-1,4
 516 101 516 101 516 131 c 2,5,-1
 516 1180 l 1,6,-1
 233 1180 l 2,7,8
 173 1180 173 1180 143.5 1160 c 128,-1,9
 114 1140 114 1140 111 1081 c 1,10,-1
 57 1081 l 1,11,-1
 57 1298 l 1,12,-1
 1151 1298 l 1,13,-1
 1151 1081 l 1,14,-1
 1098 1081 l 1,15,16
 1092 1140 1092 1140 1064 1160 c 128,-1,17
 1036 1180 1036 1180 975 1180 c 2,18,-1
 688 1180 l 1,19,-1
 688 131 l 2,20,21
 688 90 688 90 704 75 c 128,-1,22
 720 60 720 60 762 57 c 1,23,-1
 762 0 l 1,24,-1
 442 0 l 1,0,-1
EndSplineSet
Validated: 1
EndChar

StartChar: U
Encoding: 312 85 56
Width: 1237
Flags: W
LayerCount: 2
Fore
SplineSet
696 0 m 2,0,1
 618 0 618 0 557 6.5 c 128,-1,2
 496 13 496 13 435 31 c 128,-1,3
 374 49 374 49 319 82 c 0,4,5
 236 138 236 138 181 221 c 128,-1,6
 126 304 126 304 111 397 c 0,7,8
 98 456 98 456 98 524 c 0,9,10
 98 643 98 643 134.5 773.5 c 128,-1,11
 171 904 171 904 233 1036 c 0,12,13
 238 1047 238 1047 281 1123 c 128,-1,14
 324 1199 324 1199 324 1208 c 2,15,-1
 324 1212 l 2,16,17
 322 1231 322 1231 307.5 1235.5 c 128,-1,18
 293 1240 293 1240 258 1245 c 1,19,-1
 258 1298 l 1,20,-1
 573 1298 l 1,21,-1
 573 1245 l 1,22,23
 500 1223 500 1223 439 1127.5 c 128,-1,24
 378 1032 378 1032 341 917 c 128,-1,25
 304 802 304 802 291 717 c 0,26,27
 274 613 274 613 274 561 c 0,28,29
 274 383 274 383 360 262 c 0,30,31
 459 123 459 123 692 123 c 2,32,-1
 958 123 l 1,33,-1
 958 1171 l 2,34,35
 958 1208 958 1208 943.5 1223.5 c 128,-1,36
 929 1239 929 1239 893 1245 c 1,37,-1
 893 1298 l 1,38,-1
 1192 1298 l 1,39,-1
 1192 1245 l 1,40,41
 1154 1239 1154 1239 1140 1224 c 128,-1,42
 1126 1209 1126 1209 1126 1171 c 2,43,-1
 1126 131 l 2,44,45
 1126 95 1126 95 1141 80 c 128,-1,46
 1156 65 1156 65 1192 57 c 1,47,-1
 1192 0 l 1,48,-1
 696 0 l 2,0,1
EndSplineSet
Validated: 1
EndChar

StartChar: V
Encoding: 313 86 57
Width: 1176
Flags: W
LayerCount: 2
Fore
SplineSet
623 0 m 1,0,-1
 520 0 l 1,1,-1
 94 1184 l 1,2,3
 79 1245 79 1245 37 1245 c 1,4,-1
 37 1298 l 1,5,-1
 315 1298 l 1,6,-1
 315 1245 l 1,7,8
 266 1237 266 1237 266 1208 c 0,9,10
 266 1204 266 1204 274 1188 c 2,11,-1
 598 279 l 1,12,-1
 926 1180 l 2,13,14
 930 1184 930 1184 930 1196 c 0,15,16
 930 1237 930 1237 877 1245 c 1,17,-1
 877 1298 l 1,18,-1
 1126 1298 l 1,19,-1
 1126 1245 l 1,20,21
 1075 1236 1075 1236 1053 1167 c 2,22,-1
 623 0 l 1,0,-1
EndSplineSet
Validated: 1
EndChar

StartChar: W
Encoding: 314 87 58
Width: 1786
Flags: W
LayerCount: 2
Fore
SplineSet
520 0 m 1,0,-1
 94 1184 l 1,1,2
 79 1245 79 1245 37 1245 c 1,3,-1
 37 1298 l 1,4,-1
 311 1298 l 1,5,-1
 311 1245 l 1,6,7
 262 1237 262 1237 262 1208 c 0,8,9
 262 1204 262 1204 270 1188 c 2,10,-1
 602 262 l 1,11,-1
 827 885 l 1,12,-1
 717 1184 l 1,13,14
 702 1245 702 1245 659 1245 c 1,15,-1
 659 1298 l 1,16,-1
 930 1298 l 1,17,-1
 930 1245 l 1,18,19
 877 1238 877 1238 877 1208 c 0,20,21
 877 1204 877 1204 885 1188 c 2,22,-1
 1208 279 l 1,23,-1
 1536 1180 l 1,24,-1
 1536 1200 l 2,25,26
 1536 1238 1536 1238 1487 1245 c 1,27,-1
 1487 1298 l 1,28,-1
 1737 1298 l 1,29,-1
 1737 1245 l 1,30,31
 1685 1236 1685 1236 1663 1167 c 2,32,-1
 1237 0 l 1,33,-1
 1143 0 l 1,34,-1
 885 717 l 1,35,-1
 623 0 l 1,36,-1
 520 0 l 1,0,-1
EndSplineSet
Validated: 1
EndChar

StartChar: X
Encoding: 315 88 59
Width: 1257
Flags: W
LayerCount: 2
Fore
SplineSet
352 0 m 1,0,-1
 33 0 l 1,1,-1
 33 57 l 1,2,3
 99 63 99 63 143 131 c 2,4,-1
 528 688 l 1,5,-1
 176 1196 l 1,6,7
 153 1239 153 1239 90 1245 c 1,8,-1
 90 1298 l 1,9,-1
 446 1298 l 1,10,-1
 446 1245 l 1,11,12
 381 1236 381 1236 381 1204 c 0,13,14
 381 1202 381 1202 386.5 1192.5 c 128,-1,15
 392 1183 392 1183 393 1180 c 2,16,-1
 643 815 l 1,17,-1
 893 1176 l 1,18,19
 901 1200 901 1200 901 1204 c 0,20,21
 901 1223 901 1223 885 1234 c 128,-1,22
 869 1245 869 1245 844 1245 c 1,23,-1
 844 1298 l 1,24,-1
 1151 1298 l 1,25,-1
 1151 1245 l 1,26,27
 1115 1239 1115 1239 1092.5 1223.5 c 128,-1,28
 1070 1208 1070 1208 1049 1176 c 2,29,-1
 721 705 l 1,30,-1
 1114 131 l 1,31,32
 1152 85 1152 85 1168 71 c 128,-1,33
 1184 57 1184 57 1217 57 c 1,34,-1
 1217 0 l 1,35,-1
 860 0 l 1,36,-1
 860 57 l 1,37,38
 926 70 926 70 926 94 c 0,39,40
 926 107 926 107 918 115 c 2,41,-1
 602 573 l 1,42,-1
 303 127 l 2,43,44
 291 109 291 109 291 94 c 0,45,46
 291 57 291 57 352 57 c 1,47,-1
 352 0 l 1,0,-1
EndSplineSet
Validated: 1
EndChar

StartChar: Y
Encoding: 316 89 60
Width: 1155
Flags: W
LayerCount: 2
Fore
SplineSet
418 0 m 1,0,-1
 418 57 l 1,1,2
 457 65 457 65 472 80 c 128,-1,3
 487 95 487 95 487 131 c 2,4,-1
 487 487 l 1,5,-1
 111 1171 l 2,6,7
 93 1202 93 1202 76.5 1221 c 128,-1,8
 60 1240 60 1240 29 1245 c 1,9,-1
 29 1298 l 1,10,-1
 332 1298 l 1,11,-1
 332 1245 l 1,12,13
 314 1245 314 1245 302.5 1235.5 c 128,-1,14
 291 1226 291 1226 291 1212 c 0,15,16
 291 1208 291 1208 299 1184 c 1,17,-1
 598 618 l 1,18,-1
 897 1192 l 2,19,20
 901 1196 901 1196 901 1212 c 0,21,22
 901 1227 901 1227 885 1236 c 128,-1,23
 869 1245 869 1245 852 1245 c 1,24,-1
 852 1298 l 1,25,-1
 1106 1298 l 1,26,-1
 1106 1245 l 1,27,28
 1061 1240 1061 1240 1032 1184 c 2,29,-1
 664 487 l 1,30,-1
 664 131 l 2,31,32
 664 107 664 107 670 92 c 128,-1,33
 676 77 676 77 690.5 69.5 c 128,-1,34
 705 62 705 62 729 57 c 1,35,-1
 729 0 l 1,36,-1
 418 0 l 1,0,-1
EndSplineSet
Validated: 1
EndChar

StartChar: Z
Encoding: 317 90 61
Width: 1073
Flags: W
LayerCount: 2
Fore
SplineSet
1020 0 m 1,0,-1
 78 0 l 1,1,-1
 78 106 l 1,2,-1
 782 1184 l 1,3,-1
 332 1184 l 2,4,5
 271 1184 271 1184 245 1166.5 c 128,-1,6
 219 1149 219 1149 213 1094 c 1,7,-1
 164 1094 l 1,8,-1
 164 1298 l 1,9,-1
 991 1298 l 1,10,-1
 991 1204 l 1,11,-1
 283 123 l 1,12,-1
 844 123 l 2,13,14
 901 123 901 123 931.5 144 c 128,-1,15
 962 165 962 165 967 221 c 1,16,-1
 1020 221 l 1,17,-1
 1020 0 l 1,0,-1
EndSplineSet
Validated: 1
EndChar

StartChar: bracketleft
Encoding: 318 91 62
Width: 545
Flags: W
LayerCount: 2
Fore
SplineSet
504 1200 m 1,0,-1
 455 1200 l 2,1,2
 417 1200 417 1200 399 1188.5 c 128,-1,3
 381 1177 381 1177 381 1135 c 2,4,-1
 381 -152 l 2,5,6
 381 -195 381 -195 400 -208 c 128,-1,7
 419 -221 419 -221 455 -221 c 2,8,-1
 504 -221 l 1,9,-1
 504 -319 l 1,10,-1
 238 -319 l 1,11,-1
 238 1298 l 1,12,-1
 504 1298 l 1,13,-1
 504 1200 l 1,0,-1
EndSplineSet
Validated: 1
EndChar

StartChar: backslash
Encoding: 319 92 63
Width: 729
Flags: W
LayerCount: 2
Fore
SplineSet
131 1323 m 1,0,-1
 676 -172 l 1,1,-1
 573 -172 l 1,2,-1
 33 1323 l 1,3,-1
 131 1323 l 1,0,-1
EndSplineSet
Validated: 1
EndChar

StartChar: bracketright
Encoding: 320 93 64
Width: 446
Flags: W
LayerCount: 2
Fore
SplineSet
139 1200 m 1,0,-1
 139 1298 l 1,1,-1
 401 1298 l 1,2,-1
 401 -319 l 1,3,-1
 139 -319 l 1,4,-1
 139 -221 l 1,5,-1
 188 -221 l 2,6,7
 224 -221 224 -221 243 -208 c 128,-1,8
 262 -195 262 -195 262 -152 c 2,9,-1
 262 1135 l 1,10,-1
 139 1200 l 1,0,-1
EndSplineSet
Validated: 1
EndChar

StartChar: asciicircum
Encoding: 321 94 65
Width: 811
Flags: W
LayerCount: 2
Fore
SplineSet
242 995 m 1,0,-1
 455 1315 l 1,1,-1
 561 1315 l 1,2,-1
 770 995 l 1,3,-1
 717 995 l 1,4,-1
 508 1188 l 1,5,-1
 295 995 l 1,6,-1
 242 995 l 1,0,-1
EndSplineSet
Validated: 1
EndChar

StartChar: underscore
Encoding: 322 95 66
Width: 78
Flags: W
LayerCount: 2
Fore
SplineSet
41 -332 m 1,0,-1
 971 -332 l 1,1,-1
 971 -438 l 1,2,-1
 41 -438 l 1,3,-1
 41 -332 l 1,0,-1
EndSplineSet
Validated: 1
EndChar

StartChar: grave
Encoding: 323 96 67
Width: 709
Flags: W
LayerCount: 2
Fore
SplineSet
668 995 m 1,0,-1
 606 995 l 1,1,-1
 307 1184 l 2,2,3
 250 1221 250 1221 250 1262 c 0,4,5
 250 1286 250 1286 265.5 1302.5 c 128,-1,6
 281 1319 281 1319 307 1319 c 0,7,8
 327 1319 327 1319 356 1305.5 c 128,-1,9
 385 1292 385 1292 406 1270 c 2,10,-1
 668 995 l 1,0,-1
EndSplineSet
Validated: 1
EndChar

StartChar: a
Encoding: 324 97 68
Width: 971
Flags: W
LayerCount: 2
Fore
SplineSet
700 0 m 1,0,-1
 700 98 l 1,1,2
 618 39 618 39 556 11.5 c 128,-1,3
 494 -16 494 -16 414 -16 c 0,4,5
 329 -16 329 -16 256.5 15 c 128,-1,6
 184 46 184 46 141 107 c 128,-1,7
 98 168 98 168 98 254 c 0,8,9
 98 318 98 318 130 383.5 c 128,-1,10
 162 449 162 449 217 492 c 0,11,12
 306 561 306 561 423.5 588 c 128,-1,13
 541 615 541 615 700 631 c 1,14,15
 694 715 694 715 633.5 753 c 128,-1,16
 573 791 573 791 483 791 c 0,17,18
 300 791 300 791 233 659 c 1,19,-1
 188 659 l 1,20,-1
 188 819 l 1,21,22
 339 897 339 897 500 897 c 0,23,24
 603 897 603 897 684 856.5 c 128,-1,25
 765 816 765 816 810.5 742.5 c 128,-1,26
 856 669 856 669 856 578 c 2,27,-1
 856 119 l 2,28,29
 856 83 856 83 871.5 67.5 c 128,-1,30
 887 52 887 52 922 49 c 1,31,-1
 922 0 l 1,32,-1
 700 0 l 1,0,-1
700 254 m 1,33,-1
 700 524 l 1,34,35
 576 507 576 507 500 489 c 128,-1,36
 424 471 424 471 356 426 c 0,37,38
 316 402 316 402 289 355.5 c 128,-1,39
 262 309 262 309 262 262 c 0,40,41
 262 182 262 182 321 146.5 c 128,-1,42
 380 111 380 111 438 111 c 0,43,44
 590 111 590 111 700 254 c 1,33,-1
EndSplineSet
Validated: 1
EndChar

StartChar: b
Encoding: 325 98 69
Width: 1053
Flags: W
LayerCount: 2
Fore
SplineSet
483 0 m 2,0,-1
 98 0 l 1,1,-1
 98 49 l 1,2,3
 136 52 136 52 150 67.5 c 128,-1,4
 164 83 164 83 164 123 c 2,5,-1
 164 1176 l 2,6,7
 164 1219 164 1219 150.5 1233 c 128,-1,8
 137 1247 137 1247 90 1253 c 1,9,-1
 90 1298 l 1,10,-1
 319 1298 l 1,11,-1
 319 811 l 1,12,13
 478 893 478 893 614 893 c 0,14,15
 735 893 735 893 830.5 826 c 128,-1,16
 926 759 926 759 967 647 c 0,17,18
 995 561 995 561 995 487 c 0,19,20
 995 419 995 419 977.5 353.5 c 128,-1,21
 960 288 960 288 926 233 c 0,22,23
 859 124 859 124 737 62 c 128,-1,24
 615 0 615 0 483 0 c 2,0,-1
319 676 m 1,25,-1
 319 111 l 1,26,27
 340 111 340 111 366.5 108.5 c 128,-1,28
 393 106 393 106 410 106 c 0,29,30
 561 106 561 106 655 164 c 0,31,32
 738 211 738 211 782.5 297 c 128,-1,33
 827 383 827 383 827 475 c 0,34,35
 827 566 827 566 790 633 c 128,-1,36
 753 700 753 700 692 735 c 128,-1,37
 631 770 631 770 565 770 c 0,38,39
 450 770 450 770 319 676 c 1,25,-1
EndSplineSet
Validated: 1
EndChar

StartChar: c
Encoding: 326 99 70
Width: 971
Flags: W
LayerCount: 2
Fore
SplineSet
852 -4 m 1,0,1
 752 -25 752 -25 676 -25 c 0,2,3
 542 -25 542 -25 438 20 c 1,4,5
 297 74 297 74 204 197 c 128,-1,6
 111 320 111 320 111 467 c 0,7,8
 111 566 111 566 178 665.5 c 128,-1,9
 245 765 245 765 346.5 829 c 128,-1,10
 448 893 448 893 545 893 c 0,11,12
 757 893 757 893 930 745 c 1,13,-1
 795 594 l 1,14,-1
 754 627 l 1,15,16
 774 660 774 660 774 684 c 0,17,18
 774 734 774 734 672 770 c 1,19,20
 623 782 623 782 573 782 c 0,21,22
 505 782 505 782 435.5 738 c 128,-1,23
 366 694 366 694 320 619 c 128,-1,24
 274 544 274 544 274 463 c 0,25,26
 274 355 274 355 337 268.5 c 128,-1,27
 400 182 400 182 491.5 134 c 128,-1,28
 583 86 583 86 664 86 c 0,29,30
 718 86 718 86 756.5 107.5 c 128,-1,31
 795 129 795 129 807 172 c 1,32,-1
 852 172 l 1,33,-1
 852 -4 l 1,0,1
EndSplineSet
Validated: 1
EndChar

StartChar: d
Encoding: 327 100 71
Width: 1073
Flags: W
LayerCount: 2
Fore
SplineSet
795 0 m 1,0,-1
 795 102 l 1,1,2
 728 41 728 41 657 12.5 c 128,-1,3
 586 -16 586 -16 496 -16 c 0,4,5
 428 -16 428 -16 359.5 12.5 c 128,-1,6
 291 41 291 41 235 94 c 128,-1,7
 179 147 179 147 145 223.5 c 128,-1,8
 111 300 111 300 111 389 c 0,9,10
 111 465 111 465 134.5 542.5 c 128,-1,11
 158 620 158 620 202.5 683.5 c 128,-1,12
 247 747 247 747 311 795 c 1,13,14
 468 893 468 893 754 893 c 2,15,-1
 786 893 l 1,16,-1
 786 1176 l 2,17,18
 786 1218 786 1218 771.5 1232.5 c 128,-1,19
 757 1247 757 1247 713 1253 c 1,20,-1
 713 1298 l 1,21,-1
 942 1298 l 1,22,-1
 942 119 l 2,23,24
 942 80 942 80 957 66 c 128,-1,25
 972 52 972 52 1016 49 c 1,26,-1
 1016 0 l 1,27,-1
 795 0 l 1,0,-1
532 106 m 0,28,29
 605 106 605 106 670 141 c 128,-1,30
 735 176 735 176 786 238 c 1,31,-1
 786 778 l 1,32,33
 710 778 710 778 659 775.5 c 128,-1,34
 608 773 608 773 554 760.5 c 128,-1,35
 500 748 500 748 451 721 c 0,36,37
 366 672 366 672 320 583.5 c 128,-1,38
 274 495 274 495 274 401 c 0,39,40
 274 274 274 274 354 190 c 128,-1,41
 434 106 434 106 532 106 c 0,28,29
EndSplineSet
Validated: 1
EndChar

StartChar: e
Encoding: 328 101 72
Width: 950
Flags: W
LayerCount: 2
Fore
SplineSet
274 553 m 1,0,-1
 737 553 l 1,1,2
 734 659 734 659 677.5 722.5 c 128,-1,3
 621 786 621 786 516 786 c 0,4,5
 421 786 421 786 347.5 716.5 c 128,-1,6
 274 647 274 647 274 553 c 1,0,-1
864 41 m 1,7,8
 710 -29 710 -29 565 -29 c 0,9,10
 444 -29 444 -29 337.5 47.5 c 128,-1,11
 231 124 231 124 166.5 236 c 128,-1,12
 102 348 102 348 102 446 c 0,13,14
 102 572 102 572 162.5 675 c 128,-1,15
 223 778 223 778 317.5 837.5 c 128,-1,16
 412 897 412 897 512 897 c 0,17,18
 717 897 717 897 807 763.5 c 128,-1,19
 897 630 897 630 905 451 c 1,20,-1
 262 451 l 1,21,22
 271 328 271 328 322.5 246.5 c 128,-1,23
 374 165 374 165 449 125.5 c 128,-1,24
 524 86 524 86 602 86 c 0,25,26
 679 86 679 86 740 121.5 c 128,-1,27
 801 157 801 157 819 217 c 1,28,-1
 864 217 l 1,29,-1
 864 41 l 1,7,8
EndSplineSet
Validated: 1
EndChar

StartChar: f
Encoding: 329 102 73
Width: 647
Flags: W
LayerCount: 2
Fore
SplineSet
119 0 m 1,0,-1
 119 49 l 1,1,2
 159 55 159 55 172 69 c 128,-1,3
 185 83 185 83 188 123 c 2,4,-1
 188 758 l 1,5,-1
 94 758 l 1,6,-1
 94 872 l 1,7,-1
 188 872 l 1,8,9
 188 968 188 968 196.5 1042 c 128,-1,10
 205 1116 205 1116 230 1179.5 c 128,-1,11
 255 1243 255 1243 306.5 1283 c 128,-1,12
 358 1323 358 1323 442 1323 c 0,13,14
 488 1323 488 1323 606 1294 c 1,15,-1
 606 1126 l 1,16,-1
 561 1126 l 1,17,18
 549 1168 549 1168 517.5 1194.5 c 128,-1,19
 486 1221 486 1221 446 1221 c 0,20,21
 401 1221 401 1221 379 1185.5 c 128,-1,22
 357 1150 357 1150 350.5 1077.5 c 128,-1,23
 344 1005 344 1005 344 872 c 1,24,-1
 524 872 l 1,25,-1
 524 758 l 1,26,-1
 344 758 l 1,27,-1
 344 123 l 2,28,29
 344 83 344 83 358.5 67.5 c 128,-1,30
 373 52 373 52 410 49 c 1,31,-1
 410 0 l 1,32,-1
 119 0 l 1,0,-1
EndSplineSet
Validated: 1
EndChar

StartChar: g
Encoding: 330 103 74
Width: 1073
Flags: W
LayerCount: 2
Fore
SplineSet
86 -225 m 1,0,-1
 246 -86 l 1,1,-1
 279 -115 l 1,2,3
 254 -153 254 -153 254 -172 c 0,4,5
 254 -205 254 -205 283 -225 c 0,6,7
 367 -291 367 -291 504 -291 c 0,8,9
 578 -291 578 -291 652.5 -256.5 c 128,-1,10
 727 -222 727 -222 775 -167 c 128,-1,11
 823 -112 823 -112 823 -57 c 0,12,13
 823 18 823 18 786 102 c 1,14,15
 723 39 723 39 651.5 13.5 c 128,-1,16
 580 -12 580 -12 479 -12 c 0,17,18
 395 -12 395 -12 310.5 27 c 128,-1,19
 226 66 226 66 168.5 154.5 c 128,-1,20
 111 243 111 243 111 377 c 0,21,22
 111 489 111 489 160 580.5 c 128,-1,23
 209 672 209 672 288 736 c 128,-1,24
 367 800 367 800 458.5 834 c 128,-1,25
 550 868 550 868 635 868 c 2,26,-1
 1016 868 l 1,27,-1
 1016 819 l 1,28,29
 971 816 971 816 956.5 800.5 c 128,-1,30
 942 785 942 785 942 737 c 2,31,-1
 942 160 l 2,32,33
 942 125 942 125 958.5 55 c 128,-1,34
 975 -15 975 -15 975 -53 c 0,35,36
 975 -149 975 -149 928.5 -224.5 c 128,-1,37
 882 -300 882 -300 799 -344 c 0,38,39
 673 -410 673 -410 516 -410 c 0,40,41
 473 -410 473 -410 377 -393 c 0,42,43
 293 -379 293 -379 222.5 -336.5 c 128,-1,44
 152 -294 152 -294 86 -225 c 1,0,-1
786 233 m 1,45,-1
 786 758 l 1,46,-1
 696 758 l 2,47,48
 523 758 523 758 422 688 c 1,49,50
 354 635 354 635 316.5 556 c 128,-1,51
 279 477 279 477 279 389 c 0,52,53
 279 254 279 254 353.5 178 c 128,-1,54
 428 102 428 102 524 102 c 0,55,56
 593 102 593 102 663 139.5 c 128,-1,57
 733 177 733 177 786 233 c 1,45,-1
EndSplineSet
Validated: 1
EndChar

StartChar: h
Encoding: 331 104 75
Width: 1073
Flags: W
LayerCount: 2
Fore
SplineSet
111 0 m 1,0,-1
 111 49 l 1,1,2
 147 52 147 52 161.5 68 c 128,-1,3
 176 84 176 84 176 123 c 2,4,-1
 176 1176 l 2,5,6
 176 1218 176 1218 161.5 1232.5 c 128,-1,7
 147 1247 147 1247 102 1253 c 1,8,-1
 102 1298 l 1,9,-1
 332 1298 l 1,10,-1
 332 774 l 1,11,12
 475 897 475 897 631 897 c 0,13,14
 719 897 719 897 795 856 c 0,15,16
 946 783 946 783 946 557 c 2,17,-1
 946 123 l 2,18,19
 946 83 946 83 961 67.5 c 128,-1,20
 976 52 976 52 1016 49 c 1,21,-1
 1016 0 l 1,22,-1
 725 0 l 1,23,-1
 725 49 l 1,24,25
 763 52 763 52 779 68 c 128,-1,26
 795 84 795 84 795 123 c 2,27,-1
 795 512 l 2,28,29
 795 614 795 614 770 678 c 128,-1,30
 745 742 745 742 659 766 c 1,31,32
 611 774 611 774 590 774 c 0,33,34
 470 774 470 774 332 643 c 1,35,-1
 332 123 l 2,36,37
 332 84 332 84 345 69.5 c 128,-1,38
 358 55 358 55 397 49 c 1,39,-1
 397 0 l 1,40,-1
 111 0 l 1,0,-1
EndSplineSet
Validated: 1
EndChar

StartChar: i
Encoding: 332 105 76
Width: 446
Flags: W
LayerCount: 2
Fore
SplineSet
258 1237 m 1,0,1
 297 1228 297 1228 322.5 1196.5 c 128,-1,2
 348 1165 348 1165 348 1126 c 0,3,4
 348 1111 348 1111 340 1085 c 0,5,6
 325 1052 325 1052 298 1036 c 128,-1,7
 271 1020 271 1020 238 1020 c 0,8,9
 194 1020 194 1020 160.5 1050.5 c 128,-1,10
 127 1081 127 1081 127 1130 c 0,11,12
 127 1176 127 1176 160 1206.5 c 128,-1,13
 193 1237 193 1237 238 1237 c 2,14,-1
 258 1237 l 1,0,1
401 49 m 1,15,-1
 401 0 l 1,16,-1
 90 0 l 1,17,-1
 90 49 l 1,18,19
 132 52 132 52 148 67 c 128,-1,20
 164 82 164 82 164 123 c 2,21,-1
 164 750 l 2,22,23
 164 789 164 789 148 803 c 128,-1,24
 132 817 132 817 90 823 c 1,25,-1
 90 872 l 1,26,-1
 328 872 l 1,27,-1
 328 123 l 2,28,29
 328 82 328 82 343.5 67 c 128,-1,30
 359 52 359 52 401 49 c 1,15,-1
EndSplineSet
Validated: 1
EndChar

StartChar: j
Encoding: 333 106 77
Width: 487
Flags: W
LayerCount: 2
Fore
SplineSet
25 -381 m 1,0,-1
 25 -217 l 1,1,-1
 74 -217 l 1,2,3
 86 -291 86 -291 160 -291 c 2,4,-1
 168 -291 l 2,5,6
 262 -291 262 -291 262 -131 c 2,7,-1
 262 745 l 2,8,9
 262 788 262 788 247.5 802.5 c 128,-1,10
 233 817 233 817 188 823 c 1,11,-1
 188 872 l 1,12,-1
 422 872 l 1,13,-1
 422 -70 l 2,14,15
 422 -173 422 -173 402 -246 c 128,-1,16
 382 -319 382 -319 319 -360 c 0,17,18
 251 -406 251 -406 152 -406 c 0,19,20
 81 -406 81 -406 25 -381 c 1,0,-1
225 1135 m 0,21,22
 225 1181 225 1181 256 1213 c 128,-1,23
 287 1245 287 1245 332 1245 c 0,24,25
 336 1245 336 1245 345 1243 c 128,-1,26
 354 1241 354 1241 356 1241 c 0,27,28
 396 1235 396 1235 419 1203 c 128,-1,29
 442 1171 442 1171 442 1135 c 0,30,31
 442 1106 442 1106 434 1094 c 0,32,33
 422 1061 422 1061 394 1042.5 c 128,-1,34
 366 1024 366 1024 336 1024 c 0,35,36
 291 1024 291 1024 258 1054.5 c 128,-1,37
 225 1085 225 1085 225 1135 c 0,21,22
EndSplineSet
Validated: 1
EndChar

StartChar: k
Encoding: 334 107 78
Width: 1032
Flags: W
LayerCount: 2
Fore
SplineSet
106 0 m 1,0,-1
 106 49 l 1,1,2
 143 52 143 52 157.5 68 c 128,-1,3
 172 84 172 84 172 123 c 2,4,-1
 172 1176 l 2,5,6
 172 1219 172 1219 159 1233 c 128,-1,7
 146 1247 146 1247 102 1253 c 1,8,-1
 102 1298 l 1,9,-1
 328 1298 l 1,10,-1
 328 496 l 1,11,-1
 664 774 l 2,12,13
 676 780 676 780 676 791 c 256,14,15
 676 802 676 802 654.5 812.5 c 128,-1,16
 633 823 633 823 618 823 c 1,17,-1
 618 872 l 1,18,-1
 938 872 l 1,19,-1
 938 823 l 1,20,-1
 934 823 l 2,21,22
 919 823 919 823 907.5 818 c 128,-1,23
 896 813 896 813 885.5 805.5 c 128,-1,24
 875 798 875 798 864 791 c 2,25,-1
 578 569 l 1,26,-1
 901 106 l 2,27,28
 930 62 930 62 983 49 c 1,29,-1
 983 0 l 1,30,-1
 664 0 l 1,31,-1
 664 49 l 1,32,33
 684 49 684 49 704.5 57 c 128,-1,34
 725 65 725 65 725 82 c 0,35,36
 725 90 725 90 717 98 c 2,37,-1
 467 479 l 1,38,-1
 328 373 l 1,39,-1
 328 123 l 2,40,41
 328 84 328 84 339.5 69.5 c 128,-1,42
 351 55 351 55 389 49 c 1,43,-1
 389 0 l 1,44,-1
 106 0 l 1,0,-1
EndSplineSet
Validated: 1
EndChar

StartChar: l
Encoding: 335 108 79
Width: 446
Flags: W
LayerCount: 2
Fore
SplineSet
0 0 m 1,0,-1
 94 0 l 1,1,-1
 94 49 l 1,2,3
 126 54 126 54 139 60 c 128,-1,4
 152 66 152 66 158 80.5 c 128,-1,5
 164 95 164 95 164 123 c 2,6,-1
 164 1180 l 2,7,8
 164 1221 164 1221 150 1234 c 128,-1,9
 136 1247 136 1247 94 1253 c 1,10,-1
 94 1298 l 1,11,-1
 328 1298 l 1,12,-1
 328 123 l 2,13,14
 328 82 328 82 342.5 69 c 128,-1,15
 357 56 357 56 401 49 c 1,16,-1
 401 0 l 1,17,-1
 0 0 l 1,0,-1
EndSplineSet
Validated: 5
EndChar

StartChar: m
Encoding: 336 109 80
Width: 1642
Flags: W
LayerCount: 2
Fore
SplineSet
111 0 m 1,0,-1
 111 49 l 1,1,2
 147 52 147 52 161.5 68 c 128,-1,3
 176 84 176 84 176 123 c 2,4,-1
 176 745 l 2,5,6
 176 788 176 788 161.5 802.5 c 128,-1,7
 147 817 147 817 102 823 c 1,8,-1
 102 872 l 1,9,-1
 328 872 l 1,10,-1
 332 774 l 1,11,12
 471 893 471 893 614 893 c 0,13,14
 800 893 800 893 897 741 c 1,15,16
 1047 893 1047 893 1217 893 c 0,17,18
 1282 893 1282 893 1331 877 c 1,19,20
 1422 856 1422 856 1479 779.5 c 128,-1,21
 1536 703 1536 703 1536 606 c 2,22,-1
 1536 123 l 2,23,24
 1536 84 1536 84 1551.5 68 c 128,-1,25
 1567 52 1567 52 1602 49 c 1,26,-1
 1602 0 l 1,27,-1
 1315 0 l 1,28,-1
 1315 49 l 1,29,30
 1356 55 1356 55 1368 69 c 128,-1,31
 1380 83 1380 83 1380 123 c 2,32,-1
 1380 565 l 2,33,34
 1380 627 1380 627 1368.5 667 c 128,-1,35
 1357 707 1357 707 1315 737 c 1,36,37
 1250 774 1250 774 1188 774 c 0,38,39
 1150 774 1150 774 1106.5 758.5 c 128,-1,40
 1063 743 1063 743 1028 717 c 0,41,42
 999 699 999 699 966.5 661.5 c 128,-1,43
 934 624 934 624 934 598 c 2,44,-1
 934 123 l 2,45,46
 934 86 934 86 947.5 69 c 128,-1,47
 961 52 961 52 995 49 c 1,48,-1
 995 0 l 1,49,-1
 713 0 l 1,50,-1
 713 49 l 1,51,52
 749 52 749 52 761.5 68.5 c 128,-1,53
 774 85 774 85 774 123 c 2,54,-1
 774 565 l 2,55,56
 774 625 774 625 750 673 c 128,-1,57
 726 721 726 721 682 747.5 c 128,-1,58
 638 774 638 774 578 774 c 0,59,60
 465 774 465 774 332 647 c 1,61,-1
 332 123 l 2,62,63
 332 86 332 86 345.5 69 c 128,-1,64
 359 52 359 52 393 49 c 1,65,-1
 393 0 l 1,66,-1
 111 0 l 1,0,-1
EndSplineSet
Validated: 1
EndChar

StartChar: n
Encoding: 337 110 81
Width: 1073
Flags: W
LayerCount: 2
Fore
SplineSet
111 0 m 1,0,-1
 111 49 l 1,1,2
 147 52 147 52 161.5 68 c 128,-1,3
 176 84 176 84 176 123 c 2,4,-1
 176 745 l 2,5,6
 176 788 176 788 161.5 802.5 c 128,-1,7
 147 817 147 817 102 823 c 1,8,-1
 102 872 l 1,9,-1
 332 872 l 1,10,-1
 332 774 l 1,11,12
 399 832 399 832 476.5 864.5 c 128,-1,13
 554 897 554 897 631 897 c 0,14,15
 717 897 717 897 789 843 c 128,-1,16
 861 789 861 789 903.5 708 c 128,-1,17
 946 627 946 627 946 557 c 2,18,-1
 946 123 l 2,19,20
 946 96 946 96 952 80 c 128,-1,21
 958 64 958 64 975 57 c 128,-1,22
 992 50 992 50 1016 49 c 1,23,-1
 1016 0 l 1,24,-1
 729 0 l 1,25,-1
 729 49 l 1,26,27
 764 55 764 55 779.5 71 c 128,-1,28
 795 87 795 87 795 123 c 2,29,-1
 795 500 l 2,30,31
 795 571 795 571 776.5 633 c 128,-1,32
 758 695 758 695 712.5 734.5 c 128,-1,33
 667 774 667 774 594 774 c 0,34,35
 470 774 470 774 332 643 c 1,36,-1
 332 123 l 2,37,38
 332 84 332 84 345 69.5 c 128,-1,39
 358 55 358 55 397 49 c 1,40,-1
 397 0 l 1,41,-1
 111 0 l 1,0,-1
EndSplineSet
Validated: 1
EndChar

StartChar: o
Encoding: 338 111 82
Width: 1053
Flags: W
LayerCount: 2
Fore
SplineSet
1012 434 m 0,0,1
 1012 312 1012 312 950.5 201 c 128,-1,2
 889 90 889 90 783 22.5 c 128,-1,3
 677 -45 677 -45 553 -45 c 0,4,5
 431 -45 431 -45 325.5 23 c 128,-1,6
 220 91 220 91 159 201.5 c 128,-1,7
 98 312 98 312 98 434 c 0,8,9
 98 528 98 528 132 612 c 128,-1,10
 166 696 166 696 228 762.5 c 128,-1,11
 290 829 290 829 374 867 c 128,-1,12
 458 905 458 905 549 905 c 0,13,14
 675 905 675 905 780.5 841.5 c 128,-1,15
 886 778 886 778 949 669 c 128,-1,16
 1012 560 1012 560 1012 434 c 0,0,1
553 807 m 0,17,18
 416 807 416 807 341 699 c 128,-1,19
 266 591 266 591 266 434 c 0,20,21
 266 338 266 338 295.5 253.5 c 128,-1,22
 325 169 325 169 389.5 117.5 c 128,-1,23
 454 66 454 66 553 66 c 0,24,25
 628 66 628 66 684 96 c 128,-1,26
 740 126 740 126 777 179 c 128,-1,27
 814 232 814 232 831 296 c 128,-1,28
 848 360 848 360 848 434 c 0,29,30
 848 513 848 513 810 602 c 128,-1,31
 772 691 772 691 704.5 749 c 128,-1,32
 637 807 637 807 553 807 c 0,17,18
EndSplineSet
Validated: 1
EndChar

StartChar: p
Encoding: 339 112 83
Width: 1032
Flags: W
LayerCount: 2
Fore
SplineSet
94 -410 m 1,0,-1
 94 -360 l 1,1,2
 135 -354 135 -354 149.5 -340 c 128,-1,3
 164 -326 164 -326 164 -287 c 2,4,-1
 164 741 l 2,5,6
 164 787 164 787 149 802 c 128,-1,7
 134 817 134 817 90 823 c 1,8,-1
 90 868 l 1,9,-1
 315 868 l 1,10,-1
 315 778 l 1,11,12
 393 838 393 838 458 865.5 c 128,-1,13
 523 893 523 893 606 893 c 0,14,15
 705 893 705 893 793.5 835.5 c 128,-1,16
 882 778 882 778 936.5 684.5 c 128,-1,17
 991 591 991 591 991 492 c 0,18,19
 991 402 991 402 963.5 323 c 128,-1,20
 936 244 936 244 882.5 179.5 c 128,-1,21
 829 115 829 115 754 70 c 0,22,23
 684 29 684 29 598 14.5 c 128,-1,24
 512 0 512 0 401 0 c 2,25,-1
 315 0 l 1,26,-1
 315 -287 l 2,27,28
 315 -326 315 -326 329.5 -340 c 128,-1,29
 344 -354 344 -354 385 -360 c 1,30,-1
 385 -410 l 1,31,-1
 94 -410 l 1,0,-1
315 647 m 1,32,-1
 315 111 l 1,33,34
 339 111 339 111 366 108.5 c 128,-1,35
 393 106 393 106 410 106 c 0,36,37
 546 106 546 106 655 164 c 0,38,39
 737 212 737 212 782 296.5 c 128,-1,40
 827 381 827 381 827 479 c 0,41,42
 827 529 827 529 812 579.5 c 128,-1,43
 797 630 797 630 767 673 c 128,-1,44
 737 716 737 716 686 745 c 128,-1,45
 635 774 635 774 569 774 c 0,46,47
 457 774 457 774 315 647 c 1,32,-1
EndSplineSet
Validated: 1
EndChar

StartChar: q
Encoding: 340 113 84
Width: 1053
Flags: W
LayerCount: 2
Fore
SplineSet
705 -410 m 1,0,-1
 705 -360 l 1,1,2
 746 -353 746 -353 762 -340 c 128,-1,3
 778 -327 778 -327 778 -287 c 2,4,-1
 778 74 l 1,5,6
 631 -25 631 -25 496 -25 c 0,7,8
 417 -25 417 -25 337 12.5 c 128,-1,9
 257 50 257 50 199 114.5 c 128,-1,10
 141 179 141 179 119 258 c 1,11,12
 102 345 102 345 102 381 c 0,13,14
 102 452 102 452 122 522 c 128,-1,15
 142 592 142 592 180.5 653.5 c 128,-1,16
 219 715 219 715 274 758 c 0,17,18
 332 803 332 803 399.5 827.5 c 128,-1,19
 467 852 467 852 540.5 861 c 128,-1,20
 614 870 614 870 692 872 c 2,21,-1
 999 872 l 1,22,-1
 999 823 l 1,23,24
 960 817 960 817 947 803 c 128,-1,25
 934 789 934 789 934 750 c 2,26,-1
 934 -287 l 2,27,28
 934 -328 934 -328 946.5 -340.5 c 128,-1,29
 959 -353 959 -353 999 -360 c 1,30,-1
 999 -410 l 1,31,-1
 705 -410 l 1,0,-1
524 98 m 0,32,33
 648 98 648 98 778 213 c 1,34,-1
 778 758 l 1,35,36
 750 762 750 762 688 762 c 0,37,38
 517 762 517 762 414 692 c 0,39,40
 346 643 346 643 308 562.5 c 128,-1,41
 270 482 270 482 270 393 c 0,42,43
 270 345 270 345 283 303 c 0,44,45
 295 248 295 248 329.5 201 c 128,-1,46
 364 154 364 154 415 126 c 128,-1,47
 466 98 466 98 524 98 c 0,32,33
EndSplineSet
Validated: 1
EndChar

StartChar: r
Encoding: 341 114 85
Width: 668
Flags: W
LayerCount: 2
Fore
SplineSet
0 0 m 1,0,-1
 106 0 l 1,1,-1
 106 49 l 1,2,3
 143 52 143 52 157.5 68 c 128,-1,4
 172 84 172 84 172 123 c 2,5,-1
 172 750 l 2,6,7
 172 789 172 789 159 803 c 128,-1,8
 146 817 146 817 106 823 c 1,9,-1
 106 872 l 1,10,-1
 315 872 l 1,11,-1
 315 803 l 1,12,13
 398 885 398 885 504 885 c 0,14,15
 557 885 557 885 623 864 c 1,16,-1
 623 684 l 1,17,-1
 578 684 l 1,18,19
 565 720 565 720 532.5 739 c 128,-1,20
 500 758 500 758 463 758 c 0,21,22
 410 758 410 758 371 726 c 128,-1,23
 332 694 332 694 332 643 c 2,24,-1
 332 127 l 2,25,26
 332 84 332 84 347.5 68 c 128,-1,27
 363 52 363 52 406 49 c 1,28,-1
 406 0 l 1,29,-1
 0 0 l 1,0,-1
EndSplineSet
Validated: 5
EndChar

StartChar: s
Encoding: 342 115 86
Width: 852
Flags: W
LayerCount: 2
Fore
SplineSet
74 131 m 1,0,-1
 217 279 l 1,1,-1
 254 238 l 1,2,3
 233 208 233 208 233 188 c 0,4,5
 233 141 233 141 308.5 115.5 c 128,-1,6
 384 90 384 90 463 90 c 0,7,8
 526 90 526 90 590.5 132 c 128,-1,9
 655 174 655 174 655 229 c 0,10,11
 655 320 655 320 492 373 c 1,12,13
 414 392 414 392 373.5 402.5 c 128,-1,14
 333 413 333 413 283.5 434.5 c 128,-1,15
 234 456 234 456 201 483 c 0,16,17
 123 548 123 548 123 651 c 0,18,19
 123 685 123 685 137 724 c 128,-1,20
 151 763 151 763 176 791 c 0,21,22
 210 826 210 826 256 850.5 c 128,-1,23
 302 875 302 875 352 886 c 128,-1,24
 402 897 402 897 451 897 c 0,25,26
 507 897 507 897 566 882.5 c 128,-1,27
 625 868 625 868 677.5 840.5 c 128,-1,28
 730 813 730 813 774 774 c 1,29,-1
 655 623 l 1,30,-1
 614 655 l 1,31,32
 631 677 631 677 631 700 c 0,33,34
 631 744 631 744 561.5 769.5 c 128,-1,35
 492 795 492 795 430 795 c 0,36,37
 383 795 383 795 345.5 777.5 c 128,-1,38
 308 760 308 760 287 732.5 c 128,-1,39
 266 705 266 705 266 676 c 0,40,41
 266 645 266 645 292.5 617 c 128,-1,42
 319 589 319 589 373 573 c 0,43,44
 451 549 451 549 511 532 c 128,-1,45
 571 515 571 515 622.5 495 c 128,-1,46
 674 475 674 475 717 442 c 0,47,48
 747 421 747 421 767 392.5 c 128,-1,49
 787 364 787 364 797 330 c 128,-1,50
 807 296 807 296 807 258 c 0,51,52
 807 226 807 226 791 160 c 1,53,54
 751 63 751 63 658 19 c 128,-1,55
 565 -25 565 -25 446 -25 c 0,56,57
 325 -25 325 -25 240.5 10.5 c 128,-1,58
 156 46 156 46 74 131 c 1,0,-1
EndSplineSet
Validated: 1
EndChar

StartChar: t
Encoding: 343 116 87
Width: 627
Flags: W
LayerCount: 2
Fore
SplineSet
176 758 m 1,0,-1
 61 758 l 1,1,-1
 61 872 l 1,2,-1
 176 872 l 1,3,-1
 176 1106 l 1,4,-1
 332 1143 l 1,5,-1
 332 872 l 1,6,-1
 532 872 l 1,7,-1
 532 758 l 1,8,-1
 332 758 l 1,9,-1
 332 184 l 2,10,11
 332 137 332 137 359 111.5 c 128,-1,12
 386 86 386 86 426 86 c 0,13,14
 461 86 461 86 489.5 108.5 c 128,-1,15
 518 131 518 131 524 172 c 1,16,-1
 573 172 l 1,17,-1
 573 4 l 1,18,19
 494 -20 494 -20 401 -20 c 0,20,21
 303 -20 303 -20 239.5 30.5 c 128,-1,22
 176 81 176 81 176 188 c 2,23,-1
 176 758 l 1,0,-1
EndSplineSet
Validated: 1
EndChar

StartChar: u
Encoding: 344 117 88
Width: 1053
Flags: W
LayerCount: 2
Fore
SplineSet
930 872 m 1,0,-1
 930 127 l 2,1,2
 930 84 930 84 945.5 68 c 128,-1,3
 961 52 961 52 1004 49 c 1,4,-1
 1004 0 l 1,5,-1
 774 0 l 1,6,-1
 774 94 l 1,7,8
 619 -25 619 -25 479 -25 c 0,9,10
 458 -25 458 -25 393 -16 c 1,11,12
 271 10 271 10 213.5 96.5 c 128,-1,13
 156 183 156 183 156 311 c 2,14,-1
 156 750 l 2,15,16
 156 789 156 789 142 803 c 128,-1,17
 128 817 128 817 90 823 c 1,18,-1
 90 872 l 1,19,-1
 311 872 l 1,20,-1
 311 348 l 2,21,22
 311 258 311 258 331.5 201 c 128,-1,23
 352 144 352 144 422 115 c 0,24,25
 469 94 469 94 512 94 c 0,26,27
 629 94 629 94 774 229 c 1,28,-1
 774 750 l 2,29,30
 774 789 774 789 760.5 803 c 128,-1,31
 747 817 747 817 709 823 c 1,32,-1
 709 872 l 1,33,-1
 930 872 l 1,0,-1
EndSplineSet
Validated: 1
EndChar

StartChar: v
Encoding: 345 118 89
Width: 930
Flags: W
LayerCount: 2
Fore
SplineSet
520 -4 m 1,0,-1
 401 -4 l 1,1,-1
 106 754 l 2,2,3
 93 789 93 789 79.5 804.5 c 128,-1,4
 66 820 66 820 37 823 c 1,5,-1
 37 872 l 1,6,-1
 307 872 l 1,7,-1
 307 823 l 1,8,-1
 299 819 l 1,9,10
 258 819 258 819 258 791 c 0,11,12
 258 786 258 786 266 770 c 2,13,-1
 479 213 l 1,14,-1
 688 754 l 2,15,16
 692 762 692 762 692 778 c 0,17,18
 692 800 692 800 675 811.5 c 128,-1,19
 658 823 658 823 631 823 c 1,20,-1
 631 872 l 1,21,-1
 885 872 l 1,22,-1
 885 823 l 1,23,24
 856 823 856 823 842.5 809 c 128,-1,25
 829 795 829 795 815 762 c 2,26,-1
 520 -4 l 1,0,-1
EndSplineSet
Validated: 1
EndChar

StartChar: w
Encoding: 346 119 90
Width: 1339
Flags: W
LayerCount: 2
Fore
SplineSet
492 -4 m 1,0,-1
 377 -4 l 1,1,-1
 94 754 l 2,2,3
 81 789 81 789 67.5 804.5 c 128,-1,4
 54 820 54 820 25 823 c 1,5,-1
 25 872 l 1,6,-1
 291 872 l 1,7,-1
 291 823 l 1,8,-1
 283 819 l 1,9,10
 242 819 242 819 242 791 c 0,11,12
 242 786 242 786 250 770 c 2,13,-1
 451 225 l 1,14,-1
 602 618 l 1,15,16
 599 627 599 627 582.5 678.5 c 128,-1,17
 566 730 566 730 551.5 765.5 c 128,-1,18
 537 801 537 801 524 811 c 0,19,20
 506 823 506 823 492 823 c 1,21,-1
 492 872 l 1,22,-1
 745 872 l 1,23,-1
 745 823 l 1,24,25
 700 823 700 823 700 795 c 0,26,27
 700 783 700 783 709 774 c 1,28,-1
 909 229 l 1,29,-1
 1102 754 l 2,30,31
 1106 762 1106 762 1106 778 c 0,32,33
 1106 800 1106 800 1088.5 811.5 c 128,-1,34
 1071 823 1071 823 1044 823 c 1,35,-1
 1044 872 l 1,36,-1
 1298 872 l 1,37,-1
 1298 823 l 1,38,39
 1269 823 1269 823 1256 808.5 c 128,-1,40
 1243 794 1243 794 1233 762 c 2,41,-1
 954 -4 l 1,42,-1
 836 -4 l 1,43,-1
 664 467 l 1,44,-1
 492 -4 l 1,0,-1
EndSplineSet
Validated: 1
EndChar

StartChar: x
Encoding: 347 120 91
Width: 930
Flags: W
LayerCount: 2
Fore
SplineSet
303 0 m 1,0,-1
 33 0 l 1,1,-1
 33 49 l 1,2,3
 77 55 77 55 106 90 c 2,4,-1
 369 471 l 1,5,-1
 152 782 l 2,6,7
 126 817 126 817 74 823 c 1,8,-1
 74 872 l 1,9,-1
 381 872 l 1,10,-1
 381 823 l 1,11,12
 363 823 363 823 347.5 815 c 128,-1,13
 332 807 332 807 332 795 c 0,14,15
 332 790 332 790 340 774 c 2,16,-1
 487 561 l 1,17,-1
 623 762 l 1,18,19
 631 786 631 786 631 786 c 1,20,21
 631 801 631 801 616.5 810.5 c 128,-1,22
 602 820 602 820 582 823 c 1,23,-1
 582 872 l 1,24,-1
 852 872 l 1,25,-1
 852 823 l 1,26,27
 800 823 800 823 766 774 c 2,28,-1
 553 463 l 1,29,-1
 807 98 l 2,30,31
 838 55 838 55 885 49 c 1,32,-1
 885 0 l 1,33,-1
 573 0 l 1,34,-1
 573 49 l 1,35,36
 635 49 635 49 635 78 c 0,37,38
 635 90 635 90 631 94 c 2,39,-1
 434 373 l 1,40,-1
 254 98 l 2,41,42
 254 96 254 96 252 90 c 128,-1,43
 250 84 250 84 250 82 c 0,44,45
 250 67 250 67 269 58 c 128,-1,46
 288 49 288 49 303 49 c 1,47,-1
 303 0 l 1,0,-1
EndSplineSet
Validated: 1
EndChar

StartChar: y
Encoding: 348 121 92
Width: 950
Flags: W
LayerCount: 2
Fore
SplineSet
500 -119 m 2,0,1
 448 -255 448 -255 360 -332.5 c 128,-1,2
 272 -410 272 -410 152 -410 c 0,3,4
 106 -410 106 -410 53 -397 c 1,5,-1
 53 -221 l 1,6,-1
 102 -221 l 1,7,8
 115 -291 115 -291 180 -291 c 0,9,10
 236 -291 236 -291 279 -254 c 0,11,12
 316 -227 316 -227 358.5 -153.5 c 128,-1,13
 401 -80 401 -80 401 -29 c 0,14,15
 401 -16 401 -16 393 8 c 2,16,-1
 94 758 l 2,17,18
 80 791 80 791 67.5 805.5 c 128,-1,19
 55 820 55 820 29 823 c 1,20,-1
 29 872 l 1,21,-1
 299 872 l 1,22,-1
 299 823 l 1,23,24
 254 816 254 816 254 791 c 0,25,26
 254 778 254 778 262 770 c 1,27,-1
 492 180 l 1,28,-1
 700 754 l 2,29,30
 705 762 705 762 705 774 c 0,31,32
 705 816 705 816 655 823 c 1,33,-1
 655 872 l 1,34,-1
 893 872 l 1,35,-1
 893 823 l 1,36,37
 851 813 851 813 831 762 c 2,38,-1
 500 -119 l 2,0,1
EndSplineSet
Validated: 1
EndChar

StartChar: z
Encoding: 349 122 93
Width: 770
Flags: W
LayerCount: 2
Fore
SplineSet
725 0 m 1,0,-1
 66 0 l 1,1,-1
 66 111 l 1,2,-1
 508 770 l 1,3,-1
 233 770 l 2,4,5
 197 770 197 770 180 747 c 128,-1,6
 163 724 163 724 152 684 c 1,7,-1
 106 684 l 1,8,-1
 106 872 l 1,9,-1
 688 872 l 1,10,-1
 688 770 l 1,11,-1
 246 115 l 1,12,-1
 553 115 l 2,13,14
 658 115 658 115 676 213 c 1,15,-1
 725 213 l 1,16,-1
 725 0 l 1,0,-1
EndSplineSet
Validated: 1
EndChar

StartChar: braceleft
Encoding: 350 123 94
Width: 852
Flags: W
LayerCount: 2
Fore
SplineSet
811 1376 m 1,0,-1
 811 1331 l 1,1,2
 732 1328 732 1328 686 1311 c 128,-1,3
 640 1294 640 1294 618.5 1261 c 128,-1,4
 597 1228 597 1228 591.5 1182 c 128,-1,5
 586 1136 586 1136 586 1061 c 2,6,-1
 586 946 l 2,7,8
 586 827 586 827 571.5 763 c 128,-1,9
 557 699 557 699 501 652.5 c 128,-1,10
 445 606 445 606 328 578 c 1,11,12
 445 550 445 550 501 503.5 c 128,-1,13
 557 457 557 457 571.5 392.5 c 128,-1,14
 586 328 586 328 586 209 c 2,15,-1
 586 94 l 2,16,17
 586 20 586 20 591.5 -26 c 128,-1,18
 597 -72 597 -72 619 -105 c 128,-1,19
 641 -138 641 -138 686 -154.5 c 128,-1,20
 731 -171 731 -171 811 -172 c 1,21,-1
 811 -221 l 1,22,23
 676 -219 676 -219 601 -195 c 128,-1,24
 526 -171 526 -171 490.5 -104.5 c 128,-1,25
 455 -38 455 -38 455 94 c 2,26,-1
 455 287 l 2,27,28
 455 386 455 386 431.5 439 c 128,-1,29
 408 492 408 492 355 516 c 128,-1,30
 302 540 302 540 201 553 c 1,31,-1
 201 606 l 1,32,33
 301 618 301 618 354.5 642 c 128,-1,34
 408 666 408 666 431.5 717.5 c 128,-1,35
 455 769 455 769 455 868 c 2,36,-1
 455 1061 l 2,37,38
 455 1193 455 1193 490.5 1259.5 c 128,-1,39
 526 1326 526 1326 601 1350 c 128,-1,40
 676 1374 676 1374 811 1376 c 1,0,-1
EndSplineSet
Validated: 1
EndChar

StartChar: bar
Encoding: 351 124 95
Width: 606
Flags: W
LayerCount: 2
Fore
SplineSet
451 1421 m 1,0,-1
 565 1421 l 1,1,-1
 565 -438 l 1,2,-1
 451 -438 l 1,3,-1
 451 1421 l 1,0,-1
EndSplineSet
Validated: 1
EndChar

StartChar: braceright
Encoding: 352 125 96
Width: 852
Flags: W
LayerCount: 2
Fore
SplineSet
205 1376 m 1,0,1
 335 1374 335 1374 411 1349 c 128,-1,2
 487 1324 487 1324 522 1257.5 c 128,-1,3
 557 1191 557 1191 557 1061 c 2,4,-1
 557 868 l 2,5,6
 557 769 557 769 580 717.5 c 128,-1,7
 603 666 603 666 656 642.5 c 128,-1,8
 709 619 709 619 811 606 c 1,9,-1
 811 553 l 1,10,11
 708 540 708 540 655.5 516 c 128,-1,12
 603 492 603 492 580 439 c 128,-1,13
 557 386 557 386 557 287 c 2,14,-1
 557 94 l 2,15,16
 557 -7 557 -7 537.5 -67.5 c 128,-1,17
 518 -128 518 -128 476 -161 c 128,-1,18
 434 -194 434 -194 368 -206.5 c 128,-1,19
 302 -219 302 -219 205 -221 c 1,20,-1
 205 -172 l 1,21,22
 306 -171 306 -171 354 -142 c 128,-1,23
 402 -113 402 -113 414 -61 c 128,-1,24
 426 -9 426 -9 426 94 c 2,25,-1
 426 209 l 2,26,27
 426 296 426 296 433.5 350.5 c 128,-1,28
 441 405 441 405 467.5 450 c 128,-1,29
 494 495 494 495 546.5 526.5 c 128,-1,30
 599 558 599 558 688 578 c 1,31,32
 570 605 570 605 513.5 651.5 c 128,-1,33
 457 698 457 698 441.5 765 c 128,-1,34
 426 832 426 832 426 946 c 2,35,-1
 426 1061 l 2,36,37
 426 1164 426 1164 414 1216.5 c 128,-1,38
 402 1269 402 1269 355 1298 c 128,-1,39
 308 1327 308 1327 205 1331 c 1,40,-1
 205 1376 l 1,0,1
EndSplineSet
Validated: 1
EndChar

StartChar: asciitilde
Encoding: 353 126 97
Width: 811
Flags: W
LayerCount: 2
Fore
SplineSet
766 1266 m 1,0,1
 725 1081 725 1081 594 1081 c 0,2,3
 574 1081 574 1081 537.5 1089 c 128,-1,4
 501 1097 501 1097 475 1102 c 0,5,6
 401 1118 401 1118 381 1118 c 0,7,8
 316 1118 316 1118 291 1040 c 1,9,-1
 246 1040 l 1,10,11
 284 1229 284 1229 422 1229 c 0,12,13
 458 1229 458 1229 508 1217 c 0,14,15
 608 1188 608 1188 631 1188 c 0,16,17
 694 1188 694 1188 717 1266 c 1,18,-1
 766 1266 l 1,0,1
EndSplineSet
Validated: 1
EndChar

StartChar: bullet
Encoding: 354 127 98
Width: 446
Flags: W
LayerCount: 2
Fore
SplineSet
225 504 m 1,0,-1
 393 504 l 1,1,-1
 393 336 l 1,2,-1
 225 336 l 1,3,-1
 225 504 l 1,0,-1
EndSplineSet
Validated: 1
EndChar

StartChar: guilsinglleft
Encoding: 363 8249 100
Width: 1397
Flags: W
LayerCount: 2
Fore
SplineSet
1352 1040 m 1,0,-1
 1352 926 l 1,1,-1
 442 553 l 1,2,-1
 1352 188 l 1,3,-1
 1352 70 l 1,4,-1
 283 508 l 1,5,-1
 283 602 l 1,6,-1
 1352 1040 l 1,0,-1
EndSplineSet
Validated: 1
EndChar

StartChar: quoteleft
Encoding: 365 8216 101
Width: 426
Flags: W
LayerCount: 2
Fore
SplineSet
172 1090 m 1,0,-1
 307 1303 l 1,1,-1
 373 1303 l 1,2,-1
 279 1102 l 1,3,-1
 348 1102 l 1,4,-1
 348 922 l 1,5,-1
 172 922 l 1,6,-1
 172 1090 l 1,0,-1
EndSplineSet
Validated: 1
EndChar

StartChar: quoteright
Encoding: 366 8217 102
Width: 426
Flags: W
LayerCount: 2
Fore
SplineSet
250 926 m 1,0,-1
 180 926 l 1,1,-1
 274 1126 l 1,2,-1
 209 1126 l 1,3,-1
 209 1303 l 1,4,-1
 381 1303 l 1,5,-1
 381 1155 l 1,6,-1
 250 926 l 1,0,-1
EndSplineSet
Validated: 1
EndChar

StartChar: quotedblleft
Encoding: 367 8220 103
Width: 688
Flags: W
LayerCount: 2
Fore
SplineSet
172 1090 m 1,0,-1
 307 1303 l 1,1,-1
 373 1303 l 1,2,-1
 279 1102 l 1,3,-1
 348 1102 l 1,4,-1
 348 922 l 1,5,-1
 172 922 l 1,6,-1
 172 1090 l 1,0,-1
565 1303 m 1,7,-1
 631 1303 l 1,8,-1
 537 1102 l 1,9,-1
 606 1102 l 1,10,-1
 606 922 l 1,11,-1
 430 922 l 1,12,-1
 430 1073 l 1,13,-1
 565 1303 l 1,7,-1
EndSplineSet
Validated: 1
EndChar

StartChar: quotedblright
Encoding: 368 8221 104
Width: 688
Flags: W
LayerCount: 2
Fore
SplineSet
639 1139 m 1,0,-1
 504 926 l 1,1,-1
 438 926 l 1,2,-1
 532 1126 l 1,3,-1
 463 1126 l 1,4,-1
 463 1303 l 1,5,-1
 639 1303 l 1,6,-1
 639 1139 l 1,0,-1
250 926 m 1,7,-1
 180 926 l 1,8,-1
 274 1126 l 1,9,-1
 209 1126 l 1,10,-1
 209 1303 l 1,11,-1
 381 1303 l 1,12,-1
 381 1155 l 1,13,-1
 250 926 l 1,7,-1
EndSplineSet
Validated: 1
EndChar

StartChar: emdash
Encoding: 369 8211 105
Width: 709
Flags: W
LayerCount: 2
Fore
SplineSet
119 512 m 1,0,-1
 651 512 l 1,1,-1
 651 397 l 1,2,-1
 119 397 l 1,3,-1
 119 512 l 1,0,-1
EndSplineSet
Validated: 1
EndChar

StartChar: endash
Encoding: 370 8212 106
Width: 1642
Flags: W
LayerCount: 2
Fore
SplineSet
164 512 m 1,0,-1
 1585 512 l 1,1,-1
 1585 397 l 1,2,-1
 164 397 l 1,3,-1
 164 512 l 1,0,-1
EndSplineSet
Validated: 1
EndChar

StartChar: guilsinglright
Encoding: 373 8250 108
Width: 1397
Flags: W
LayerCount: 2
Fore
SplineSet
283 1040 m 1,0,-1
 1352 602 l 1,1,-1
 1352 508 l 1,2,-1
 283 70 l 1,3,-1
 283 188 l 1,4,-1
 1188 553 l 1,5,-1
 283 926 l 1,6,-1
 283 1040 l 1,0,-1
EndSplineSet
Validated: 1
EndChar

StartChar: currency
Encoding: 378 164 109
Width: 950
Flags: W
LayerCount: 2
Fore
SplineSet
242 971 m 1,0,-1
 348 860 l 1,1,2
 445 918 445 918 528 918 c 0,3,4
 616 918 616 918 688 860 c 1,5,-1
 782 971 l 1,6,-1
 893 860 l 1,7,-1
 795 766 l 1,8,9
 848 669 848 669 848 590 c 0,10,11
 848 506 848 506 782 422 c 1,12,-1
 893 328 l 1,13,-1
 782 221 l 1,14,-1
 688 315 l 1,15,16
 609 258 609 258 516 258 c 256,17,18
 423 258 423 258 348 315 c 1,19,-1
 254 221 l 1,20,-1
 147 328 l 1,21,-1
 242 410 l 1,22,23
 180 502 180 502 180 582 c 0,24,25
 180 679 180 679 254 766 c 1,26,-1
 147 860 l 1,27,-1
 242 971 l 1,0,-1
688 590 m 0,28,29
 688 656 688 656 655.5 696 c 128,-1,30
 623 736 623 736 582.5 751 c 128,-1,31
 542 766 542 766 512 766 c 0,32,33
 451 766 451 766 393.5 720 c 128,-1,34
 336 674 336 674 336 590 c 0,35,36
 336 490 336 490 390.5 450 c 128,-1,37
 445 410 445 410 512 410 c 0,38,39
 568 410 568 410 628 456 c 128,-1,40
 688 502 688 502 688 590 c 0,28,29
EndSplineSet
Validated: 1
EndChar

StartChar: brokenbar
Encoding: 380 166 110
Width: 504
Flags: W
LayerCount: 2
Fore
SplineSet
344 1294 m 1,0,-1
 459 1294 l 1,1,-1
 459 4 l 1,2,-1
 344 4 l 1,3,-1
 344 1294 l 1,0,-1
EndSplineSet
Validated: 1
EndChar

StartChar: section
Encoding: 381 167 111
Width: 1094
Flags: W
LayerCount: 2
Fore
SplineSet
840 1036 m 1,0,1
 762 1217 762 1217 590 1217 c 0,2,3
 522 1217 522 1217 469.5 1189.5 c 128,-1,4
 417 1162 417 1162 388.5 1118.5 c 128,-1,5
 360 1075 360 1075 360 1028 c 256,6,7
 360 981 360 981 395 937.5 c 128,-1,8
 430 894 430 894 496 872 c 0,9,10
 565 853 565 853 683 820 c 128,-1,11
 801 787 801 787 897 726.5 c 128,-1,12
 993 666 993 666 1008 573 c 0,13,14
 1012 557 1012 557 1012 520 c 0,15,16
 1012 358 1012 358 856 258 c 1,17,18
 945 206 945 206 992.5 135.5 c 128,-1,19
 1040 65 1040 65 1040 -12 c 0,20,21
 1040 -97 1040 -97 991 -176 c 0,22,23
 951 -240 951 -240 891 -282 c 128,-1,24
 831 -324 831 -324 760 -344.5 c 128,-1,25
 689 -365 689 -365 610 -365 c 0,26,27
 504 -365 504 -365 405.5 -329 c 128,-1,28
 307 -293 307 -293 238.5 -226 c 128,-1,29
 170 -159 170 -159 152 -70 c 1,30,-1
 315 -57 l 1,31,32
 369 -154 369 -154 443.5 -196 c 128,-1,33
 518 -238 518 -238 598 -238 c 0,34,35
 723 -238 723 -238 811 -176 c 0,36,37
 844 -154 844 -154 862.5 -116.5 c 128,-1,38
 881 -79 881 -79 881 -37 c 0,39,40
 881 24 881 24 840.5 73 c 128,-1,41
 800 122 800 122 721 139 c 0,42,43
 643 155 643 155 586.5 166 c 128,-1,44
 530 177 530 177 463.5 197 c 128,-1,45
 397 217 397 217 315 258 c 0,46,47
 253 290 253 290 218.5 350 c 128,-1,48
 184 410 184 410 184 483 c 0,49,50
 184 566 184 566 233 644 c 128,-1,51
 282 722 282 722 377 766 c 1,52,53
 302 802 302 802 257.5 853.5 c 128,-1,54
 213 905 213 905 213 1024 c 0,55,56
 213 1163 213 1163 323.5 1249 c 128,-1,57
 434 1335 434 1335 590 1335 c 0,58,59
 737 1335 737 1335 845.5 1262 c 128,-1,60
 954 1189 954 1189 975 1069 c 1,61,-1
 840 1036 l 1,0,1
737 287 m 1,62,63
 802 339 802 339 837 381 c 128,-1,64
 872 423 872 423 872 483 c 0,65,66
 872 540 872 540 829 577 c 128,-1,67
 786 614 786 614 732 634 c 128,-1,68
 678 654 678 654 593 679 c 128,-1,69
 508 704 508 704 479 721 c 1,70,71
 476 718 476 718 443.5 691 c 128,-1,72
 411 664 411 664 391.5 644.5 c 128,-1,73
 372 625 372 625 354 592.5 c 128,-1,74
 336 560 336 560 336 528 c 0,75,76
 336 509 336 509 348 483 c 0,77,78
 360 445 360 445 392 417 c 128,-1,79
 424 389 424 389 467.5 371 c 128,-1,80
 511 353 511 353 578 333.5 c 128,-1,81
 645 314 645 314 737 287 c 1,62,63
EndSplineSet
Validated: 1
EndChar

StartChar: dieresis
Encoding: 382 168 112
Width: 950
Flags: W
LayerCount: 2
Fore
SplineSet
692 1237 m 1,0,1
 731 1228 731 1228 756.5 1196.5 c 128,-1,2
 782 1165 782 1165 782 1126 c 0,3,4
 782 1111 782 1111 774 1085 c 0,5,6
 759 1051 759 1051 732.5 1035.5 c 128,-1,7
 706 1020 706 1020 676 1020 c 0,8,9
 629 1020 629 1020 595 1050 c 128,-1,10
 561 1080 561 1080 561 1130 c 0,11,12
 561 1176 561 1176 594 1206.5 c 128,-1,13
 627 1237 627 1237 672 1237 c 2,14,-1
 692 1237 l 1,0,1
414 1237 m 1,15,16
 453 1228 453 1228 476.5 1196.5 c 128,-1,17
 500 1165 500 1165 500 1126 c 0,18,19
 500 1098 500 1098 492 1085 c 0,20,21
 480 1053 480 1053 453 1036.5 c 128,-1,22
 426 1020 426 1020 393 1020 c 0,23,24
 348 1020 348 1020 315.5 1050 c 128,-1,25
 283 1080 283 1080 283 1130 c 0,26,27
 283 1177 283 1177 315 1207 c 128,-1,28
 347 1237 347 1237 393 1237 c 2,29,-1
 414 1237 l 1,15,16
EndSplineSet
Validated: 1
EndChar

StartChar: copyright
Encoding: 383 169 113
Width: 1520
Flags: W
LayerCount: 2
Fore
SplineSet
999 778 m 1,0,1
 989 880 989 880 919.5 909 c 128,-1,2
 850 938 850 938 786 938 c 0,3,4
 716 938 716 938 663 897.5 c 128,-1,5
 610 857 610 857 581.5 792 c 128,-1,6
 553 727 553 727 553 651 c 0,7,8
 553 577 553 577 581 511.5 c 128,-1,9
 609 446 609 446 666 404.5 c 128,-1,10
 723 363 723 363 803 360 c 0,11,12
 876 360 876 360 937.5 404.5 c 128,-1,13
 999 449 999 449 999 524 c 1,14,-1
 1135 524 l 1,15,16
 1120 415 1120 415 1059.5 354.5 c 128,-1,17
 999 294 999 294 923.5 274 c 128,-1,18
 848 254 848 254 774 254 c 1,19,20
 659 264 659 264 580.5 322.5 c 128,-1,21
 502 381 502 381 462 470.5 c 128,-1,22
 422 560 422 560 422 655 c 0,23,24
 422 759 422 759 465 852 c 128,-1,25
 508 945 508 945 592.5 1003 c 128,-1,26
 677 1061 677 1061 786 1061 c 0,27,28
 818 1061 818 1061 872 1050 c 128,-1,29
 926 1039 926 1039 980 1011.5 c 128,-1,30
 1034 984 1034 984 1079 924.5 c 128,-1,31
 1124 865 1124 865 1135 778 c 1,32,-1
 999 778 l 1,0,1
1323 643 m 1,33,-1
 1323 668 l 2,34,35
 1323 798 1323 798 1254 920.5 c 128,-1,36
 1185 1043 1185 1043 1058.5 1119.5 c 128,-1,37
 932 1196 932 1196 774 1196 c 0,38,39
 635 1196 635 1196 511 1129 c 128,-1,40
 387 1062 387 1062 309 944.5 c 128,-1,41
 231 827 231 827 225 688 c 1,42,-1
 225 659 l 2,43,44
 225 527 225 527 296.5 397.5 c 128,-1,45
 368 268 368 268 489.5 187 c 128,-1,46
 611 106 611 106 750 106 c 2,47,-1
 774 106 l 2,48,49
 914 106 914 106 1041 171.5 c 128,-1,50
 1168 237 1168 237 1245.5 355 c 128,-1,51
 1323 473 1323 473 1323 618 c 2,52,-1
 1323 643 l 1,33,-1
78 688 m 0,53,54
 78 764 78 764 114.5 869.5 c 128,-1,55
 151 975 151 975 232.5 1079 c 128,-1,56
 314 1183 314 1183 450 1254 c 128,-1,57
 586 1325 586 1325 774 1331 c 1,58,59
 992 1331 992 1331 1152.5 1225.5 c 128,-1,60
 1313 1120 1313 1120 1396 961.5 c 128,-1,61
 1479 803 1479 803 1479 655 c 0,62,63
 1479 462 1479 462 1404.5 327.5 c 128,-1,64
 1330 193 1330 193 1216.5 116.5 c 128,-1,65
 1103 40 1103 40 989.5 7.5 c 128,-1,66
 876 -25 876 -25 786 -25 c 0,67,68
 652 -25 652 -25 524.5 22 c 128,-1,69
 397 69 397 69 295.5 161 c 128,-1,70
 194 253 194 253 136 386.5 c 128,-1,71
 78 520 78 520 78 688 c 0,53,54
EndSplineSet
Validated: 1
EndChar

StartChar: guillemotleft
Encoding: 385 171 114
Width: 668
Flags: W
LayerCount: 2
Fore
SplineSet
303 696 m 1,0,-1
 385 696 l 1,1,-1
 291 451 l 1,2,-1
 385 197 l 1,3,-1
 303 197 l 1,4,-1
 152 451 l 1,5,-1
 303 696 l 1,0,-1
610 696 m 1,6,-1
 512 451 l 1,7,-1
 610 197 l 1,8,-1
 528 197 l 1,9,-1
 373 451 l 1,10,-1
 528 696 l 1,11,-1
 610 696 l 1,6,-1
EndSplineSet
Validated: 1
EndChar

StartChar: logicalnot
Encoding: 386 172 115
Width: 991
Flags: W
LayerCount: 2
Fore
SplineSet
82 627 m 1,0,-1
 934 627 l 1,1,-1
 934 180 l 1,2,-1
 819 180 l 1,3,-1
 819 512 l 1,4,-1
 82 512 l 1,5,-1
 82 627 l 1,0,-1
EndSplineSet
Validated: 1
EndChar

StartChar: minus
Encoding: 387 173 116
Width: 627
Flags: W
LayerCount: 2
Fore
SplineSet
119 365 m 1,0,-1
 119 504 l 1,1,-1
 573 504 l 1,2,-1
 573 365 l 1,3,-1
 119 365 l 1,0,-1
EndSplineSet
Validated: 1
EndChar

StartChar: registered
Encoding: 388 174 117
Width: 1540
Flags: W
LayerCount: 2
Fore
SplineSet
1335 655 m 1,0,-1
 1335 676 l 2,1,2
 1335 807 1335 807 1267 928 c 128,-1,3
 1199 1049 1199 1049 1076 1124.5 c 128,-1,4
 953 1200 953 1200 795 1200 c 0,5,6
 655 1200 655 1200 530.5 1133 c 128,-1,7
 406 1066 406 1066 329 949 c 128,-1,8
 252 832 252 832 246 696 c 0,9,10
 246 694 246 694 244 685 c 128,-1,11
 242 676 242 676 242 672 c 0,12,13
 242 576 242 576 282.5 476.5 c 128,-1,14
 323 377 323 377 398.5 295 c 128,-1,15
 474 213 474 213 569.5 166 c 128,-1,16
 665 119 665 119 770 119 c 0,17,18
 771 119 771 119 780 121 c 128,-1,19
 789 123 789 123 795 123 c 0,20,21
 930 123 930 123 1056 189 c 128,-1,22
 1182 255 1182 255 1258.5 371.5 c 128,-1,23
 1335 488 1335 488 1335 631 c 2,24,-1
 1335 655 l 1,0,-1
98 696 m 0,25,26
 98 804 98 804 167 952.5 c 128,-1,27
 236 1101 236 1101 393 1214.5 c 128,-1,28
 550 1328 550 1328 795 1335 c 1,29,30
 956 1335 956 1335 1087.5 1273.5 c 128,-1,31
 1219 1212 1219 1212 1306.5 1112 c 128,-1,32
 1394 1012 1394 1012 1438.5 896 c 128,-1,33
 1483 780 1483 780 1483 668 c 0,34,35
 1483 477 1483 477 1409 342 c 128,-1,36
 1335 207 1335 207 1225.5 130.5 c 128,-1,37
 1116 54 1116 54 1002.5 21 c 128,-1,38
 889 -12 889 -12 807 -12 c 0,39,40
 673 -12 673 -12 546.5 34.5 c 128,-1,41
 420 81 420 81 316.5 173.5 c 128,-1,42
 213 266 213 266 155.5 398 c 128,-1,43
 98 530 98 530 98 696 c 0,25,26
537 1024 m 1,44,-1
 938 1024 l 2,45,46
 1038 1024 1038 1024 1092.5 969.5 c 128,-1,47
 1147 915 1147 915 1147 836 c 0,48,49
 1147 754 1147 754 1084.5 692 c 128,-1,50
 1022 630 1022 630 909 627 c 1,51,-1
 1147 283 l 1,52,-1
 1012 283 l 1,53,-1
 778 627 l 1,54,-1
 659 627 l 1,55,-1
 659 283 l 1,56,-1
 537 283 l 1,57,-1
 537 1024 l 1,44,-1
659 934 m 1,58,-1
 659 713 l 1,59,-1
 877 713 l 2,60,61
 948 713 948 713 990 750.5 c 128,-1,62
 1032 788 1032 788 1032 836 c 0,63,64
 1032 877 1032 877 997.5 905.5 c 128,-1,65
 963 934 963 934 893 934 c 2,66,-1
 659 934 l 1,58,-1
EndSplineSet
Validated: 1
EndChar

StartChar: degree
Encoding: 389 176 118
Width: 647
Flags: W
LayerCount: 2
Fore
SplineSet
512 1188 m 0,0,1
 512 1230 512 1230 486.5 1254 c 128,-1,2
 461 1278 461 1278 422 1278 c 0,3,4
 391 1278 391 1278 365.5 1253.5 c 128,-1,5
 340 1229 340 1229 340 1188 c 0,6,7
 340 1145 340 1145 365 1121.5 c 128,-1,8
 390 1098 390 1098 422 1098 c 0,9,10
 462 1098 462 1098 487 1121 c 128,-1,11
 512 1144 512 1144 512 1188 c 0,0,1
254 1188 m 0,12,13
 254 1238 254 1238 276 1278.5 c 128,-1,14
 298 1319 298 1319 335.5 1341.5 c 128,-1,15
 373 1364 373 1364 422 1364 c 0,16,17
 475 1364 475 1364 516.5 1341.5 c 128,-1,18
 558 1319 558 1319 582 1278 c 128,-1,19
 606 1237 606 1237 606 1188 c 0,20,21
 606 1137 606 1137 579 1097.5 c 128,-1,22
 552 1058 552 1058 510 1035 c 128,-1,23
 468 1012 468 1012 422 1012 c 0,24,25
 354 1012 354 1012 304 1059 c 128,-1,26
 254 1106 254 1106 254 1188 c 0,12,13
EndSplineSet
Validated: 1
EndChar

StartChar: plusminus
Encoding: 390 177 119
Width: 1217
Flags: W
LayerCount: 2
Fore
SplineSet
672 1065 m 1,0,-1
 762 1065 l 1,1,-1
 762 639 l 1,2,-1
 1176 639 l 1,3,-1
 1176 549 l 1,4,-1
 762 549 l 1,5,-1
 762 123 l 1,6,-1
 672 123 l 1,7,-1
 672 549 l 1,8,-1
 254 549 l 1,9,-1
 254 639 l 1,10,-1
 672 639 l 1,11,-1
 672 1065 l 1,0,-1
270 90 m 1,12,-1
 1176 90 l 1,13,-1
 1176 4 l 1,14,-1
 270 4 l 1,15,-1
 270 90 l 1,12,-1
EndSplineSet
Validated: 1
EndChar

StartChar: acute
Encoding: 392 180 120
Width: 770
Flags: W
LayerCount: 2
Fore
SplineSet
262 1130 m 1,0,-1
 651 1368 l 1,1,-1
 725 1233 l 1,2,-1
 307 1057 l 1,3,-1
 262 1130 l 1,0,-1
EndSplineSet
Validated: 1
EndChar

StartChar: mu
Encoding: 393 181 121
Width: 1155
Flags: W
LayerCount: 2
Fore
SplineSet
971 909 m 1,0,-1
 971 213 l 2,1,2
 971 82 971 82 1040 82 c 0,3,4
 1059 82 1059 82 1102 102 c 1,5,-1
 1102 70 l 1,6,-1
 926 -20 l 2,7,8
 922 -25 922 -25 909 -25 c 0,9,10
 827 -25 827 -25 815 139 c 1,11,12
 771 97 771 97 742.5 71.5 c 128,-1,13
 714 46 714 46 677 21 c 128,-1,14
 640 -4 640 -4 600 -18.5 c 128,-1,15
 560 -33 560 -33 520 -33 c 0,16,17
 352 -33 352 -33 299 143 c 1,18,19
 299 60 299 60 317.5 -80 c 128,-1,20
 336 -220 336 -220 340 -262 c 1,21,22
 340 -381 340 -381 254 -381 c 0,23,24
 216 -381 216 -381 194 -349.5 c 128,-1,25
 172 -318 172 -318 172 -274 c 256,26,27
 172 -230 172 -230 188 -164 c 1,28,29
 242 144 242 144 242 541 c 2,30,-1
 242 909 l 1,31,-1
 414 909 l 1,32,-1
 414 336 l 2,33,34
 414 223 414 223 446.5 146.5 c 128,-1,35
 479 70 479 70 578 70 c 0,36,37
 702 70 702 70 799 217 c 1,38,-1
 799 909 l 1,39,-1
 971 909 l 1,0,-1
EndSplineSet
Validated: 1
EndChar

StartChar: paragraph
Encoding: 394 182 122
Width: 1073
Flags: W
LayerCount: 2
Fore
SplineSet
770 1188 m 1,0,-1
 623 1188 l 1,1,-1
 623 -352 l 1,2,-1
 483 -352 l 1,3,-1
 483 406 l 1,4,5
 305 415 305 415 203.5 544.5 c 128,-1,6
 102 674 102 674 102 848 c 0,7,8
 102 970 102 970 156 1078.5 c 128,-1,9
 210 1187 210 1187 319 1255 c 128,-1,10
 428 1323 428 1323 578 1323 c 2,11,-1
 1028 1323 l 1,12,-1
 1028 1188 l 1,13,-1
 905 1188 l 1,14,-1
 905 -352 l 1,15,-1
 770 -352 l 1,16,-1
 770 1188 l 1,0,-1
EndSplineSet
Validated: 1
EndChar

StartChar: periodcentered
Encoding: 395 8729 123
Width: 446
Flags: W
LayerCount: 2
Fore
SplineSet
225 504 m 1,0,-1
 393 504 l 1,1,-1
 393 336 l 1,2,-1
 225 336 l 1,3,-1
 225 504 l 1,0,-1
EndSplineSet
Validated: 1
EndChar

StartChar: guillemotright
Encoding: 398 187 124
Width: 688
Flags: W
LayerCount: 2
Fore
SplineSet
487 696 m 1,0,-1
 639 451 l 1,1,-1
 487 197 l 1,2,-1
 406 197 l 1,3,-1
 500 451 l 1,4,-1
 406 696 l 1,5,-1
 487 696 l 1,0,-1
180 696 m 1,6,-1
 266 696 l 1,7,-1
 422 451 l 1,8,-1
 266 197 l 1,9,-1
 180 197 l 1,10,-1
 279 451 l 1,11,-1
 180 696 l 1,6,-1
EndSplineSet
Validated: 1
EndChar

StartChar: Agrave
Encoding: 401 1040 125
AltUni2: 0000c0.ffffffff.0
Width: 1257
Flags: W
LayerCount: 2
Fore
SplineSet
422 643 m 1,0,-1
 778 643 l 1,1,-1
 594 1098 l 1,2,-1
 422 643 l 1,0,-1
266 0 m 1,3,-1
 29 0 l 1,4,-1
 29 57 l 1,5,6
 68 66 68 66 90 135 c 1,7,-1
 561 1298 l 1,8,-1
 680 1298 l 1,9,-1
 1163 115 l 2,10,11
 1169 102 1169 102 1175 88.5 c 128,-1,12
 1181 75 1181 75 1189.5 66.5 c 128,-1,13
 1198 58 1198 58 1212 57 c 1,14,-1
 1212 0 l 1,15,-1
 946 0 l 1,16,-1
 946 57 l 1,17,18
 995 65 995 65 995 90 c 0,19,20
 995 94 995 94 993 101 c 128,-1,21
 991 108 991 108 991 111 c 2,22,-1
 827 524 l 1,23,-1
 373 524 l 1,24,-1
 217 123 l 2,25,26
 217 119 217 119 215 111 c 128,-1,27
 213 103 213 103 213 102 c 0,28,29
 213 65 213 65 266 57 c 1,30,-1
 266 0 l 1,3,-1
EndSplineSet
Validated: 1
EndChar

StartChar: Aacute
Encoding: 402 1041 126
AltUni2: 0000c1.ffffffff.0
Width: 1237
Flags: W
LayerCount: 2
Fore
SplineSet
356 1180 m 1,0,-1
 356 786 l 1,1,-1
 705 786 l 2,2,3
 779 786 779 786 864 762 c 128,-1,4
 949 738 949 738 1024.5 689 c 128,-1,5
 1100 640 1100 640 1148 564.5 c 128,-1,6
 1196 489 1196 489 1196 389 c 0,7,8
 1196 171 1196 171 1036 85.5 c 128,-1,9
 876 0 876 0 614 0 c 2,10,-1
 123 0 l 1,11,-1
 123 57 l 1,12,13
 158 60 158 60 173 75 c 128,-1,14
 188 90 188 90 188 123 c 2,15,-1
 188 1176 l 2,16,17
 188 1209 188 1209 173.5 1224 c 128,-1,18
 159 1239 159 1239 123 1245 c 1,19,-1
 123 1298 l 1,20,-1
 1057 1298 l 1,21,-1
 1057 1065 l 1,22,-1
 1008 1065 l 1,23,24
 1002 1127 1002 1127 969 1153.5 c 128,-1,25
 936 1180 936 1180 872 1180 c 2,26,-1
 356 1180 l 1,0,-1
659 123 m 2,27,28
 821 123 821 123 924.5 176.5 c 128,-1,29
 1028 230 1028 230 1028 369 c 0,30,31
 1028 457 1028 457 980 526.5 c 128,-1,32
 932 596 932 596 852.5 632 c 128,-1,33
 773 668 773 668 684 668 c 2,34,-1
 356 668 l 1,35,-1
 356 123 l 1,36,-1
 659 123 l 2,27,28
EndSplineSet
Validated: 1
EndChar

StartChar: Acircumflex
Encoding: 403 1042 127
AltUni2: 0000c2.ffffffff.0
Width: 1257
Flags: W
LayerCount: 2
Fore
SplineSet
614 0 m 2,0,-1
 123 0 l 1,1,-1
 123 57 l 1,2,3
 158 60 158 60 173 75 c 128,-1,4
 188 90 188 90 188 123 c 2,5,-1
 188 1176 l 2,6,7
 188 1209 188 1209 173.5 1224 c 128,-1,8
 159 1239 159 1239 123 1245 c 1,9,-1
 123 1298 l 1,10,-1
 676 1298 l 2,11,12
 754 1298 754 1298 830 1279.5 c 128,-1,13
 906 1261 906 1261 968.5 1223.5 c 128,-1,14
 1031 1186 1031 1186 1070.5 1127 c 128,-1,15
 1110 1068 1110 1068 1110 987 c 0,16,17
 1110 899 1110 899 1056.5 833.5 c 128,-1,18
 1003 768 1003 768 909 729 c 1,19,20
 974 713 974 713 1040.5 675.5 c 128,-1,21
 1107 638 1107 638 1157.5 565 c 128,-1,22
 1208 492 1208 492 1208 381 c 0,23,24
 1208 245 1208 245 1128 159.5 c 128,-1,25
 1048 74 1048 74 915.5 37 c 128,-1,26
 783 0 783 0 614 0 c 2,0,-1
684 668 m 2,27,-1
 356 668 l 1,28,-1
 356 123 l 1,29,-1
 659 123 l 2,30,31
 815 123 815 123 921.5 186 c 128,-1,32
 1028 249 1028 249 1028 393 c 0,33,34
 1028 526 1028 526 928.5 597 c 128,-1,35
 829 668 829 668 684 668 c 2,27,-1
705 786 m 2,36,37
 762 786 762 786 817.5 811 c 128,-1,38
 873 836 873 836 907.5 880.5 c 128,-1,39
 942 925 942 925 942 983 c 0,40,41
 942 1048 942 1048 910.5 1093.5 c 128,-1,42
 879 1139 879 1139 825.5 1159.5 c 128,-1,43
 772 1180 772 1180 700 1180 c 2,44,-1
 356 1180 l 1,45,-1
 356 786 l 1,46,-1
 705 786 l 2,36,37
EndSplineSet
Validated: 1
EndChar

StartChar: Atilde
Encoding: 404 1043 128
AltUni2: 0000c3.ffffffff.0
Width: 1053
Flags: W
LayerCount: 2
Fore
SplineSet
0 0 m 1,0,-1
 135 0 l 1,1,-1
 135 57 l 1,2,3
 174 65 174 65 187.5 78.5 c 128,-1,4
 201 92 201 92 201 131 c 2,5,-1
 201 1171 l 2,6,7
 201 1211 201 1211 187 1225 c 128,-1,8
 173 1239 173 1239 135 1245 c 1,9,-1
 135 1298 l 1,10,-1
 1012 1298 l 1,11,-1
 1012 1065 l 1,12,-1
 958 1065 l 1,13,14
 955 1128 955 1128 922.5 1154 c 128,-1,15
 890 1180 890 1180 823 1180 c 2,16,-1
 369 1180 l 1,17,-1
 369 131 l 2,18,19
 369 95 369 95 383 80 c 128,-1,20
 397 65 397 65 434 57 c 1,21,-1
 434 0 l 1,22,-1
 0 0 l 1,0,-1
EndSplineSet
Validated: 5
EndChar

StartChar: Adieresis
Encoding: 405 1044 129
AltUni2: 0000c4.ffffffff.0
Width: 1356
Flags: W
LayerCount: 2
Fore
SplineSet
1122 0 m 2,0,-1
 205 0 l 2,1,2
 145 0 145 0 114.5 -21.5 c 128,-1,3
 84 -43 84 -43 78 -102 c 1,4,-1
 29 -102 l 1,5,-1
 29 127 l 1,6,-1
 123 127 l 1,7,-1
 598 1298 l 1,8,-1
 717 1298 l 1,9,-1
 1200 127 l 1,10,-1
 1303 127 l 1,11,-1
 1303 -102 l 1,12,-1
 1253 -102 l 1,13,14
 1247 -43 1247 -43 1215 -21.5 c 128,-1,15
 1183 0 1183 0 1122 0 c 2,0,-1
1020 127 m 1,16,-1
 635 1098 l 1,17,-1
 262 127 l 1,18,-1
 1020 127 l 1,16,-1
EndSplineSet
Validated: 1
EndChar

StartChar: Aring
Encoding: 406 1045 130
AltUni2: 0000c5.ffffffff.0
Width: 1176
Flags: W
LayerCount: 2
Fore
SplineSet
0 0 m 1,0,-1
 119 0 l 1,1,-1
 119 57 l 1,2,3
 158 65 158 65 173 80 c 128,-1,4
 188 95 188 95 188 131 c 2,5,-1
 188 1171 l 2,6,7
 188 1208 188 1208 172.5 1223.5 c 128,-1,8
 157 1239 157 1239 119 1245 c 1,9,-1
 119 1298 l 1,10,-1
 1081 1298 l 1,11,-1
 1081 1081 l 1,12,-1
 1032 1081 l 1,13,14
 1026 1143 1026 1143 991.5 1161.5 c 128,-1,15
 957 1180 957 1180 893 1180 c 2,16,-1
 356 1180 l 1,17,-1
 356 795 l 1,18,-1
 819 795 l 2,19,20
 903 795 903 795 913 860 c 1,21,-1
 963 860 l 1,22,-1
 963 610 l 1,23,-1
 913 610 l 1,24,25
 903 676 903 676 819 676 c 2,26,-1
 356 676 l 1,27,-1
 356 127 l 1,28,-1
 946 127 l 2,29,30
 1010 127 1010 127 1042 153 c 128,-1,31
 1074 179 1074 179 1077 242 c 1,32,-1
 1130 242 l 1,33,-1
 1130 0 l 1,34,-1
 0 0 l 1,0,-1
EndSplineSet
Validated: 5
EndChar

StartChar: AE
Encoding: 407 1046 131
AltUni2: 0000c6.ffffffff.0
Width: 1946
Flags: W
LayerCount: 2
Fore
SplineSet
1249 786 m 1,0,-1
 1065 631 l 1,1,-1
 1065 131 l 2,2,3
 1065 64 1065 64 1130 57 c 1,4,-1
 1130 0 l 1,5,-1
 831 0 l 1,6,-1
 831 57 l 1,7,8
 868 60 868 60 882.5 75 c 128,-1,9
 897 90 897 90 897 123 c 2,10,-1
 897 631 l 1,11,-1
 713 786 l 1,12,-1
 332 111 l 2,13,14
 327 101 327 101 323 95 c 128,-1,15
 319 89 319 89 319 86 c 0,16,17
 319 72 319 72 336.5 64.5 c 128,-1,18
 354 57 354 57 377 57 c 1,19,-1
 377 0 l 1,20,-1
 66 0 l 1,21,-1
 66 57 l 1,22,23
 112 69 112 69 147 119 c 1,24,-1
 586 897 l 1,25,-1
 229 1208 l 2,26,27
 208 1228 208 1228 184.5 1234.5 c 128,-1,28
 161 1241 161 1241 123 1245 c 1,29,-1
 123 1298 l 1,30,-1
 483 1298 l 1,31,-1
 483 1245 l 1,32,33
 467 1245 467 1245 444.5 1238.5 c 128,-1,34
 422 1232 422 1232 422 1221 c 0,35,36
 422 1212 422 1212 434 1200 c 2,37,-1
 897 791 l 1,38,-1
 897 1176 l 2,39,40
 897 1211 897 1211 883 1224.5 c 128,-1,41
 869 1238 869 1238 831 1245 c 1,42,-1
 831 1298 l 1,43,-1
 1130 1298 l 1,44,-1
 1130 1245 l 1,45,46
 1094 1238 1094 1238 1079.5 1223 c 128,-1,47
 1065 1208 1065 1208 1065 1171 c 2,48,-1
 1065 791 l 1,49,-1
 1528 1200 l 2,50,51
 1540 1212 1540 1212 1540 1221 c 0,52,53
 1540 1232 1540 1232 1519 1238.5 c 128,-1,54
 1498 1245 1498 1245 1479 1245 c 1,55,-1
 1479 1298 l 1,56,-1
 1839 1298 l 1,57,-1
 1839 1245 l 1,58,59
 1801 1241 1801 1241 1778.5 1234.5 c 128,-1,60
 1756 1228 1756 1228 1737 1208 c 2,61,-1
 1376 897 l 1,62,-1
 1819 119 l 2,63,64
 1846 69 1846 69 1896 57 c 1,65,-1
 1896 0 l 1,66,-1
 1585 0 l 1,67,-1
 1585 57 l 1,68,69
 1607 57 1607 57 1622.5 64.5 c 128,-1,70
 1638 72 1638 72 1638 86 c 0,71,72
 1638 102 1638 102 1634 111 c 2,73,-1
 1249 786 l 1,0,-1
EndSplineSet
Validated: 1
EndChar

StartChar: Ccedilla
Encoding: 408 1047 132
AltUni2: 0000c7.ffffffff.0
Width: 1176
Flags: W
LayerCount: 2
Fore
SplineSet
516 -25 m 2,0,-1
 410 -25 l 2,1,2
 297 -25 297 -25 164 -12 c 1,3,-1
 164 225 l 1,4,-1
 217 225 l 1,5,6
 224 169 224 169 258 141.5 c 128,-1,7
 292 114 292 114 346 106 c 128,-1,8
 400 98 400 98 487 98 c 0,9,10
 623 98 623 98 733 138.5 c 128,-1,11
 843 179 843 179 907 255 c 128,-1,12
 971 331 971 331 971 434 c 0,13,14
 971 509 971 509 930 563.5 c 128,-1,15
 889 618 889 618 822.5 647 c 128,-1,16
 756 676 756 676 676 676 c 2,17,-1
 557 676 l 1,18,-1
 557 795 l 1,19,-1
 647 795 l 2,20,21
 719 795 719 795 774.5 826 c 128,-1,22
 830 857 830 857 859.5 908 c 128,-1,23
 889 959 889 959 889 1020 c 0,24,25
 889 1128 889 1128 810 1172.5 c 128,-1,26
 731 1217 731 1217 618 1217 c 0,27,28
 551 1217 551 1217 476 1195 c 128,-1,29
 401 1173 401 1173 352 1136.5 c 128,-1,30
 303 1100 303 1100 303 1057 c 0,31,32
 303 1044 303 1044 319 1012 c 1,33,-1
 279 971 l 1,34,-1
 111 1135 l 1,35,36
 162 1179 162 1179 228 1219.5 c 128,-1,37
 294 1260 294 1260 395.5 1291.5 c 128,-1,38
 497 1323 497 1323 623 1323 c 0,39,40
 742 1323 742 1323 841 1283.5 c 128,-1,41
 940 1244 940 1244 994.5 1180 c 128,-1,42
 1049 1116 1049 1116 1049 1044 c 0,43,44
 1049 952 1049 952 1004 875.5 c 128,-1,45
 959 799 959 799 864 758 c 1,46,47
 958 733 958 733 1044 648 c 128,-1,48
 1130 563 1130 563 1130 422 c 0,49,50
 1130 324 1130 324 1081.5 241.5 c 128,-1,51
 1033 159 1033 159 947.5 99.5 c 128,-1,52
 862 40 862 40 751 7.5 c 128,-1,53
 640 -25 640 -25 516 -25 c 2,0,-1
EndSplineSet
Validated: 1
EndChar

StartChar: Egrave
Encoding: 409 1048 133
AltUni2: 0000c8.ffffffff.0
Width: 1356
Flags: W
LayerCount: 2
Fore
SplineSet
356 131 m 2,0,1
 356 107 356 107 362.5 92 c 128,-1,2
 369 77 369 77 383.5 69.5 c 128,-1,3
 398 62 398 62 422 57 c 1,4,-1
 422 0 l 1,5,-1
 123 0 l 1,6,-1
 123 57 l 1,7,8
 161 65 161 65 174.5 79.5 c 128,-1,9
 188 94 188 94 188 131 c 2,10,-1
 188 1171 l 2,11,12
 188 1209 188 1209 174 1224 c 128,-1,13
 160 1239 160 1239 123 1245 c 1,14,-1
 123 1298 l 1,15,-1
 422 1298 l 1,16,-1
 422 1245 l 1,17,18
 384 1239 384 1239 370 1224 c 128,-1,19
 356 1209 356 1209 356 1171 c 2,20,-1
 356 455 l 1,21,-1
 1077 1077 l 1,22,-1
 1077 1171 l 2,23,24
 1074 1211 1074 1211 1060 1225 c 128,-1,25
 1046 1239 1046 1239 1008 1245 c 1,26,-1
 1008 1298 l 1,27,-1
 1311 1298 l 1,28,-1
 1311 1245 l 1,29,30
 1270 1239 1270 1239 1255.5 1225 c 128,-1,31
 1241 1211 1241 1211 1241 1171 c 2,32,-1
 1241 131 l 2,33,34
 1241 95 1241 95 1256.5 80 c 128,-1,35
 1272 65 1272 65 1311 57 c 1,36,-1
 1311 0 l 1,37,-1
 1008 0 l 1,38,-1
 1008 57 l 1,39,40
 1047 65 1047 65 1062 80 c 128,-1,41
 1077 95 1077 95 1077 131 c 2,42,-1
 1077 901 l 1,43,-1
 356 283 l 1,44,-1
 356 131 l 2,0,1
EndSplineSet
Validated: 1
EndChar

StartChar: Eacute
Encoding: 410 1049 134
AltUni2: 0000c9.ffffffff.0
Width: 1356
Flags: W
LayerCount: 2
Fore
SplineSet
508 1343 m 1,0,-1
 578 1499 l 1,1,-1
 627 1491 l 1,2,3
 627 1454 627 1454 656 1427.5 c 128,-1,4
 685 1401 685 1401 725 1401 c 0,5,6
 730 1401 730 1401 766 1413 c 0,7,8
 840 1442 840 1442 877 1528 c 1,9,-1
 954 1495 l 1,10,11
 944 1457 944 1457 918.5 1418.5 c 128,-1,12
 893 1380 893 1380 860 1356 c 0,13,14
 778 1294 778 1294 676 1294 c 0,15,16
 595 1294 595 1294 508 1343 c 1,0,-1
356 131 m 2,17,18
 356 107 356 107 362.5 92 c 128,-1,19
 369 77 369 77 383.5 69.5 c 128,-1,20
 398 62 398 62 422 57 c 1,21,-1
 422 0 l 1,22,-1
 123 0 l 1,23,-1
 123 57 l 1,24,25
 161 65 161 65 174.5 79.5 c 128,-1,26
 188 94 188 94 188 131 c 2,27,-1
 188 1171 l 2,28,29
 188 1209 188 1209 174 1224 c 128,-1,30
 160 1239 160 1239 123 1245 c 1,31,-1
 123 1298 l 1,32,-1
 422 1298 l 1,33,-1
 422 1245 l 1,34,35
 384 1239 384 1239 370 1224 c 128,-1,36
 356 1209 356 1209 356 1171 c 2,37,-1
 356 455 l 1,38,-1
 1077 1077 l 1,39,-1
 1077 1171 l 2,40,41
 1074 1211 1074 1211 1060 1225 c 128,-1,42
 1046 1239 1046 1239 1008 1245 c 1,43,-1
 1008 1298 l 1,44,-1
 1311 1298 l 1,45,-1
 1311 1245 l 1,46,47
 1270 1239 1270 1239 1255.5 1225 c 128,-1,48
 1241 1211 1241 1211 1241 1171 c 2,49,-1
 1241 131 l 2,50,51
 1241 95 1241 95 1256.5 80 c 128,-1,52
 1272 65 1272 65 1311 57 c 1,53,-1
 1311 0 l 1,54,-1
 1008 0 l 1,55,-1
 1008 57 l 1,56,57
 1047 65 1047 65 1062 80 c 128,-1,58
 1077 95 1077 95 1077 131 c 2,59,-1
 1077 901 l 1,60,-1
 356 283 l 1,61,-1
 356 131 l 2,17,18
EndSplineSet
Validated: 1
EndChar

StartChar: Ecircumflex
Encoding: 411 1050 135
AltUni2: 0000ca.ffffffff.0
Width: 1298
Flags: W
LayerCount: 2
Fore
SplineSet
0 0 m 1,0,-1
 123 0 l 1,1,-1
 123 57 l 1,2,3
 162 65 162 65 175 78.5 c 128,-1,4
 188 92 188 92 188 131 c 2,5,-1
 188 1171 l 2,6,7
 188 1208 188 1208 173.5 1223.5 c 128,-1,8
 159 1239 159 1239 123 1245 c 1,9,-1
 123 1298 l 1,10,-1
 422 1298 l 1,11,-1
 422 1245 l 1,12,13
 384 1239 384 1239 370 1224 c 128,-1,14
 356 1209 356 1209 356 1171 c 2,15,-1
 356 745 l 1,16,-1
 881 1200 l 2,17,18
 893 1212 893 1212 893 1221 c 0,19,20
 893 1232 893 1232 872 1238.5 c 128,-1,21
 851 1245 851 1245 831 1245 c 1,22,-1
 831 1298 l 1,23,-1
 1192 1298 l 1,24,-1
 1192 1245 l 1,25,26
 1154 1241 1154 1241 1131.5 1234.5 c 128,-1,27
 1109 1228 1109 1228 1090 1208 c 2,28,-1
 729 897 l 1,29,-1
 1171 119 l 2,30,31
 1200 69 1200 69 1249 57 c 1,32,-1
 1249 0 l 1,33,-1
 938 0 l 1,34,-1
 938 57 l 1,35,36
 961 57 961 57 978 65 c 128,-1,37
 995 73 995 73 995 86 c 0,38,39
 995 93 995 93 987 111 c 2,40,-1
 602 786 l 1,41,-1
 356 573 l 1,42,-1
 356 131 l 2,43,44
 356 63 356 63 422 57 c 1,45,-1
 422 0 l 1,46,-1
 0 0 l 1,0,-1
EndSplineSet
Validated: 5
EndChar

StartChar: Edieresis
Encoding: 412 1051 136
AltUni2: 0000cb.ffffffff.0
Width: 1257
Flags: W
LayerCount: 2
Fore
SplineSet
217 123 m 2,0,1
 217 119 217 119 215 111 c 128,-1,2
 213 103 213 103 213 102 c 0,3,4
 213 65 213 65 266 57 c 1,5,-1
 266 0 l 1,6,-1
 29 0 l 1,7,-1
 29 57 l 1,8,9
 68 66 68 66 90 135 c 1,10,-1
 561 1298 l 1,11,-1
 680 1298 l 1,12,-1
 1163 115 l 2,13,14
 1169 102 1169 102 1175 88.5 c 128,-1,15
 1181 75 1181 75 1189.5 66.5 c 128,-1,16
 1198 58 1198 58 1212 57 c 1,17,-1
 1212 0 l 1,18,-1
 946 0 l 1,19,-1
 946 57 l 1,20,21
 995 65 995 65 995 90 c 0,22,23
 995 94 995 94 993 101 c 128,-1,24
 991 108 991 108 991 111 c 2,25,-1
 594 1098 l 1,26,-1
 217 123 l 2,0,1
EndSplineSet
Validated: 1
EndChar

StartChar: Igrave
Encoding: 413 1052 137
AltUni2: 0000cc.ffffffff.0
Width: 1520
Flags: W
LayerCount: 2
Fore
SplineSet
279 0 m 1,0,-1
 33 0 l 1,1,-1
 33 57 l 1,2,3
 89 72 89 72 94 119 c 2,4,-1
 287 1184 l 1,5,-1
 287 1196 l 2,6,7
 287 1239 287 1239 242 1245 c 1,8,-1
 242 1298 l 1,9,-1
 459 1298 l 1,10,-1
 758 561 l 1,11,-1
 1040 1298 l 1,12,-1
 1266 1298 l 1,13,-1
 1266 1245 l 1,14,15
 1217 1240 1217 1240 1217 1192 c 0,16,17
 1217 1189 1217 1189 1219 1180 c 128,-1,18
 1221 1171 1221 1171 1221 1163 c 2,19,-1
 1401 119 l 2,20,21
 1407 89 1407 89 1419.5 77 c 128,-1,22
 1432 65 1432 65 1462 57 c 1,23,-1
 1462 0 l 1,24,-1
 1184 0 l 1,25,-1
 1184 57 l 1,26,27
 1237 63 1237 63 1237 102 c 2,28,-1
 1237 119 l 1,29,-1
 1073 1065 l 1,30,-1
 782 303 l 1,31,-1
 700 303 l 1,32,-1
 397 1057 l 1,33,-1
 225 119 l 1,34,-1
 225 102 l 2,35,36
 225 57 225 57 279 57 c 1,37,-1
 279 0 l 1,0,-1
EndSplineSet
Validated: 1
EndChar

StartChar: Iacute
Encoding: 414 1053 138
AltUni2: 0000cd.ffffffff.0
Width: 1356
Flags: W
LayerCount: 2
Fore
SplineSet
356 131 m 2,0,1
 356 107 356 107 362.5 92 c 128,-1,2
 369 77 369 77 383.5 69.5 c 128,-1,3
 398 62 398 62 422 57 c 1,4,-1
 422 0 l 1,5,-1
 123 0 l 1,6,-1
 123 57 l 1,7,8
 161 65 161 65 174.5 79.5 c 128,-1,9
 188 94 188 94 188 131 c 2,10,-1
 188 1171 l 2,11,12
 188 1209 188 1209 174 1224 c 128,-1,13
 160 1239 160 1239 123 1245 c 1,14,-1
 123 1298 l 1,15,-1
 422 1298 l 1,16,-1
 422 1245 l 1,17,18
 384 1239 384 1239 370 1224 c 128,-1,19
 356 1209 356 1209 356 1171 c 2,20,-1
 356 791 l 1,21,-1
 1077 791 l 1,22,-1
 1077 1171 l 2,23,24
 1074 1211 1074 1211 1060 1225 c 128,-1,25
 1046 1239 1046 1239 1008 1245 c 1,26,-1
 1008 1298 l 1,27,-1
 1311 1298 l 1,28,-1
 1311 1245 l 1,29,30
 1270 1239 1270 1239 1255.5 1225 c 128,-1,31
 1241 1211 1241 1211 1241 1171 c 2,32,-1
 1241 131 l 2,33,34
 1241 95 1241 95 1256.5 80 c 128,-1,35
 1272 65 1272 65 1311 57 c 1,36,-1
 1311 0 l 1,37,-1
 1008 0 l 1,38,-1
 1008 57 l 1,39,40
 1047 65 1047 65 1062 80 c 128,-1,41
 1077 95 1077 95 1077 131 c 2,42,-1
 1077 672 l 1,43,-1
 356 672 l 1,44,-1
 356 131 l 2,0,1
EndSplineSet
Validated: 1
EndChar

StartChar: Icircumflex
Encoding: 415 1054 139
AltUni2: 0000ce.ffffffff.0
Width: 1479
Flags: W
LayerCount: 2
Fore
SplineSet
106 647 m 0,0,1
 106 809 106 809 161 939 c 128,-1,2
 216 1069 216 1069 310 1155 c 128,-1,3
 404 1241 404 1241 520.5 1284 c 128,-1,4
 637 1327 637 1327 766 1327 c 0,5,6
 893 1327 893 1327 1010 1284 c 128,-1,7
 1127 1241 1127 1241 1221.5 1154.5 c 128,-1,8
 1316 1068 1316 1068 1370.5 938.5 c 128,-1,9
 1425 809 1425 809 1425 647 c 0,10,11
 1425 501 1425 501 1378.5 376.5 c 128,-1,12
 1332 252 1332 252 1243.5 159.5 c 128,-1,13
 1155 67 1155 67 1033.5 17 c 128,-1,14
 912 -33 912 -33 766 -33 c 0,15,16
 575 -33 575 -33 423.5 54.5 c 128,-1,17
 272 142 272 142 189 297 c 128,-1,18
 106 452 106 452 106 647 c 0,0,1
758 1204 m 0,19,20
 613 1204 613 1204 507 1130.5 c 128,-1,21
 401 1057 401 1057 346 929 c 128,-1,22
 291 801 291 801 291 647 c 0,23,24
 291 537 291 537 320.5 435 c 128,-1,25
 350 333 350 333 409 255.5 c 128,-1,26
 468 178 468 178 559 134 c 128,-1,27
 650 90 650 90 766 90 c 0,28,29
 884 90 884 90 973.5 133.5 c 128,-1,30
 1063 177 1063 177 1122.5 254 c 128,-1,31
 1182 331 1182 331 1211.5 430.5 c 128,-1,32
 1241 530 1241 530 1241 647 c 0,33,34
 1241 780 1241 780 1193 907 c 128,-1,35
 1145 1034 1145 1034 1037 1119 c 128,-1,36
 929 1204 929 1204 758 1204 c 0,19,20
EndSplineSet
Validated: 1
EndChar

StartChar: Idieresis
Encoding: 416 1055 140
AltUni2: 0000cf.ffffffff.0
Width: 1356
Flags: W
LayerCount: 2
Fore
SplineSet
356 131 m 2,0,1
 356 107 356 107 362.5 92 c 128,-1,2
 369 77 369 77 383.5 69.5 c 128,-1,3
 398 62 398 62 422 57 c 1,4,-1
 422 0 l 1,5,-1
 123 0 l 1,6,-1
 123 57 l 1,7,8
 161 65 161 65 174.5 79.5 c 128,-1,9
 188 94 188 94 188 131 c 2,10,-1
 188 1171 l 2,11,12
 188 1209 188 1209 174 1224 c 128,-1,13
 160 1239 160 1239 123 1245 c 1,14,-1
 123 1298 l 1,15,-1
 1311 1298 l 1,16,-1
 1311 1245 l 1,17,18
 1270 1239 1270 1239 1255.5 1225 c 128,-1,19
 1241 1211 1241 1211 1241 1171 c 2,20,-1
 1241 131 l 2,21,22
 1241 95 1241 95 1256.5 80 c 128,-1,23
 1272 65 1272 65 1311 57 c 1,24,-1
 1311 0 l 1,25,-1
 1008 0 l 1,26,-1
 1008 57 l 1,27,28
 1047 65 1047 65 1062 80 c 128,-1,29
 1077 95 1077 95 1077 131 c 2,30,-1
 1077 1180 l 1,31,-1
 356 1180 l 1,32,-1
 356 131 l 2,0,1
EndSplineSet
Validated: 1
EndChar

StartChar: Eth
Encoding: 417 1056 141
AltUni2: 0000d0.ffffffff.0
Width: 1094
Flags: W
LayerCount: 2
Fore
SplineSet
356 532 m 1,0,1
 433 562 433 562 490 584 c 128,-1,2
 547 606 547 606 606 633.5 c 128,-1,3
 665 661 665 661 718.5 696.5 c 128,-1,4
 772 732 772 732 815 778 c 0,5,6
 846 812 846 812 861.5 855 c 128,-1,7
 877 898 877 898 877 946 c 0,8,9
 877 1002 877 1002 860 1036 c 1,10,11
 840 1094 840 1094 786.5 1130 c 128,-1,12
 733 1166 733 1166 668 1176 c 1,13,14
 544 1184 544 1184 479 1184 c 2,15,-1
 356 1184 l 1,16,-1
 356 532 l 1,0,1
422 0 m 1,17,-1
 123 0 l 1,18,-1
 123 57 l 1,19,20
 161 65 161 65 174.5 79.5 c 128,-1,21
 188 94 188 94 188 131 c 2,22,-1
 188 1171 l 2,23,24
 188 1209 188 1209 174 1224 c 128,-1,25
 160 1239 160 1239 123 1245 c 1,26,-1
 123 1298 l 1,27,-1
 598 1298 l 2,28,29
 676 1298 676 1298 738 1291 c 128,-1,30
 800 1284 800 1284 856 1262 c 0,31,32
 933 1229 933 1229 987 1158.5 c 128,-1,33
 1041 1088 1041 1088 1053 1004 c 1,34,-1
 1053 954 l 2,35,36
 1053 838 1053 838 983.5 747 c 128,-1,37
 914 656 914 656 813.5 596 c 128,-1,38
 713 536 713 536 569 479.5 c 128,-1,39
 425 423 425 423 356 397 c 1,40,-1
 356 131 l 2,41,42
 356 107 356 107 362.5 92 c 128,-1,43
 369 77 369 77 383.5 69.5 c 128,-1,44
 398 62 398 62 422 57 c 1,45,-1
 422 0 l 1,17,-1
EndSplineSet
Validated: 1
EndChar

StartChar: Ntilde
Encoding: 418 1057 142
AltUni2: 0000d1.ffffffff.0
Width: 1298
Flags: W
LayerCount: 2
Fore
SplineSet
1180 -12 m 1,0,1
 1006 -29 1006 -29 918 -29 c 0,2,3
 831 -29 831 -29 758 -17 c 128,-1,4
 685 -5 685 -5 610 25 c 0,5,6
 391 106 391 106 251 296.5 c 128,-1,7
 111 487 111 487 111 717 c 0,8,9
 111 824 111 824 144.5 920 c 128,-1,10
 178 1016 178 1016 239.5 1092.5 c 128,-1,11
 301 1169 301 1169 388 1224 c 128,-1,12
 475 1279 475 1279 578 1303 c 0,13,14
 680 1323 680 1323 774 1323 c 0,15,16
 910 1323 910 1323 1020 1282 c 1,17,18
 1134 1233 1134 1233 1245 1135 c 1,19,-1
 1077 971 l 1,20,-1
 1036 1012 l 1,21,22
 1053 1046 1053 1046 1053 1061 c 0,23,24
 1053 1098 1053 1098 1013 1131.5 c 128,-1,25
 973 1165 973 1165 907.5 1184.5 c 128,-1,26
 842 1204 842 1204 766 1204 c 0,27,28
 682 1204 682 1204 597.5 1176.5 c 128,-1,29
 513 1149 513 1149 445 1093 c 128,-1,30
 377 1037 377 1037 334.5 945 c 128,-1,31
 292 853 292 853 291 729 c 0,32,33
 291 583 291 583 351 463 c 128,-1,34
 411 343 411 343 508 260.5 c 128,-1,35
 605 178 605 178 714.5 136 c 128,-1,36
 824 94 824 94 918 94 c 0,37,38
 1003 94 1003 94 1060 128 c 128,-1,39
 1117 162 1117 162 1126 225 c 1,40,-1
 1180 225 l 1,41,-1
 1180 -12 l 1,0,1
EndSplineSet
Validated: 1
EndChar

StartChar: Ograve
Encoding: 419 1058 143
AltUni2: 0000d2.ffffffff.0
Width: 1196
Flags: W
LayerCount: 2
Fore
SplineSet
442 0 m 1,0,-1
 442 57 l 1,1,2
 472 59 472 59 487.5 65 c 128,-1,3
 503 71 503 71 509.5 86 c 128,-1,4
 516 101 516 101 516 131 c 2,5,-1
 516 1180 l 1,6,-1
 233 1180 l 2,7,8
 173 1180 173 1180 143.5 1160 c 128,-1,9
 114 1140 114 1140 111 1081 c 1,10,-1
 57 1081 l 1,11,-1
 57 1298 l 1,12,-1
 1151 1298 l 1,13,-1
 1151 1081 l 1,14,-1
 1098 1081 l 1,15,16
 1092 1140 1092 1140 1064 1160 c 128,-1,17
 1036 1180 1036 1180 975 1180 c 2,18,-1
 688 1180 l 1,19,-1
 688 131 l 2,20,21
 688 90 688 90 704 75 c 128,-1,22
 720 60 720 60 762 57 c 1,23,-1
 762 0 l 1,24,-1
 442 0 l 1,0,-1
EndSplineSet
Validated: 1
EndChar

StartChar: Oacute
Encoding: 420 1059 144
AltUni2: 0000d3.ffffffff.0
Width: 1257
Flags: W
LayerCount: 2
Fore
SplineSet
418 143 m 0,0,1
 451 143 451 143 472.5 164.5 c 128,-1,2
 494 186 494 186 528 246 c 1,3,-1
 565 324 l 1,4,-1
 156 1184 l 2,5,6
 145 1209 145 1209 113 1225.5 c 128,-1,7
 81 1242 81 1242 49 1245 c 1,8,-1
 49 1298 l 1,9,-1
 401 1298 l 1,10,-1
 401 1245 l 1,11,12
 340 1236 340 1236 340 1204 c 0,13,14
 340 1200 340 1200 342 1194 c 128,-1,15
 344 1188 344 1188 344 1184 c 2,16,-1
 647 504 l 1,17,-1
 938 1151 l 2,18,19
 938 1153 938 1153 940 1159 c 128,-1,20
 942 1165 942 1165 942 1167 c 0,21,22
 942 1196 942 1196 909.5 1220.5 c 128,-1,23
 877 1245 877 1245 848 1245 c 1,24,-1
 848 1298 l 1,25,-1
 1204 1298 l 1,26,-1
 1204 1245 l 1,27,28
 1101 1228 1101 1228 1077 1176 c 2,29,-1
 631 193 l 2,30,31
 585 96 585 96 537.5 44 c 128,-1,32
 490 -8 490 -8 426 -8 c 0,33,34
 391 -8 391 -8 350.5 2 c 128,-1,35
 310 12 310 12 283 29 c 1,36,-1
 270 168 l 1,37,-1
 315 188 l 1,38,39
 362 143 362 143 418 143 c 0,0,1
EndSplineSet
Validated: 1
EndChar

StartChar: Ocircumflex
Encoding: 421 1060 145
AltUni2: 0000d4.ffffffff.0
Width: 1458
Flags: W
LayerCount: 2
Fore
SplineSet
905 0 m 1,0,-1
 606 0 l 1,1,-1
 606 57 l 1,2,3
 676 70 676 70 676 143 c 1,4,5
 539 143 539 143 431 195 c 128,-1,6
 323 247 323 247 247.5 333.5 c 128,-1,7
 172 420 172 420 135 516 c 128,-1,8
 98 612 98 612 98 705 c 0,9,10
 98 829 98 829 150.5 929.5 c 128,-1,11
 203 1030 203 1030 332 1090.5 c 128,-1,12
 461 1151 461 1151 676 1151 c 1,13,14
 676 1189 676 1189 658 1214 c 128,-1,15
 640 1239 640 1239 606 1245 c 1,16,-1
 606 1298 l 1,17,-1
 905 1298 l 1,18,-1
 905 1245 l 1,19,20
 871 1239 871 1239 853.5 1214 c 128,-1,21
 836 1189 836 1189 836 1151 c 1,22,23
 1050 1151 1050 1151 1179 1090.5 c 128,-1,24
 1308 1030 1308 1030 1360.5 929.5 c 128,-1,25
 1413 829 1413 829 1413 705 c 0,26,27
 1413 612 1413 612 1375.5 514.5 c 128,-1,28
 1338 417 1338 417 1264 332 c 128,-1,29
 1190 247 1190 247 1081.5 195 c 128,-1,30
 973 143 973 143 836 143 c 1,31,32
 836 103 836 103 851.5 84 c 128,-1,33
 867 65 867 65 905 57 c 1,34,-1
 905 0 l 1,0,-1
1266 700 m 0,35,36
 1266 792 1266 792 1234 856 c 128,-1,37
 1202 920 1202 920 1144.5 956.5 c 128,-1,38
 1087 993 1087 993 1012 1008.5 c 128,-1,39
 937 1024 937 1024 840 1024 c 1,40,-1
 840 270 l 1,41,42
 935 270 935 270 1034.5 321 c 128,-1,43
 1134 372 1134 372 1200 470 c 128,-1,44
 1266 568 1266 568 1266 700 c 0,35,36
246 700 m 0,45,46
 246 568 246 568 312 470 c 128,-1,47
 378 372 378 372 477 321 c 128,-1,48
 576 270 576 270 672 270 c 1,49,-1
 672 1024 l 1,50,51
 545 1024 545 1024 450 994.5 c 128,-1,52
 355 965 355 965 300.5 892.5 c 128,-1,53
 246 820 246 820 246 700 c 0,45,46
EndSplineSet
Validated: 1
EndChar

StartChar: Otilde
Encoding: 422 1061 146
AltUni2: 0000d5.ffffffff.0
Width: 1257
Flags: W
LayerCount: 2
Fore
SplineSet
352 0 m 1,0,-1
 33 0 l 1,1,-1
 33 57 l 1,2,3
 99 63 99 63 143 131 c 2,4,-1
 528 688 l 1,5,-1
 176 1196 l 1,6,7
 153 1239 153 1239 90 1245 c 1,8,-1
 90 1298 l 1,9,-1
 446 1298 l 1,10,-1
 446 1245 l 1,11,12
 381 1236 381 1236 381 1204 c 0,13,14
 381 1202 381 1202 386.5 1192.5 c 128,-1,15
 392 1183 392 1183 393 1180 c 2,16,-1
 643 815 l 1,17,-1
 893 1176 l 1,18,19
 901 1200 901 1200 901 1204 c 0,20,21
 901 1223 901 1223 885 1234 c 128,-1,22
 869 1245 869 1245 844 1245 c 1,23,-1
 844 1298 l 1,24,-1
 1151 1298 l 1,25,-1
 1151 1245 l 1,26,27
 1115 1239 1115 1239 1092.5 1223.5 c 128,-1,28
 1070 1208 1070 1208 1049 1176 c 2,29,-1
 721 705 l 1,30,-1
 1114 131 l 1,31,32
 1152 85 1152 85 1168 71 c 128,-1,33
 1184 57 1184 57 1217 57 c 1,34,-1
 1217 0 l 1,35,-1
 860 0 l 1,36,-1
 860 57 l 1,37,38
 926 70 926 70 926 94 c 0,39,40
 926 107 926 107 918 115 c 2,41,-1
 602 573 l 1,42,-1
 303 127 l 2,43,44
 291 109 291 109 291 94 c 0,45,46
 291 57 291 57 352 57 c 1,47,-1
 352 0 l 1,0,-1
EndSplineSet
Validated: 1
EndChar

StartChar: Odieresis
Encoding: 423 1062 147
AltUni2: 0000d6.ffffffff.0
Width: 1438
Flags: W
LayerCount: 2
Fore
SplineSet
1212 0 m 2,0,-1
 123 0 l 1,1,-1
 123 57 l 1,2,3
 161 65 161 65 174.5 79.5 c 128,-1,4
 188 94 188 94 188 131 c 2,5,-1
 188 1171 l 2,6,7
 188 1209 188 1209 174 1224 c 128,-1,8
 160 1239 160 1239 123 1245 c 1,9,-1
 123 1298 l 1,10,-1
 422 1298 l 1,11,-1
 422 1245 l 1,12,13
 384 1239 384 1239 370 1224 c 128,-1,14
 356 1209 356 1209 356 1171 c 2,15,-1
 356 127 l 1,16,-1
 1077 127 l 1,17,-1
 1077 1171 l 2,18,19
 1074 1211 1074 1211 1060 1225 c 128,-1,20
 1046 1239 1046 1239 1008 1245 c 1,21,-1
 1008 1298 l 1,22,-1
 1311 1298 l 1,23,-1
 1311 1245 l 1,24,25
 1270 1239 1270 1239 1255.5 1225 c 128,-1,26
 1241 1211 1241 1211 1241 1171 c 2,27,-1
 1241 127 l 1,28,-1
 1393 127 l 1,29,-1
 1393 -102 l 1,30,-1
 1339 -102 l 1,31,32
 1336 -43 1336 -43 1304.5 -21.5 c 128,-1,33
 1273 0 1273 0 1212 0 c 2,0,-1
EndSplineSet
Validated: 1
EndChar

StartChar: multiply
Encoding: 424 1063 148
AltUni2: 0000d7.ffffffff.0
Width: 1298
Flags: W
LayerCount: 2
Fore
SplineSet
1012 791 m 1,0,-1
 1012 1171 l 2,1,2
 1012 1211 1012 1211 998 1225 c 128,-1,3
 984 1239 984 1239 946 1245 c 1,4,-1
 946 1298 l 1,5,-1
 1245 1298 l 1,6,-1
 1245 1245 l 1,7,8
 1206 1239 1206 1239 1193 1225 c 128,-1,9
 1180 1211 1180 1211 1180 1171 c 2,10,-1
 1180 131 l 2,11,12
 1180 107 1180 107 1186 92 c 128,-1,13
 1192 77 1192 77 1206.5 69.5 c 128,-1,14
 1221 62 1221 62 1245 57 c 1,15,-1
 1245 0 l 1,16,-1
 946 0 l 1,17,-1
 946 57 l 1,18,19
 970 61 970 61 984.5 69 c 128,-1,20
 999 77 999 77 1005.5 92 c 128,-1,21
 1012 107 1012 107 1012 131 c 2,22,-1
 1012 672 l 1,23,24
 926 616 926 616 867.5 584.5 c 128,-1,25
 809 553 809 553 740 532.5 c 128,-1,26
 671 512 671 512 586 512 c 0,27,28
 493 512 493 512 403 539 c 128,-1,29
 313 566 313 566 250.5 639 c 128,-1,30
 188 712 188 712 188 836 c 2,31,-1
 188 1171 l 2,32,33
 188 1209 188 1209 174 1224 c 128,-1,34
 160 1239 160 1239 123 1245 c 1,35,-1
 123 1298 l 1,36,-1
 422 1298 l 1,37,-1
 422 1245 l 1,38,39
 384 1239 384 1239 370 1224 c 128,-1,40
 356 1209 356 1209 356 1171 c 2,41,-1
 356 819 l 2,42,43
 356 735 356 735 425 687 c 128,-1,44
 494 639 494 639 598 639 c 0,45,46
 671 639 671 639 732 655 c 128,-1,47
 793 671 793 671 849.5 699.5 c 128,-1,48
 906 728 906 728 1012 791 c 1,0,-1
EndSplineSet
Validated: 1
EndChar

StartChar: Oslash
Encoding: 425 1064 149
AltUni2: 0000d8.ffffffff.0
Width: 1683
Flags: W
LayerCount: 2
Fore
SplineSet
799 127 m 1,0,-1
 799 1171 l 2,1,2
 799 1208 799 1208 783.5 1223.5 c 128,-1,3
 768 1239 768 1239 733 1245 c 1,4,-1
 733 1298 l 1,5,-1
 1032 1298 l 1,6,-1
 1032 1245 l 1,7,8
 994 1239 994 1239 980.5 1224 c 128,-1,9
 967 1209 967 1209 967 1171 c 2,10,-1
 967 127 l 1,11,-1
 1409 127 l 1,12,-1
 1409 1171 l 2,13,14
 1409 1208 1409 1208 1393.5 1223.5 c 128,-1,15
 1378 1239 1378 1239 1339 1245 c 1,16,-1
 1339 1298 l 1,17,-1
 1642 1298 l 1,18,-1
 1642 1245 l 1,19,20
 1604 1239 1604 1239 1590.5 1224 c 128,-1,21
 1577 1209 1577 1209 1577 1171 c 2,22,-1
 1577 131 l 2,23,24
 1577 107 1577 107 1583 92 c 128,-1,25
 1589 77 1589 77 1603.5 69.5 c 128,-1,26
 1618 62 1618 62 1642 57 c 1,27,-1
 1642 0 l 1,28,-1
 123 0 l 1,29,-1
 123 57 l 1,30,31
 161 65 161 65 174.5 79.5 c 128,-1,32
 188 94 188 94 188 131 c 2,33,-1
 188 1171 l 2,34,35
 188 1209 188 1209 174 1224 c 128,-1,36
 160 1239 160 1239 123 1245 c 1,37,-1
 123 1298 l 1,38,-1
 422 1298 l 1,39,-1
 422 1245 l 1,40,41
 384 1239 384 1239 370 1224 c 128,-1,42
 356 1209 356 1209 356 1171 c 2,43,-1
 356 127 l 1,44,-1
 799 127 l 1,0,-1
EndSplineSet
Validated: 1
EndChar

StartChar: Ugrave
Encoding: 426 1065 150
AltUni2: 0000d9.ffffffff.0
Width: 1765
Flags: W
LayerCount: 2
Fore
SplineSet
1577 127 m 1,0,-1
 1724 127 l 1,1,-1
 1724 -102 l 1,2,-1
 1675 -102 l 1,3,4
 1669 -43 1669 -43 1637 -21.5 c 128,-1,5
 1605 0 1605 0 1544 0 c 2,6,-1
 123 0 l 1,7,-1
 123 57 l 1,8,9
 161 65 161 65 174.5 79.5 c 128,-1,10
 188 94 188 94 188 131 c 2,11,-1
 188 1171 l 2,12,13
 188 1209 188 1209 174 1224 c 128,-1,14
 160 1239 160 1239 123 1245 c 1,15,-1
 123 1298 l 1,16,-1
 422 1298 l 1,17,-1
 422 1245 l 1,18,19
 384 1239 384 1239 370 1224 c 128,-1,20
 356 1209 356 1209 356 1171 c 2,21,-1
 356 127 l 1,22,-1
 799 127 l 1,23,-1
 799 1171 l 2,24,25
 799 1208 799 1208 783.5 1223.5 c 128,-1,26
 768 1239 768 1239 733 1245 c 1,27,-1
 733 1298 l 1,28,-1
 1032 1298 l 1,29,-1
 1032 1245 l 1,30,31
 994 1239 994 1239 980.5 1224 c 128,-1,32
 967 1209 967 1209 967 1171 c 2,33,-1
 967 127 l 1,34,-1
 1409 127 l 1,35,-1
 1409 1171 l 2,36,37
 1409 1208 1409 1208 1393.5 1223.5 c 128,-1,38
 1378 1239 1378 1239 1339 1245 c 1,39,-1
 1339 1298 l 1,40,-1
 1642 1298 l 1,41,-1
 1642 1245 l 1,42,43
 1604 1239 1604 1239 1590.5 1224 c 128,-1,44
 1577 1209 1577 1209 1577 1171 c 2,45,-1
 1577 127 l 1,0,-1
EndSplineSet
Validated: 1
EndChar

StartChar: Uacute
Encoding: 427 1066 151
AltUni2: 0000da.ffffffff.0
Width: 1520
Flags: W
LayerCount: 2
Fore
SplineSet
455 1180 m 1,0,-1
 233 1180 l 2,1,2
 173 1180 173 1180 143.5 1160 c 128,-1,3
 114 1140 114 1140 111 1081 c 1,4,-1
 57 1081 l 1,5,-1
 57 1298 l 1,6,-1
 688 1298 l 1,7,-1
 688 1245 l 1,8,9
 650 1239 650 1239 636.5 1224 c 128,-1,10
 623 1209 623 1209 623 1171 c 2,11,-1
 623 786 l 1,12,-1
 967 786 l 2,13,14
 1046 786 1046 786 1132 766 c 128,-1,15
 1218 746 1218 746 1296 702.5 c 128,-1,16
 1374 659 1374 659 1424.5 587 c 128,-1,17
 1475 515 1475 515 1475 414 c 0,18,19
 1475 292 1475 292 1415 208.5 c 128,-1,20
 1355 125 1355 125 1264.5 80.5 c 128,-1,21
 1174 36 1174 36 1073.5 18 c 128,-1,22
 973 0 973 0 877 0 c 2,23,-1
 389 0 l 1,24,-1
 389 57 l 1,25,26
 455 63 455 63 455 123 c 2,27,-1
 455 1180 l 1,0,-1
623 123 m 1,28,-1
 922 123 l 2,29,30
 1018 123 1018 123 1100 149 c 128,-1,31
 1182 175 1182 175 1235.5 236 c 128,-1,32
 1289 297 1289 297 1290 393 c 0,33,34
 1290 482 1290 482 1242.5 545 c 128,-1,35
 1195 608 1195 608 1118.5 638 c 128,-1,36
 1042 668 1042 668 950 668 c 2,37,-1
 623 668 l 1,38,-1
 623 123 l 1,28,-1
EndSplineSet
Validated: 1
EndChar

StartChar: Ucircumflex
Encoding: 428 1067 152
AltUni2: 0000db.ffffffff.0
Width: 1602
Flags: W
LayerCount: 2
Fore
SplineSet
123 1298 m 1,0,-1
 422 1298 l 1,1,-1
 422 1245 l 1,2,3
 384 1239 384 1239 370 1224 c 128,-1,4
 356 1209 356 1209 356 1171 c 2,5,-1
 356 786 l 1,6,-1
 705 786 l 2,7,8
 815 786 815 786 927.5 753.5 c 128,-1,9
 1040 721 1040 721 1120 633.5 c 128,-1,10
 1200 546 1200 546 1200 393 c 0,11,12
 1200 295 1200 295 1156.5 221 c 128,-1,13
 1113 147 1113 147 1033 97.5 c 128,-1,14
 953 48 953 48 847.5 24 c 128,-1,15
 742 0 742 0 614 0 c 2,16,-1
 123 0 l 1,17,-1
 123 57 l 1,18,19
 158 60 158 60 173 75 c 128,-1,20
 188 90 188 90 188 123 c 2,21,-1
 188 1176 l 2,22,23
 188 1209 188 1209 173.5 1224 c 128,-1,24
 159 1239 159 1239 123 1245 c 1,25,-1
 123 1298 l 1,0,-1
1262 1245 m 1,26,-1
 1262 1298 l 1,27,-1
 1561 1298 l 1,28,-1
 1561 1245 l 1,29,30
 1523 1239 1523 1239 1509 1225 c 128,-1,31
 1495 1211 1495 1211 1495 1171 c 2,32,-1
 1495 131 l 2,33,34
 1495 95 1495 95 1510 80 c 128,-1,35
 1525 65 1525 65 1561 57 c 1,36,-1
 1561 0 l 1,37,-1
 1262 0 l 1,38,-1
 1262 57 l 1,39,40
 1300 65 1300 65 1313.5 79.5 c 128,-1,41
 1327 94 1327 94 1327 131 c 2,42,-1
 1327 1171 l 2,43,44
 1327 1211 1327 1211 1313.5 1225 c 128,-1,45
 1300 1239 1300 1239 1262 1245 c 1,26,-1
356 123 m 1,46,-1
 659 123 l 2,47,48
 815 123 815 123 921.5 186 c 128,-1,49
 1028 249 1028 249 1028 393 c 0,50,51
 1028 526 1028 526 928.5 597 c 128,-1,52
 829 668 829 668 684 668 c 2,53,-1
 356 668 l 1,54,-1
 356 123 l 1,46,-1
EndSplineSet
Validated: 1
EndChar

StartChar: Udieresis
Encoding: 429 1068 153
AltUni2: 0000dc.ffffffff.0
Width: 1257
Flags: W
LayerCount: 2
Fore
SplineSet
123 1298 m 1,0,-1
 422 1298 l 1,1,-1
 422 1245 l 1,2,3
 384 1239 384 1239 370 1224 c 128,-1,4
 356 1209 356 1209 356 1171 c 2,5,-1
 356 786 l 1,6,-1
 705 786 l 2,7,8
 815 786 815 786 927.5 753.5 c 128,-1,9
 1040 721 1040 721 1120 633.5 c 128,-1,10
 1200 546 1200 546 1200 393 c 0,11,12
 1200 295 1200 295 1156.5 221 c 128,-1,13
 1113 147 1113 147 1033 97.5 c 128,-1,14
 953 48 953 48 847.5 24 c 128,-1,15
 742 0 742 0 614 0 c 2,16,-1
 123 0 l 1,17,-1
 123 57 l 1,18,19
 158 60 158 60 173 75 c 128,-1,20
 188 90 188 90 188 123 c 2,21,-1
 188 1176 l 2,22,23
 188 1209 188 1209 173.5 1224 c 128,-1,24
 159 1239 159 1239 123 1245 c 1,25,-1
 123 1298 l 1,0,-1
356 123 m 1,26,-1
 659 123 l 2,27,28
 815 123 815 123 921.5 186 c 128,-1,29
 1028 249 1028 249 1028 393 c 0,30,31
 1028 526 1028 526 928.5 597 c 128,-1,32
 829 668 829 668 684 668 c 2,33,-1
 356 668 l 1,34,-1
 356 123 l 1,26,-1
EndSplineSet
Validated: 1
EndChar

StartChar: Yacute
Encoding: 430 1069 154
AltUni2: 0000dd.ffffffff.0
Width: 1298
Flags: W
LayerCount: 2
Fore
SplineSet
750 25 m 0,0,1
 620 -29 620 -29 434 -29 c 0,2,3
 359 -29 359 -29 176 -12 c 1,4,-1
 176 225 l 1,5,-1
 229 225 l 1,6,7
 239 161 239 161 295.5 127.5 c 128,-1,8
 352 94 352 94 438 94 c 0,9,10
 532 94 532 94 634.5 131.5 c 128,-1,11
 737 169 737 169 830.5 243.5 c 128,-1,12
 924 318 924 318 985.5 426.5 c 128,-1,13
 1047 535 1047 535 1057 672 c 1,14,-1
 573 672 l 1,15,-1
 573 795 l 1,16,-1
 1057 795 l 1,17,18
 1047 906 1047 906 1002 984 c 128,-1,19
 957 1062 957 1062 891 1110 c 128,-1,20
 825 1158 825 1158 748 1181 c 128,-1,21
 671 1204 671 1204 590 1204 c 0,22,23
 512 1204 512 1204 446.5 1184.5 c 128,-1,24
 381 1165 381 1165 342 1132 c 128,-1,25
 303 1099 303 1099 303 1061 c 0,26,27
 303 1044 303 1044 319 1012 c 1,28,-1
 279 971 l 1,29,-1
 111 1135 l 1,30,31
 216 1228 216 1228 336 1282 c 1,32,33
 446 1323 446 1323 582 1323 c 0,34,35
 676 1323 676 1323 778 1303 c 0,36,37
 881 1279 881 1279 967.5 1225 c 128,-1,38
 1054 1171 1054 1171 1116 1093.5 c 128,-1,39
 1178 1016 1178 1016 1211.5 920 c 128,-1,40
 1245 824 1245 824 1245 717 c 0,41,42
 1245 602 1245 602 1208.5 494.5 c 128,-1,43
 1172 387 1172 387 1105.5 295 c 128,-1,44
 1039 203 1039 203 947 134 c 128,-1,45
 855 65 855 65 750 25 c 0,0,1
EndSplineSet
Validated: 1
EndChar

StartChar: Thorn
Encoding: 431 1070 155
AltUni2: 0000de.ffffffff.0
Width: 1724
Flags: W
LayerCount: 2
Fore
SplineSet
1073 90 m 0,0,1
 1178 90 1178 90 1257.5 133.5 c 128,-1,2
 1337 177 1337 177 1390 253.5 c 128,-1,3
 1443 330 1443 330 1470 430.5 c 128,-1,4
 1497 531 1497 531 1499 647 c 0,5,6
 1499 774 1499 774 1462.5 890 c 128,-1,7
 1426 1006 1426 1006 1351.5 1089.5 c 128,-1,8
 1277 1173 1277 1173 1167 1196 c 1,9,10
 1093 1204 1093 1204 1061 1204 c 0,11,12
 962 1204 962 1204 884.5 1161.5 c 128,-1,13
 807 1119 807 1119 752.5 1041.5 c 128,-1,14
 698 964 698 964 670.5 863 c 128,-1,15
 643 762 643 762 643 647 c 0,16,17
 643 495 643 495 690 368 c 128,-1,18
 737 241 737 241 835 165.5 c 128,-1,19
 933 90 933 90 1073 90 c 0,0,1
356 791 m 1,20,-1
 487 791 l 1,21,22
 508 924 508 924 563 1023 c 128,-1,23
 618 1122 618 1122 698.5 1189 c 128,-1,24
 779 1256 779 1256 875 1289.5 c 128,-1,25
 971 1323 971 1323 1073 1323 c 0,26,27
 1186 1323 1186 1323 1294 1280 c 128,-1,28
 1402 1237 1402 1237 1486.5 1151.5 c 128,-1,29
 1571 1066 1571 1066 1621 938.5 c 128,-1,30
 1671 811 1671 811 1671 647 c 0,31,32
 1671 453 1671 453 1596.5 297.5 c 128,-1,33
 1522 142 1522 142 1385.5 54.5 c 128,-1,34
 1249 -33 1249 -33 1073 -33 c 0,35,36
 941 -33 941 -33 831.5 16.5 c 128,-1,37
 722 66 722 66 641 159.5 c 128,-1,38
 560 253 560 253 517.5 377.5 c 128,-1,39
 475 502 475 502 475 647 c 2,40,-1
 475 672 l 1,41,-1
 356 672 l 1,42,-1
 356 131 l 2,43,44
 356 107 356 107 362.5 92 c 128,-1,45
 369 77 369 77 383.5 69.5 c 128,-1,46
 398 62 398 62 422 57 c 1,47,-1
 422 0 l 1,48,-1
 123 0 l 1,49,-1
 123 57 l 1,50,51
 161 65 161 65 174.5 79.5 c 128,-1,52
 188 94 188 94 188 131 c 2,53,-1
 188 1171 l 2,54,55
 188 1209 188 1209 174 1224 c 128,-1,56
 160 1239 160 1239 123 1245 c 1,57,-1
 123 1298 l 1,58,-1
 422 1298 l 1,59,-1
 422 1245 l 1,60,61
 384 1239 384 1239 370 1224 c 128,-1,62
 356 1209 356 1209 356 1171 c 2,63,-1
 356 791 l 1,20,-1
EndSplineSet
Validated: 1
EndChar

StartChar: germandbls
Encoding: 432 1071 156
AltUni2: 0000df.ffffffff.0
Width: 1155
Flags: W
LayerCount: 2
Fore
SplineSet
1114 0 m 1,0,-1
 815 0 l 1,1,-1
 815 57 l 1,2,3
 839 61 839 61 853.5 69 c 128,-1,4
 868 77 868 77 874.5 92 c 128,-1,5
 881 107 881 107 881 131 c 2,6,-1
 881 590 l 1,7,-1
 717 590 l 1,8,-1
 291 0 l 1,9,-1
 74 0 l 1,10,-1
 74 57 l 1,11,12
 138 73 138 73 168 106 c 1,13,-1
 528 598 l 1,14,15
 417 611 417 611 328.5 650.5 c 128,-1,16
 240 690 240 690 189.5 765 c 128,-1,17
 139 840 139 840 139 958 c 0,18,19
 139 1036 139 1036 177 1113 c 128,-1,20
 215 1190 215 1190 307.5 1244 c 128,-1,21
 400 1298 400 1298 549 1298 c 2,22,-1
 1114 1298 l 1,23,-1
 1114 1245 l 1,24,25
 1078 1238 1078 1238 1063.5 1223 c 128,-1,26
 1049 1208 1049 1208 1049 1171 c 2,27,-1
 1049 131 l 2,28,29
 1049 95 1049 95 1063 80 c 128,-1,30
 1077 65 1077 65 1114 57 c 1,31,-1
 1114 0 l 1,0,-1
651 705 m 2,32,-1
 881 705 l 1,33,-1
 881 1180 l 1,34,-1
 606 1180 l 2,35,36
 525 1180 525 1180 457.5 1158 c 128,-1,37
 390 1136 390 1136 348.5 1084.5 c 128,-1,38
 307 1033 307 1033 307 946 c 0,39,40
 307 802 307 802 404.5 753.5 c 128,-1,41
 502 705 502 705 651 705 c 2,32,-1
EndSplineSet
Validated: 1
EndChar

StartChar: agrave
Encoding: 433 1072 157
AltUni2: 0000e0.ffffffff.0
Width: 971
Flags: W
LayerCount: 2
Fore
SplineSet
700 0 m 1,0,-1
 700 98 l 1,1,2
 618 39 618 39 556 11.5 c 128,-1,3
 494 -16 494 -16 414 -16 c 0,4,5
 329 -16 329 -16 256.5 15 c 128,-1,6
 184 46 184 46 141 107 c 128,-1,7
 98 168 98 168 98 254 c 0,8,9
 98 318 98 318 130 383.5 c 128,-1,10
 162 449 162 449 217 492 c 0,11,12
 306 561 306 561 423.5 588 c 128,-1,13
 541 615 541 615 700 631 c 1,14,15
 694 715 694 715 633.5 753 c 128,-1,16
 573 791 573 791 483 791 c 0,17,18
 300 791 300 791 233 659 c 1,19,-1
 188 659 l 1,20,-1
 188 819 l 1,21,22
 339 897 339 897 500 897 c 0,23,24
 603 897 603 897 684 856.5 c 128,-1,25
 765 816 765 816 810.5 742.5 c 128,-1,26
 856 669 856 669 856 578 c 2,27,-1
 856 119 l 2,28,29
 856 83 856 83 871.5 67.5 c 128,-1,30
 887 52 887 52 922 49 c 1,31,-1
 922 0 l 1,32,-1
 700 0 l 1,0,-1
700 254 m 1,33,-1
 700 524 l 1,34,35
 576 507 576 507 500 489 c 128,-1,36
 424 471 424 471 356 426 c 0,37,38
 316 402 316 402 289 355.5 c 128,-1,39
 262 309 262 309 262 262 c 0,40,41
 262 182 262 182 321 146.5 c 128,-1,42
 380 111 380 111 438 111 c 0,43,44
 590 111 590 111 700 254 c 1,33,-1
EndSplineSet
Validated: 1
EndChar

StartChar: aacute
Encoding: 434 1073 158
AltUni2: 0000e1.ffffffff.0
Width: 1053
Flags: W
LayerCount: 2
Fore
SplineSet
90 426 m 0,0,1
 90 575 90 575 104 692.5 c 128,-1,2
 118 810 118 810 150 901 c 128,-1,3
 182 992 182 992 238.5 1057 c 128,-1,4
 295 1122 295 1122 377 1159 c 0,5,6
 422 1178 422 1178 463.5 1182.5 c 128,-1,7
 505 1187 505 1187 588 1190.5 c 128,-1,8
 671 1194 671 1194 713 1204 c 0,9,10
 735 1209 735 1209 755 1220 c 128,-1,11
 775 1231 775 1231 778 1237 c 1,12,-1
 823 1237 l 1,13,-1
 823 1094 l 1,14,15
 753 1077 753 1077 692 1077 c 0,16,17
 679 1077 679 1077 649 1079 c 128,-1,18
 619 1081 619 1081 602 1081 c 0,19,20
 494 1081 494 1081 430 1057 c 0,21,22
 342 1018 342 1018 301.5 950 c 128,-1,23
 261 882 261 882 258 766 c 1,24,25
 320 834 320 834 398 871.5 c 128,-1,26
 476 909 476 909 553 909 c 0,27,28
 676 909 676 909 779 844.5 c 128,-1,29
 882 780 882 780 940.5 671 c 128,-1,30
 999 562 999 562 999 434 c 0,31,32
 999 313 999 313 938.5 201 c 128,-1,33
 878 89 878 89 773 22 c 128,-1,34
 668 -45 668 -45 545 -45 c 0,35,36
 451 -45 451 -45 368.5 -7 c 128,-1,37
 286 31 286 31 223 98 c 128,-1,38
 160 165 160 165 125 251 c 128,-1,39
 90 337 90 337 90 426 c 0,0,1
541 803 m 0,40,41
 401 803 401 803 327.5 697.5 c 128,-1,42
 254 592 254 592 254 434 c 0,43,44
 254 280 254 280 323 170.5 c 128,-1,45
 392 61 392 61 537 61 c 0,46,47
 636 61 636 61 704.5 113.5 c 128,-1,48
 773 166 773 166 804.5 250.5 c 128,-1,49
 836 335 836 335 836 434 c 0,50,51
 836 518 836 518 801 603 c 128,-1,52
 766 688 766 688 699.5 745.5 c 128,-1,53
 633 803 633 803 541 803 c 0,40,41
EndSplineSet
Validated: 1
EndChar

StartChar: acircumflex
Encoding: 435 1074 159
AltUni2: 0000e2.ffffffff.0
Width: 1057
Flags: W
LayerCount: 2
Fore
SplineSet
557 872 m 2,0,1
 689 872 689 872 770.5 824.5 c 128,-1,2
 852 777 852 777 852 676 c 0,3,4
 852 546 852 546 713 496 c 1,5,6
 805 486 805 486 870 432.5 c 128,-1,7
 935 379 935 379 938 279 c 0,8,9
 938 230 938 230 911 181 c 128,-1,10
 884 132 884 132 836 91 c 128,-1,11
 788 50 788 50 722.5 25 c 128,-1,12
 657 0 657 0 586 0 c 2,13,-1
 111 0 l 1,14,-1
 111 49 l 1,15,16
 145 52 145 52 160.5 70.5 c 128,-1,17
 176 89 176 89 176 135 c 2,18,-1
 176 745 l 2,19,20
 176 783 176 783 161.5 801.5 c 128,-1,21
 147 820 147 820 102 823 c 1,22,-1
 102 872 l 1,23,-1
 557 872 l 2,0,1
557 106 m 2,24,25
 602 106 602 106 651 125 c 128,-1,26
 700 144 700 144 733 183 c 128,-1,27
 766 222 766 222 766 274 c 0,28,29
 766 343 766 343 706 388.5 c 128,-1,30
 646 434 646 434 532 434 c 2,31,-1
 332 434 l 1,32,-1
 332 106 l 1,33,-1
 557 106 l 2,24,25
537 537 m 2,34,35
 606 537 606 537 645 568.5 c 128,-1,36
 684 600 684 600 684 655 c 0,37,38
 684 762 684 762 561 762 c 2,39,-1
 332 762 l 1,40,-1
 332 537 l 1,41,-1
 537 537 l 2,34,35
EndSplineSet
Validated: 1
EndChar

StartChar: atilde
Encoding: 436 1075 160
AltUni2: 0000e3.ffffffff.0
Width: 791
Flags: W
LayerCount: 2
Fore
SplineSet
176 745 m 2,0,1
 176 788 176 788 161.5 802.5 c 128,-1,2
 147 817 147 817 102 823 c 1,3,-1
 102 872 l 1,4,-1
 737 872 l 1,5,-1
 737 696 l 1,6,-1
 700 696 l 1,7,8
 694 738 694 738 669.5 752 c 128,-1,9
 645 766 645 766 590 766 c 2,10,-1
 332 766 l 1,11,-1
 332 123 l 2,12,13
 332 84 332 84 345 69.5 c 128,-1,14
 358 55 358 55 397 49 c 1,15,-1
 397 0 l 1,16,-1
 111 0 l 1,17,-1
 111 49 l 1,18,19
 147 52 147 52 161.5 68 c 128,-1,20
 176 84 176 84 176 123 c 2,21,-1
 176 745 l 2,0,1
EndSplineSet
Validated: 1
EndChar

StartChar: adieresis
Encoding: 437 1076 161
AltUni2: 0000e4.ffffffff.0
Width: 1012
Flags: W
LayerCount: 2
Fore
SplineSet
156 111 m 1,0,-1
 455 872 l 1,1,-1
 573 872 l 1,2,-1
 868 111 l 1,3,-1
 967 111 l 1,4,-1
 967 -102 l 1,5,-1
 918 -102 l 1,6,7
 899 0 899 0 791 0 c 2,8,-1
 254 0 l 2,9,10
 145 0 145 0 127 -102 c 1,11,-1
 78 -102 l 1,12,-1
 78 111 l 1,13,-1
 156 111 l 1,0,-1
705 111 m 1,14,-1
 496 659 l 1,15,-1
 283 111 l 1,16,-1
 705 111 l 1,14,-1
EndSplineSet
Validated: 1
EndChar

StartChar: aring
Encoding: 438 1077 162
AltUni2: 0000e5.ffffffff.0
Width: 950
Flags: W
LayerCount: 2
Fore
SplineSet
274 553 m 1,0,-1
 737 553 l 1,1,2
 734 659 734 659 677.5 722.5 c 128,-1,3
 621 786 621 786 516 786 c 0,4,5
 421 786 421 786 347.5 716.5 c 128,-1,6
 274 647 274 647 274 553 c 1,0,-1
864 41 m 1,7,8
 710 -29 710 -29 565 -29 c 0,9,10
 483 -29 483 -29 389 4 c 0,11,12
 256 55 256 55 179 179.5 c 128,-1,13
 102 304 102 304 102 446 c 0,14,15
 102 504 102 504 115 557 c 0,16,17
 138 659 138 659 192.5 735.5 c 128,-1,18
 247 812 247 812 328.5 854.5 c 128,-1,19
 410 897 410 897 512 897 c 0,20,21
 647 897 647 897 733.5 828.5 c 128,-1,22
 820 760 820 760 860 660 c 128,-1,23
 900 560 900 560 905 451 c 1,24,-1
 262 451 l 1,25,26
 271 328 271 328 322.5 246.5 c 128,-1,27
 374 165 374 165 449 125.5 c 128,-1,28
 524 86 524 86 602 86 c 0,29,30
 679 86 679 86 740 121.5 c 128,-1,31
 801 157 801 157 819 217 c 1,32,-1
 864 217 l 1,33,-1
 864 41 l 1,7,8
EndSplineSet
Validated: 1
EndChar

StartChar: ae
Encoding: 439 1078 163
AltUni2: 0000e6.ffffffff.0
Width: 1561
Flags: W
LayerCount: 2
Fore
SplineSet
692 741 m 2,0,1
 692 785 692 785 679 801 c 128,-1,2
 666 817 666 817 623 823 c 1,3,-1
 623 872 l 1,4,-1
 909 872 l 1,5,-1
 909 823 l 1,6,7
 871 817 871 817 859.5 804 c 128,-1,8
 848 791 848 791 848 754 c 2,9,-1
 848 496 l 1,10,-1
 1184 774 l 2,11,12
 1196 780 1196 780 1196 791 c 256,13,14
 1196 802 1196 802 1174.5 812.5 c 128,-1,15
 1153 823 1153 823 1139 823 c 1,16,-1
 1139 872 l 1,17,-1
 1458 872 l 1,18,-1
 1458 823 l 1,19,-1
 1454 823 l 2,20,21
 1439 823 1439 823 1427.5 818 c 128,-1,22
 1416 813 1416 813 1405.5 805.5 c 128,-1,23
 1395 798 1395 798 1384 791 c 2,24,-1
 1098 569 l 1,25,-1
 1421 106 l 2,26,27
 1450 62 1450 62 1503 49 c 1,28,-1
 1503 0 l 1,29,-1
 1184 0 l 1,30,-1
 1184 49 l 1,31,32
 1204 49 1204 49 1224.5 57 c 128,-1,33
 1245 65 1245 65 1245 82 c 0,34,35
 1245 90 1245 90 1237 98 c 2,36,-1
 987 479 l 1,37,-1
 848 373 l 1,38,-1
 848 123 l 2,39,40
 848 84 848 84 859.5 69.5 c 128,-1,41
 871 55 871 55 909 49 c 1,42,-1
 909 0 l 1,43,-1
 627 0 l 1,44,-1
 627 49 l 1,45,46
 665 52 665 52 678.5 67.5 c 128,-1,47
 692 83 692 83 692 123 c 2,48,-1
 692 373 l 1,49,-1
 553 479 l 1,50,-1
 303 98 l 2,51,52
 295 90 295 90 295 82 c 0,53,54
 295 65 295 65 315.5 57 c 128,-1,55
 336 49 336 49 356 49 c 1,56,-1
 356 0 l 1,57,-1
 37 0 l 1,58,-1
 37 49 l 1,59,60
 89 60 89 60 119 106 c 2,61,-1
 442 569 l 1,62,-1
 156 791 l 2,63,64
 127 810 127 810 116 816.5 c 128,-1,65
 105 823 105 823 86 823 c 2,66,-1
 82 823 l 1,67,-1
 82 872 l 1,68,-1
 401 872 l 1,69,-1
 401 823 l 1,70,71
 388 823 388 823 366 812.5 c 128,-1,72
 344 802 344 802 344 791 c 0,73,74
 344 786 344 786 356 774 c 2,75,-1
 692 496 l 1,76,-1
 692 741 l 2,0,1
EndSplineSet
Validated: 1
EndChar

StartChar: ccedilla
Encoding: 440 1079 164
AltUni2: 0000e7.ffffffff.0
Width: 872
Flags: W
LayerCount: 2
Fore
SplineSet
438 897 m 0,0,1
 593 897 593 897 689.5 839 c 128,-1,2
 786 781 786 781 786 684 c 0,3,4
 786 619 786 619 751.5 567.5 c 128,-1,5
 717 516 717 516 664 492 c 1,6,7
 739 474 739 474 783 420.5 c 128,-1,8
 827 367 827 367 827 291 c 0,9,10
 827 202 827 202 767 128.5 c 128,-1,11
 707 55 707 55 612 13 c 128,-1,12
 517 -29 517 -29 418 -29 c 0,13,14
 296 -29 296 -29 139 41 c 1,15,-1
 139 217 l 1,16,-1
 184 217 l 1,17,18
 184 156 184 156 249 121 c 128,-1,19
 314 86 314 86 418 86 c 0,20,21
 486 86 486 86 544.5 110.5 c 128,-1,22
 603 135 603 135 639.5 179.5 c 128,-1,23
 676 224 676 224 676 283 c 0,24,25
 676 362 676 362 628 392 c 128,-1,26
 580 422 580 422 520 422 c 2,27,-1
 438 422 l 1,28,-1
 438 528 l 1,29,-1
 500 528 l 2,30,31
 545 528 545 528 592 572 c 128,-1,32
 639 616 639 616 639 672 c 0,33,34
 639 739 639 739 584 769 c 128,-1,35
 529 799 529 799 442 799 c 0,36,37
 349 799 349 799 279 761 c 128,-1,38
 209 723 209 723 209 668 c 0,39,40
 209 663 209 663 211 654 c 128,-1,41
 213 645 213 645 213 639 c 1,42,-1
 168 618 l 1,43,-1
 98 795 l 1,44,45
 238 897 238 897 438 897 c 0,0,1
EndSplineSet
Validated: 1
EndChar

StartChar: egrave
Encoding: 441 1080 165
AltUni2: 0000e8.ffffffff.0
Width: 1053
Flags: W
LayerCount: 2
Fore
SplineSet
930 872 m 1,0,-1
 930 127 l 2,1,2
 930 84 930 84 945.5 68 c 128,-1,3
 961 52 961 52 1004 49 c 1,4,-1
 1004 0 l 1,5,-1
 774 0 l 1,6,-1
 774 94 l 1,7,8
 619 -25 619 -25 479 -25 c 0,9,10
 458 -25 458 -25 393 -16 c 1,11,12
 271 10 271 10 213.5 96.5 c 128,-1,13
 156 183 156 183 156 311 c 2,14,-1
 156 750 l 2,15,16
 156 789 156 789 142 803 c 128,-1,17
 128 817 128 817 90 823 c 1,18,-1
 90 872 l 1,19,-1
 311 872 l 1,20,-1
 311 348 l 2,21,22
 311 258 311 258 331.5 201 c 128,-1,23
 352 144 352 144 422 115 c 0,24,25
 469 94 469 94 512 94 c 0,26,27
 629 94 629 94 774 229 c 1,28,-1
 774 750 l 2,29,30
 774 789 774 789 760.5 803 c 128,-1,31
 747 817 747 817 709 823 c 1,32,-1
 709 872 l 1,33,-1
 930 872 l 1,0,-1
EndSplineSet
Validated: 1
EndChar

StartChar: eacute
Encoding: 442 1081 166
AltUni2: 0000e9.ffffffff.0
Width: 1053
Flags: W
LayerCount: 2
Fore
SplineSet
930 872 m 1,0,-1
 930 127 l 2,1,2
 930 84 930 84 945.5 68 c 128,-1,3
 961 52 961 52 1004 49 c 1,4,-1
 1004 0 l 1,5,-1
 774 0 l 1,6,-1
 774 94 l 1,7,8
 619 -25 619 -25 479 -25 c 0,9,10
 458 -25 458 -25 393 -16 c 1,11,12
 271 10 271 10 213.5 96.5 c 128,-1,13
 156 183 156 183 156 311 c 2,14,-1
 156 750 l 2,15,16
 156 789 156 789 142 803 c 128,-1,17
 128 817 128 817 90 823 c 1,18,-1
 90 872 l 1,19,-1
 311 872 l 1,20,-1
 311 348 l 2,21,22
 311 258 311 258 331.5 201 c 128,-1,23
 352 144 352 144 422 115 c 0,24,25
 469 94 469 94 512 94 c 0,26,27
 629 94 629 94 774 229 c 1,28,-1
 774 750 l 2,29,30
 774 789 774 789 760.5 803 c 128,-1,31
 747 817 747 817 709 823 c 1,32,-1
 709 872 l 1,33,-1
 930 872 l 1,0,-1
315 1081 m 1,34,-1
 385 1237 l 1,35,-1
 434 1229 l 1,36,37
 434 1192 434 1192 463 1165.5 c 128,-1,38
 492 1139 492 1139 532 1139 c 0,39,40
 578 1139 578 1139 621.5 1180 c 128,-1,41
 665 1221 665 1221 684 1266 c 1,42,-1
 766 1237 l 1,43,44
 752 1196 752 1196 726 1155.5 c 128,-1,45
 700 1115 700 1115 672 1094 c 0,46,47
 582 1032 582 1032 483 1032 c 0,48,49
 404 1032 404 1032 315 1081 c 1,34,-1
EndSplineSet
Validated: 1
EndChar

StartChar: ecircumflex
Encoding: 443 1082 167
AltUni2: 0000ea.ffffffff.0
Width: 1032
Flags: W
LayerCount: 2
Fore
SplineSet
328 754 m 2,0,-1
 328 496 l 1,1,-1
 664 774 l 2,2,3
 676 780 676 780 676 791 c 256,4,5
 676 802 676 802 654.5 812.5 c 128,-1,6
 633 823 633 823 618 823 c 1,7,-1
 618 872 l 1,8,-1
 938 872 l 1,9,-1
 938 823 l 1,10,-1
 934 823 l 2,11,12
 919 823 919 823 907.5 818 c 128,-1,13
 896 813 896 813 885.5 805.5 c 128,-1,14
 875 798 875 798 864 791 c 2,15,-1
 578 569 l 1,16,-1
 901 106 l 2,17,18
 930 62 930 62 983 49 c 1,19,-1
 983 0 l 1,20,-1
 664 0 l 1,21,-1
 664 49 l 1,22,23
 684 49 684 49 704.5 57 c 128,-1,24
 725 65 725 65 725 82 c 0,25,26
 725 90 725 90 717 98 c 2,27,-1
 467 479 l 1,28,-1
 328 373 l 1,29,-1
 328 123 l 2,30,31
 328 84 328 84 339.5 69.5 c 128,-1,32
 351 55 351 55 389 49 c 1,33,-1
 389 0 l 1,34,-1
 106 0 l 1,35,-1
 106 49 l 1,36,37
 143 52 143 52 157.5 68 c 128,-1,38
 172 84 172 84 172 123 c 2,39,-1
 172 741 l 2,40,41
 172 785 172 785 159 801 c 128,-1,42
 146 817 146 817 102 823 c 1,43,-1
 102 872 l 1,44,-1
 389 872 l 1,45,-1
 389 823 l 1,46,47
 351 817 351 817 339.5 804 c 128,-1,48
 328 791 328 791 328 754 c 2,0,-1
EndSplineSet
Validated: 1
EndChar

StartChar: edieresis
Encoding: 444 1083 168
AltUni2: 0000eb.ffffffff.0
Width: 971
Flags: W
LayerCount: 2
Fore
SplineSet
434 872 m 1,0,-1
 553 872 l 1,1,-1
 848 115 l 2,2,3
 858 84 858 84 873.5 68 c 128,-1,4
 889 52 889 52 918 49 c 1,5,-1
 918 0 l 1,6,-1
 647 0 l 1,7,-1
 647 49 l 1,8,-1
 651 49 l 2,9,10
 670 49 670 49 681 57 c 128,-1,11
 692 65 692 65 692 78 c 0,12,13
 692 94 692 94 688 102 c 2,14,-1
 475 659 l 1,15,-1
 266 119 l 2,16,17
 258 103 258 103 258 90 c 0,18,19
 258 73 258 73 278 61 c 128,-1,20
 298 49 298 49 324 49 c 1,21,-1
 324 0 l 1,22,-1
 70 0 l 1,23,-1
 70 49 l 1,24,25
 99 49 99 49 111.5 63.5 c 128,-1,26
 124 78 124 78 135 111 c 2,27,-1
 434 872 l 1,0,-1
EndSplineSet
Validated: 1
EndChar

StartChar: igrave
Encoding: 445 1084 169
AltUni2: 0000ec.ffffffff.0
Width: 1319
Flags: W
LayerCount: 2
Fore
SplineSet
233 127 m 2,0,1
 233 123 233 123 231 113 c 128,-1,2
 229 103 229 103 229 102 c 0,3,4
 229 55 229 55 283 49 c 1,5,-1
 283 0 l 1,6,-1
 33 0 l 1,7,-1
 33 49 l 1,8,9
 69 52 69 52 80.5 66 c 128,-1,10
 92 80 92 80 102 123 c 2,11,-1
 262 795 l 1,12,-1
 262 799 l 2,13,14
 262 831 262 831 221 831 c 1,15,-1
 221 868 l 1,16,-1
 422 872 l 1,17,-1
 664 373 l 1,18,-1
 897 872 l 1,19,-1
 1102 868 l 1,20,-1
 1102 831 l 1,21,22
 1081 831 1081 831 1069 821 c 128,-1,23
 1057 811 1057 811 1057 795 c 1,24,25
 1061 795 1061 795 1061 778 c 2,26,-1
 1204 123 l 2,27,28
 1216 80 1216 80 1227.5 66 c 128,-1,29
 1239 52 1239 52 1274 49 c 1,30,-1
 1274 0 l 1,31,-1
 1008 0 l 1,32,-1
 1008 45 l 1,33,34
 1053 51 1053 51 1053 78 c 0,35,36
 1053 81 1053 81 1051 92 c 128,-1,37
 1049 103 1049 103 1049 111 c 2,38,-1
 930 700 l 1,39,-1
 676 147 l 1,40,-1
 606 147 l 1,41,-1
 352 672 l 1,42,-1
 233 127 l 2,0,1
EndSplineSet
Validated: 1
EndChar

StartChar: iacute
Encoding: 446 1085 170
AltUni2: 0000ed.ffffffff.0
Width: 1073
Flags: W
LayerCount: 2
Fore
SplineSet
946 123 m 2,0,1
 946 96 946 96 952 80 c 128,-1,2
 958 64 958 64 975 57 c 128,-1,3
 992 50 992 50 1016 49 c 1,4,-1
 1016 0 l 1,5,-1
 729 0 l 1,6,-1
 729 49 l 1,7,8
 764 55 764 55 779.5 71 c 128,-1,9
 795 87 795 87 795 123 c 2,10,-1
 795 401 l 1,11,-1
 332 401 l 1,12,-1
 332 123 l 2,13,14
 332 84 332 84 345 69.5 c 128,-1,15
 358 55 358 55 397 49 c 1,16,-1
 397 0 l 1,17,-1
 111 0 l 1,18,-1
 111 49 l 1,19,20
 147 52 147 52 161.5 68 c 128,-1,21
 176 84 176 84 176 123 c 2,22,-1
 176 745 l 2,23,24
 176 788 176 788 161.5 802.5 c 128,-1,25
 147 817 147 817 102 823 c 1,26,-1
 102 872 l 1,27,-1
 397 872 l 1,28,-1
 397 823 l 1,29,30
 358 817 358 817 345 803 c 128,-1,31
 332 789 332 789 332 750 c 2,32,-1
 332 508 l 1,33,-1
 795 508 l 1,34,-1
 795 750 l 2,35,36
 795 786 795 786 779.5 801.5 c 128,-1,37
 764 817 764 817 729 823 c 1,38,-1
 729 872 l 1,39,-1
 1016 872 l 1,40,-1
 1016 823 l 1,41,42
 984 818 984 818 971 812 c 128,-1,43
 958 806 958 806 952 791.5 c 128,-1,44
 946 777 946 777 946 750 c 2,45,-1
 946 123 l 2,0,1
EndSplineSet
Validated: 1
EndChar

StartChar: icircumflex
Encoding: 447 1086 171
AltUni2: 0000ee.ffffffff.0
Width: 1053
Flags: W
LayerCount: 2
Fore
SplineSet
1012 434 m 0,0,1
 1012 312 1012 312 950.5 201 c 128,-1,2
 889 90 889 90 783 22.5 c 128,-1,3
 677 -45 677 -45 553 -45 c 0,4,5
 431 -45 431 -45 325.5 23 c 128,-1,6
 220 91 220 91 159 201.5 c 128,-1,7
 98 312 98 312 98 434 c 0,8,9
 98 528 98 528 132 612 c 128,-1,10
 166 696 166 696 228 762.5 c 128,-1,11
 290 829 290 829 374 867 c 128,-1,12
 458 905 458 905 549 905 c 0,13,14
 675 905 675 905 780.5 841.5 c 128,-1,15
 886 778 886 778 949 669 c 128,-1,16
 1012 560 1012 560 1012 434 c 0,0,1
553 803 m 0,17,18
 413 803 413 803 339.5 697.5 c 128,-1,19
 266 592 266 592 266 434 c 0,20,21
 266 278 266 278 334 169.5 c 128,-1,22
 402 61 402 61 549 61 c 0,23,24
 695 61 695 61 771.5 171 c 128,-1,25
 848 281 848 281 848 434 c 0,26,27
 848 518 848 518 815.5 603.5 c 128,-1,28
 783 689 783 689 716 746 c 128,-1,29
 649 803 649 803 553 803 c 0,17,18
EndSplineSet
Validated: 1
EndChar

StartChar: idieresis
Encoding: 448 1087 172
AltUni2: 0000ef.ffffffff.0
Width: 1073
Flags: W
LayerCount: 2
Fore
SplineSet
111 0 m 1,0,-1
 111 49 l 1,1,2
 147 52 147 52 161.5 68 c 128,-1,3
 176 84 176 84 176 123 c 2,4,-1
 176 745 l 2,5,6
 176 788 176 788 161.5 802.5 c 128,-1,7
 147 817 147 817 102 823 c 1,8,-1
 102 872 l 1,9,-1
 332 872 l 1,10,-1
 332 774 l 1,11,12
 475 897 475 897 631 897 c 0,13,14
 719 897 719 897 795 856 c 0,15,16
 946 783 946 783 946 557 c 2,17,-1
 946 123 l 2,18,19
 946 96 946 96 952 80 c 128,-1,20
 958 64 958 64 975 57 c 128,-1,21
 992 50 992 50 1016 49 c 1,22,-1
 1016 0 l 1,23,-1
 729 0 l 1,24,-1
 729 49 l 1,25,26
 764 55 764 55 779.5 71 c 128,-1,27
 795 87 795 87 795 123 c 2,28,-1
 795 500 l 2,29,30
 795 617 795 617 749 695.5 c 128,-1,31
 703 774 703 774 594 774 c 0,32,33
 516 774 516 774 458.5 741 c 128,-1,34
 401 708 401 708 332 643 c 1,35,-1
 332 123 l 2,36,37
 332 84 332 84 345 69.5 c 128,-1,38
 358 55 358 55 397 49 c 1,39,-1
 397 0 l 1,40,-1
 111 0 l 1,0,-1
EndSplineSet
Validated: 1
EndChar

StartChar: eth
Encoding: 449 1088 173
AltUni2: 0000f0.ffffffff.0
Width: 1032
Flags: W
LayerCount: 2
Fore
SplineSet
94 -410 m 1,0,-1
 94 -360 l 1,1,2
 135 -354 135 -354 149.5 -340 c 128,-1,3
 164 -326 164 -326 164 -287 c 2,4,-1
 164 741 l 2,5,6
 164 787 164 787 149 802 c 128,-1,7
 134 817 134 817 90 823 c 1,8,-1
 90 868 l 1,9,-1
 315 868 l 1,10,-1
 315 778 l 1,11,12
 393 838 393 838 458 865.5 c 128,-1,13
 523 893 523 893 606 893 c 2,14,-1
 659 893 l 1,15,16
 757 881 757 881 832.5 824 c 128,-1,17
 908 767 908 767 949.5 679.5 c 128,-1,18
 991 592 991 592 991 492 c 0,19,20
 991 402 991 402 963.5 323 c 128,-1,21
 936 244 936 244 882.5 179.5 c 128,-1,22
 829 115 829 115 754 70 c 0,23,24
 684 29 684 29 598 14.5 c 128,-1,25
 512 0 512 0 401 0 c 2,26,-1
 315 0 l 1,27,-1
 315 -287 l 2,28,29
 315 -326 315 -326 329.5 -340 c 128,-1,30
 344 -354 344 -354 385 -360 c 1,31,-1
 385 -410 l 1,32,-1
 94 -410 l 1,0,-1
315 647 m 1,33,-1
 315 111 l 1,34,35
 340 111 340 111 370 108.5 c 128,-1,36
 400 106 400 106 414 106 c 0,37,38
 557 106 557 106 655 164 c 0,39,40
 739 212 739 212 783 296 c 128,-1,41
 827 380 827 380 827 479 c 0,42,43
 827 574 827 574 780 655.5 c 128,-1,44
 733 737 733 737 647 766 c 0,45,46
 604 778 604 778 569 778 c 0,47,48
 504 778 504 778 444 743.5 c 128,-1,49
 384 709 384 709 315 647 c 1,33,-1
EndSplineSet
Validated: 1
EndChar

StartChar: ntilde
Encoding: 450 1089 174
AltUni2: 0000f1.ffffffff.0
Width: 971
Flags: W
LayerCount: 2
Fore
SplineSet
852 -4 m 1,0,1
 752 -25 752 -25 676 -25 c 0,2,3
 542 -25 542 -25 438 20 c 1,4,5
 297 74 297 74 204 197 c 128,-1,6
 111 320 111 320 111 467 c 0,7,8
 111 513 111 513 123 557 c 0,9,10
 141 633 141 633 180 694.5 c 128,-1,11
 219 756 219 756 275.5 800.5 c 128,-1,12
 332 845 332 845 400 869 c 128,-1,13
 468 893 468 893 545 893 c 0,14,15
 757 893 757 893 930 745 c 1,16,-1
 795 594 l 1,17,-1
 754 627 l 1,18,19
 774 660 774 660 774 684 c 0,20,21
 774 734 774 734 672 770 c 1,22,23
 623 782 623 782 573 782 c 0,24,25
 469 782 469 782 389.5 720 c 128,-1,26
 310 658 310 658 287 553 c 0,27,28
 285 536 285 536 279.5 509.5 c 128,-1,29
 274 483 274 483 274 463 c 0,30,31
 274 350 274 350 336.5 263.5 c 128,-1,32
 399 177 399 177 490.5 131.5 c 128,-1,33
 582 86 582 86 664 86 c 0,34,35
 718 86 718 86 756.5 107.5 c 128,-1,36
 795 129 795 129 807 172 c 1,37,-1
 852 172 l 1,38,-1
 852 -4 l 1,0,1
EndSplineSet
Validated: 1
EndChar

StartChar: ograve
Encoding: 451 1090 175
AltUni2: 0000f2.ffffffff.0
Width: 1642
Flags: W
LayerCount: 2
Fore
SplineSet
111 0 m 1,0,-1
 111 49 l 1,1,2
 147 52 147 52 161.5 68 c 128,-1,3
 176 84 176 84 176 123 c 2,4,-1
 176 745 l 2,5,6
 176 788 176 788 161.5 802.5 c 128,-1,7
 147 817 147 817 102 823 c 1,8,-1
 102 872 l 1,9,-1
 328 872 l 1,10,-1
 332 774 l 1,11,12
 471 893 471 893 614 893 c 0,13,14
 800 893 800 893 897 741 c 1,15,16
 1047 893 1047 893 1217 893 c 0,17,18
 1282 893 1282 893 1331 877 c 1,19,20
 1422 856 1422 856 1479 779.5 c 128,-1,21
 1536 703 1536 703 1536 606 c 2,22,-1
 1536 123 l 2,23,24
 1536 84 1536 84 1551.5 68 c 128,-1,25
 1567 52 1567 52 1602 49 c 1,26,-1
 1602 0 l 1,27,-1
 1315 0 l 1,28,-1
 1315 49 l 1,29,30
 1356 55 1356 55 1368 69 c 128,-1,31
 1380 83 1380 83 1380 123 c 2,32,-1
 1380 565 l 2,33,34
 1380 627 1380 627 1368.5 667 c 128,-1,35
 1357 707 1357 707 1315 737 c 1,36,37
 1250 774 1250 774 1188 774 c 0,38,39
 1150 774 1150 774 1106.5 758.5 c 128,-1,40
 1063 743 1063 743 1028 717 c 0,41,42
 999 699 999 699 966.5 661.5 c 128,-1,43
 934 624 934 624 934 598 c 2,44,-1
 934 123 l 2,45,46
 934 86 934 86 947.5 69 c 128,-1,47
 961 52 961 52 995 49 c 1,48,-1
 995 0 l 1,49,-1
 713 0 l 1,50,-1
 713 49 l 1,51,52
 749 52 749 52 761.5 68.5 c 128,-1,53
 774 85 774 85 774 123 c 2,54,-1
 774 565 l 2,55,56
 774 625 774 625 750 673 c 128,-1,57
 726 721 726 721 682 747.5 c 128,-1,58
 638 774 638 774 578 774 c 0,59,60
 465 774 465 774 332 647 c 1,61,-1
 332 123 l 2,62,63
 332 86 332 86 345.5 69 c 128,-1,64
 359 52 359 52 393 49 c 1,65,-1
 393 0 l 1,66,-1
 111 0 l 1,0,-1
EndSplineSet
Validated: 1
EndChar

StartChar: oacute
Encoding: 452 1091 176
AltUni2: 0000f3.ffffffff.0
Width: 950
Flags: W
LayerCount: 2
Fore
SplineSet
500 -119 m 2,0,1
 448 -255 448 -255 360 -332.5 c 128,-1,2
 272 -410 272 -410 152 -410 c 0,3,4
 106 -410 106 -410 53 -397 c 1,5,-1
 53 -221 l 1,6,-1
 102 -221 l 1,7,8
 115 -291 115 -291 180 -291 c 0,9,10
 236 -291 236 -291 279 -254 c 0,11,12
 316 -227 316 -227 358.5 -153.5 c 128,-1,13
 401 -80 401 -80 401 -29 c 0,14,15
 401 -16 401 -16 393 8 c 2,16,-1
 94 758 l 2,17,18
 80 791 80 791 67.5 805.5 c 128,-1,19
 55 820 55 820 29 823 c 1,20,-1
 29 872 l 1,21,-1
 299 872 l 1,22,-1
 299 823 l 1,23,24
 254 816 254 816 254 791 c 0,25,26
 254 778 254 778 262 770 c 1,27,-1
 492 180 l 1,28,-1
 700 754 l 2,29,30
 705 762 705 762 705 774 c 0,31,32
 705 816 705 816 655 823 c 1,33,-1
 655 872 l 1,34,-1
 893 872 l 1,35,-1
 893 823 l 1,36,37
 851 813 851 813 831 762 c 2,38,-1
 500 -119 l 2,0,1
EndSplineSet
Validated: 1
EndChar

StartChar: ocircumflex
Encoding: 453 1092 177
AltUni2: 0000f4.ffffffff.0
Width: 1458
Flags: W
LayerCount: 2
Fore
SplineSet
676 0 m 1,0,1
 468 0 468 0 339 69.5 c 128,-1,2
 210 139 210 139 156 247.5 c 128,-1,3
 102 356 102 356 102 483 c 0,4,5
 102 572 102 572 130.5 649.5 c 128,-1,6
 159 727 159 727 210 780.5 c 128,-1,7
 261 834 261 834 328.5 863.5 c 128,-1,8
 396 893 396 893 471 893 c 0,9,10
 538 893 538 893 583 875 c 128,-1,11
 628 857 628 857 676 823 c 1,12,-1
 676 1180 l 2,13,14
 676 1221 676 1221 660.5 1234 c 128,-1,15
 645 1247 645 1247 602 1253 c 1,16,-1
 602 1298 l 1,17,-1
 831 1298 l 1,18,-1
 831 823 l 1,19,20
 879 857 879 857 924 875 c 128,-1,21
 969 893 969 893 1036 893 c 0,22,23
 1112 893 1112 893 1180 863.5 c 128,-1,24
 1248 834 1248 834 1297.5 782 c 128,-1,25
 1347 730 1347 730 1376 653.5 c 128,-1,26
 1405 577 1405 577 1405 483 c 0,27,28
 1405 356 1405 356 1351 247.5 c 128,-1,29
 1297 139 1297 139 1168 69.5 c 128,-1,30
 1039 0 1039 0 831 0 c 1,31,-1
 831 -287 l 2,32,33
 831 -326 831 -326 844.5 -340 c 128,-1,34
 858 -354 858 -354 897 -360 c 1,35,-1
 897 -410 l 1,36,-1
 610 -410 l 1,37,-1
 610 -360 l 1,38,39
 640 -354 640 -354 652 -348.5 c 128,-1,40
 664 -343 664 -343 670 -328.5 c 128,-1,41
 676 -314 676 -314 676 -287 c 2,42,-1
 676 0 l 1,0,1
831 102 m 1,43,44
 925 102 925 102 1000.5 130.5 c 128,-1,45
 1076 159 1076 159 1129.5 211 c 128,-1,46
 1183 263 1183 263 1212 335.5 c 128,-1,47
 1241 408 1241 408 1241 492 c 0,48,49
 1241 569 1241 569 1212 634.5 c 128,-1,50
 1183 700 1183 700 1132.5 739 c 128,-1,51
 1082 778 1082 778 1024 778 c 0,52,53
 912 778 912 778 831 705 c 1,54,-1
 831 102 l 1,43,44
676 102 m 1,55,-1
 676 705 l 1,56,57
 597 778 597 778 483 778 c 0,58,59
 425 778 425 778 374.5 739 c 128,-1,60
 324 700 324 700 295 634.5 c 128,-1,61
 266 569 266 569 266 492 c 0,62,63
 266 321 266 321 379 211.5 c 128,-1,64
 492 102 492 102 676 102 c 1,55,-1
EndSplineSet
Validated: 1
EndChar

StartChar: otilde
Encoding: 454 1093 178
AltUni2: 0000f5.ffffffff.0
Width: 930
Flags: W
LayerCount: 2
Fore
SplineSet
303 0 m 1,0,-1
 33 0 l 1,1,-1
 33 49 l 1,2,3
 77 55 77 55 106 90 c 2,4,-1
 369 471 l 1,5,-1
 152 782 l 2,6,7
 126 817 126 817 74 823 c 1,8,-1
 74 872 l 1,9,-1
 381 872 l 1,10,-1
 381 823 l 1,11,12
 363 823 363 823 347.5 815 c 128,-1,13
 332 807 332 807 332 795 c 0,14,15
 332 790 332 790 340 774 c 2,16,-1
 487 561 l 1,17,-1
 623 762 l 1,18,19
 631 786 631 786 631 786 c 1,20,21
 631 801 631 801 616.5 810.5 c 128,-1,22
 602 820 602 820 582 823 c 1,23,-1
 582 872 l 1,24,-1
 852 872 l 1,25,-1
 852 823 l 1,26,27
 800 823 800 823 766 774 c 2,28,-1
 553 463 l 1,29,-1
 807 98 l 2,30,31
 838 55 838 55 885 49 c 1,32,-1
 885 0 l 1,33,-1
 573 0 l 1,34,-1
 573 49 l 1,35,36
 635 49 635 49 635 78 c 0,37,38
 635 90 635 90 631 94 c 2,39,-1
 434 373 l 1,40,-1
 254 98 l 2,41,42
 254 96 254 96 252 90 c 128,-1,43
 250 84 250 84 250 82 c 0,44,45
 250 67 250 67 269 58 c 128,-1,46
 288 49 288 49 303 49 c 1,47,-1
 303 0 l 1,0,-1
EndSplineSet
Validated: 1
EndChar

StartChar: odieresis
Encoding: 455 1094 179
AltUni2: 0000f6.ffffffff.0
Width: 1073
Flags: W
LayerCount: 2
Fore
SplineSet
930 872 m 1,0,-1
 930 111 l 1,1,-1
 1024 111 l 1,2,-1
 1024 -102 l 1,3,-1
 975 -102 l 1,4,5
 957 0 957 0 848 0 c 2,6,-1
 774 0 l 1,7,-1
 774 94 l 1,8,9
 619 -25 619 -25 479 -25 c 0,10,11
 458 -25 458 -25 393 -16 c 1,12,13
 271 10 271 10 213.5 96.5 c 128,-1,14
 156 183 156 183 156 311 c 2,15,-1
 156 750 l 2,16,17
 156 789 156 789 142 803 c 128,-1,18
 128 817 128 817 90 823 c 1,19,-1
 90 872 l 1,20,-1
 311 872 l 1,21,-1
 311 348 l 2,22,23
 311 258 311 258 331.5 201 c 128,-1,24
 352 144 352 144 422 115 c 0,25,26
 469 94 469 94 512 94 c 0,27,28
 629 94 629 94 774 229 c 1,29,-1
 774 750 l 2,30,31
 774 789 774 789 760.5 803 c 128,-1,32
 747 817 747 817 709 823 c 1,33,-1
 709 872 l 1,34,-1
 930 872 l 1,0,-1
EndSplineSet
Validated: 1
EndChar

StartChar: divide
Encoding: 456 1095 180
AltUni2: 0000f7.ffffffff.0
Width: 1012
Flags: W
LayerCount: 2
Fore
SplineSet
745 549 m 1,0,-1
 745 750 l 2,1,2
 745 787 745 787 731 802 c 128,-1,3
 717 817 717 817 680 823 c 1,4,-1
 680 872 l 1,5,-1
 971 872 l 1,6,-1
 971 823 l 1,7,8
 939 818 939 818 926 812 c 128,-1,9
 913 806 913 806 907 791.5 c 128,-1,10
 901 777 901 777 901 750 c 2,11,-1
 901 123 l 2,12,13
 901 96 901 96 907 80 c 128,-1,14
 913 64 913 64 930 57 c 128,-1,15
 947 50 947 50 971 49 c 1,16,-1
 971 0 l 1,17,-1
 680 0 l 1,18,-1
 680 49 l 1,19,20
 718 55 718 55 731.5 70.5 c 128,-1,21
 745 86 745 86 745 123 c 2,22,-1
 745 438 l 1,23,24
 663 389 663 389 596 366.5 c 128,-1,25
 529 344 529 344 463 344 c 0,26,27
 391 344 391 344 323.5 377 c 128,-1,28
 256 410 256 410 216 467 c 128,-1,29
 176 524 176 524 176 594 c 2,30,-1
 176 745 l 2,31,32
 176 788 176 788 161.5 802.5 c 128,-1,33
 147 817 147 817 102 823 c 1,34,-1
 102 872 l 1,35,-1
 397 872 l 1,36,-1
 397 823 l 1,37,38
 358 817 358 817 345 803 c 128,-1,39
 332 789 332 789 332 750 c 2,40,-1
 332 606 l 2,41,42
 332 543 332 543 383.5 499 c 128,-1,43
 435 455 435 455 504 455 c 0,44,45
 640 455 640 455 745 549 c 1,0,-1
EndSplineSet
Validated: 1
EndChar

StartChar: oslash
Encoding: 457 1096 181
AltUni2: 0000f8.ffffffff.0
Width: 1663
Flags: W
LayerCount: 2
Fore
SplineSet
1602 872 m 1,0,-1
 1602 823 l 1,1,2
 1567 817 1567 817 1551.5 801.5 c 128,-1,3
 1536 786 1536 786 1536 750 c 2,4,-1
 1536 127 l 2,5,6
 1536 85 1536 85 1551 70 c 128,-1,7
 1566 55 1566 55 1610 49 c 1,8,-1
 1610 0 l 1,9,-1
 1384 0 l 1,10,-1
 1380 98 l 1,11,12
 1234 -25 1234 -25 1090 -25 c 0,13,14
 998 -25 998 -25 932 13.5 c 128,-1,15
 866 52 866 52 815 131 c 1,16,17
 659 -25 659 -25 492 -25 c 0,18,19
 460 -25 460 -25 381 -8 c 1,20,21
 287 18 287 18 231.5 93.5 c 128,-1,22
 176 169 176 169 176 266 c 2,23,-1
 176 750 l 2,24,25
 176 786 176 786 161.5 801.5 c 128,-1,26
 147 817 147 817 111 823 c 1,27,-1
 111 872 l 1,28,-1
 393 872 l 1,29,-1
 393 823 l 1,30,31
 355 817 355 817 343.5 803.5 c 128,-1,32
 332 790 332 790 332 750 c 2,33,-1
 332 307 l 2,34,35
 332 245 332 245 343.5 205 c 128,-1,36
 355 165 355 165 397 135 c 0,37,38
 454 98 454 98 520 98 c 0,39,40
 558 98 558 98 603 114 c 128,-1,41
 648 130 648 130 684 156 c 0,42,43
 714 176 714 176 746 210.5 c 128,-1,44
 778 245 778 245 778 270 c 2,45,-1
 778 750 l 2,46,47
 778 785 778 785 764.5 801 c 128,-1,48
 751 817 751 817 717 823 c 1,49,-1
 717 872 l 1,50,-1
 995 872 l 1,51,-1
 995 823 l 1,52,53
 961 817 961 817 947.5 801 c 128,-1,54
 934 785 934 785 934 750 c 2,55,-1
 934 307 l 2,56,57
 934 211 934 211 983 154.5 c 128,-1,58
 1032 98 1032 98 1122 98 c 0,59,60
 1245 98 1245 98 1380 225 c 1,61,-1
 1380 750 l 2,62,63
 1380 787 1380 787 1366 802 c 128,-1,64
 1352 817 1352 817 1315 823 c 1,65,-1
 1315 872 l 1,66,-1
 1602 872 l 1,0,-1
EndSplineSet
Validated: 1
EndChar

StartChar: ugrave
Encoding: 458 1097 182
AltUni2: 0000f9.ffffffff.0
Width: 1683
Flags: W
LayerCount: 2
Fore
SplineSet
1602 872 m 1,0,-1
 1602 823 l 1,1,2
 1567 817 1567 817 1551.5 801.5 c 128,-1,3
 1536 786 1536 786 1536 750 c 2,4,-1
 1536 111 l 1,5,-1
 1634 111 l 1,6,-1
 1634 -102 l 1,7,-1
 1585 -102 l 1,8,9
 1567 0 1567 0 1458 0 c 2,10,-1
 1384 0 l 1,11,-1
 1380 98 l 1,12,13
 1234 -25 1234 -25 1090 -25 c 0,14,15
 998 -25 998 -25 932 13.5 c 128,-1,16
 866 52 866 52 815 131 c 1,17,18
 659 -25 659 -25 492 -25 c 0,19,20
 460 -25 460 -25 381 -8 c 1,21,22
 287 18 287 18 231.5 93.5 c 128,-1,23
 176 169 176 169 176 266 c 2,24,-1
 176 750 l 2,25,26
 176 786 176 786 161.5 801.5 c 128,-1,27
 147 817 147 817 111 823 c 1,28,-1
 111 872 l 1,29,-1
 393 872 l 1,30,-1
 393 823 l 1,31,32
 355 817 355 817 343.5 803.5 c 128,-1,33
 332 790 332 790 332 750 c 2,34,-1
 332 307 l 2,35,36
 332 245 332 245 343.5 205 c 128,-1,37
 355 165 355 165 397 135 c 0,38,39
 454 98 454 98 520 98 c 0,40,41
 558 98 558 98 603 114 c 128,-1,42
 648 130 648 130 684 156 c 0,43,44
 714 176 714 176 746 210.5 c 128,-1,45
 778 245 778 245 778 270 c 2,46,-1
 778 750 l 2,47,48
 778 785 778 785 764.5 801 c 128,-1,49
 751 817 751 817 717 823 c 1,50,-1
 717 872 l 1,51,-1
 995 872 l 1,52,-1
 995 823 l 1,53,54
 961 817 961 817 947.5 801 c 128,-1,55
 934 785 934 785 934 750 c 2,56,-1
 934 307 l 2,57,58
 934 211 934 211 983 154.5 c 128,-1,59
 1032 98 1032 98 1122 98 c 0,60,61
 1245 98 1245 98 1380 225 c 1,62,-1
 1380 750 l 2,63,64
 1380 787 1380 787 1366 802 c 128,-1,65
 1352 817 1352 817 1315 823 c 1,66,-1
 1315 872 l 1,67,-1
 1602 872 l 1,0,-1
EndSplineSet
Validated: 1
EndChar

StartChar: uacute
Encoding: 459 1098 183
AltUni2: 0000fa.ffffffff.0
Width: 1257
Flags: W
LayerCount: 2
Fore
SplineSet
659 872 m 1,0,-1
 659 823 l 1,1,2
 623 816 623 816 608.5 801 c 128,-1,3
 594 786 594 786 594 750 c 2,4,-1
 594 532 l 1,5,-1
 827 532 l 2,6,7
 935 532 935 532 1020 503.5 c 128,-1,8
 1105 475 1105 475 1152.5 415.5 c 128,-1,9
 1200 356 1200 356 1200 270 c 0,10,11
 1200 141 1200 141 1093.5 70.5 c 128,-1,12
 987 0 987 0 836 0 c 2,13,-1
 373 0 l 1,14,-1
 373 49 l 1,15,16
 409 52 409 52 423.5 70 c 128,-1,17
 438 88 438 88 438 135 c 2,18,-1
 438 770 l 1,19,-1
 233 770 l 2,20,21
 197 770 197 770 180 747 c 128,-1,22
 163 724 163 724 152 684 c 1,23,-1
 106 684 l 1,24,-1
 106 872 l 1,25,-1
 659 872 l 1,0,-1
836 106 m 2,26,27
 939 106 939 106 996 149 c 128,-1,28
 1053 192 1053 192 1053 270 c 0,29,30
 1053 353 1053 353 992 391.5 c 128,-1,31
 931 430 931 430 823 430 c 2,32,-1
 594 430 l 1,33,-1
 594 106 l 1,34,-1
 836 106 l 2,26,27
EndSplineSet
Validated: 1
EndChar

StartChar: ucircumflex
Encoding: 460 1099 184
AltUni2: 0000fb.ffffffff.0
Width: 1356
Flags: W
LayerCount: 2
Fore
SplineSet
102 872 m 1,0,-1
 393 872 l 1,1,-1
 393 823 l 1,2,3
 358 817 358 817 345 802 c 128,-1,4
 332 787 332 787 332 750 c 2,5,-1
 332 532 l 1,6,-1
 561 532 l 2,7,8
 671 532 671 532 756.5 504 c 128,-1,9
 842 476 842 476 890 416 c 128,-1,10
 938 356 938 356 938 270 c 0,11,12
 938 182 938 182 888 121.5 c 128,-1,13
 838 61 838 61 755.5 30.5 c 128,-1,14
 673 0 673 0 573 0 c 2,15,-1
 111 0 l 1,16,-1
 111 49 l 1,17,18
 145 52 145 52 160.5 70.5 c 128,-1,19
 176 89 176 89 176 135 c 2,20,-1
 176 745 l 1,21,22
 172 782 172 782 158.5 801 c 128,-1,23
 145 820 145 820 102 823 c 1,24,-1
 102 872 l 1,0,-1
332 430 m 1,25,-1
 332 106 l 1,26,-1
 573 106 l 2,27,28
 673 106 673 106 729.5 149 c 128,-1,29
 786 192 786 192 786 270 c 0,30,31
 786 354 786 354 726 392 c 128,-1,32
 666 430 666 430 561 430 c 2,33,-1
 332 430 l 1,25,-1
1094 123 m 2,34,-1
 1094 750 l 2,35,36
 1094 787 1094 787 1079.5 802 c 128,-1,37
 1065 817 1065 817 1028 823 c 1,38,-1
 1028 872 l 1,39,-1
 1315 872 l 1,40,-1
 1315 823 l 1,41,42
 1275 816 1275 816 1262 803.5 c 128,-1,43
 1249 791 1249 791 1249 750 c 2,44,-1
 1249 123 l 2,45,46
 1249 81 1249 81 1263 66.5 c 128,-1,47
 1277 52 1277 52 1315 49 c 1,48,-1
 1315 0 l 1,49,-1
 1028 0 l 1,50,-1
 1028 49 l 1,51,52
 1056 54 1056 54 1068.5 61.5 c 128,-1,53
 1081 69 1081 69 1087.5 84 c 128,-1,54
 1094 99 1094 99 1094 123 c 2,34,-1
EndSplineSet
Validated: 1
EndChar

StartChar: udieresis
Encoding: 461 1100 185
AltUni2: 0000fc.ffffffff.0
Width: 991
Flags: W
LayerCount: 2
Fore
SplineSet
102 872 m 1,0,-1
 393 872 l 1,1,-1
 393 823 l 1,2,3
 358 817 358 817 345 802 c 128,-1,4
 332 787 332 787 332 750 c 2,5,-1
 332 532 l 1,6,-1
 561 532 l 2,7,8
 671 532 671 532 756.5 504 c 128,-1,9
 842 476 842 476 890 416 c 128,-1,10
 938 356 938 356 938 270 c 0,11,12
 938 182 938 182 888 121.5 c 128,-1,13
 838 61 838 61 755.5 30.5 c 128,-1,14
 673 0 673 0 573 0 c 2,15,-1
 111 0 l 1,16,-1
 111 49 l 1,17,18
 145 52 145 52 160.5 70.5 c 128,-1,19
 176 89 176 89 176 135 c 2,20,-1
 176 745 l 1,21,22
 172 782 172 782 158.5 801 c 128,-1,23
 145 820 145 820 102 823 c 1,24,-1
 102 872 l 1,0,-1
332 430 m 1,25,-1
 332 106 l 1,26,-1
 573 106 l 2,27,28
 673 106 673 106 729.5 149 c 128,-1,29
 786 192 786 192 786 270 c 0,30,31
 786 354 786 354 726 392 c 128,-1,32
 666 430 666 430 561 430 c 2,33,-1
 332 430 l 1,25,-1
EndSplineSet
Validated: 1
EndChar

StartChar: yacute
Encoding: 462 1101 186
AltUni2: 0000fd.ffffffff.0
Width: 950
Flags: W
LayerCount: 2
Fore
SplineSet
741 508 m 1,0,1
 733 564 733 564 707 612 c 128,-1,2
 681 660 681 660 638 699.5 c 128,-1,3
 595 739 595 739 545 760.5 c 128,-1,4
 495 782 495 782 446 782 c 0,5,6
 398 782 398 782 348 770 c 1,7,8
 246 734 246 734 246 684 c 0,9,10
 246 660 246 660 266 627 c 1,11,-1
 225 594 l 1,12,-1
 90 745 l 1,13,14
 263 893 263 893 475 893 c 0,15,16
 551 893 551 893 620 868.5 c 128,-1,17
 689 844 689 844 745 800.5 c 128,-1,18
 801 757 801 757 840.5 695.5 c 128,-1,19
 880 634 880 634 897 557 c 0,20,21
 909 514 909 514 909 467 c 0,22,23
 909 369 909 369 866.5 280 c 128,-1,24
 824 191 824 191 749.5 123 c 128,-1,25
 675 55 675 55 582 20 c 1,26,27
 478 -25 478 -25 344 -25 c 0,28,29
 268 -25 268 -25 168 -4 c 1,30,-1
 168 172 l 1,31,-1
 213 172 l 1,32,33
 225 130 225 130 263.5 108 c 128,-1,34
 302 86 302 86 356 86 c 256,35,36
 410 86 410 86 470 107 c 128,-1,37
 530 128 530 128 586.5 169 c 128,-1,38
 643 210 643 210 683.5 270 c 128,-1,39
 724 330 724 330 737 401 c 1,40,-1
 393 401 l 1,41,-1
 393 508 l 1,42,-1
 741 508 l 1,0,1
EndSplineSet
Validated: 1
EndChar

StartChar: thorn
Encoding: 463 1102 187
AltUni2: 0000fe.ffffffff.0
Width: 1417
Flags: W
LayerCount: 2
Fore
SplineSet
455 401 m 1,0,-1
 332 401 l 1,1,-1
 332 123 l 2,2,3
 332 84 332 84 345 69.5 c 128,-1,4
 358 55 358 55 397 49 c 1,5,-1
 397 0 l 1,6,-1
 111 0 l 1,7,-1
 111 49 l 1,8,9
 147 52 147 52 161.5 68 c 128,-1,10
 176 84 176 84 176 123 c 2,11,-1
 176 745 l 2,12,13
 176 788 176 788 161.5 802.5 c 128,-1,14
 147 817 147 817 102 823 c 1,15,-1
 102 872 l 1,16,-1
 397 872 l 1,17,-1
 397 823 l 1,18,19
 358 817 358 817 345 803 c 128,-1,20
 332 789 332 789 332 750 c 2,21,-1
 332 508 l 1,22,-1
 455 508 l 1,23,24
 470 591 470 591 509 663 c 128,-1,25
 548 735 548 735 607 789 c 128,-1,26
 666 843 666 843 741 874 c 128,-1,27
 816 905 816 905 901 905 c 0,28,29
 1026 905 1026 905 1131 842 c 128,-1,30
 1236 779 1236 779 1298 669 c 128,-1,31
 1360 559 1360 559 1360 434 c 0,32,33
 1360 313 1360 313 1299.5 201.5 c 128,-1,34
 1239 90 1239 90 1134 22.5 c 128,-1,35
 1029 -45 1029 -45 905 -45 c 0,36,37
 785 -45 785 -45 685 17 c 128,-1,38
 585 79 585 79 524 182 c 128,-1,39
 463 285 463 285 455 401 c 1,0,-1
971 799 m 0,40,41
 950 803 950 803 901 803 c 0,42,43
 763 803 763 803 688.5 697 c 128,-1,44
 614 591 614 591 614 434 c 0,45,46
 614 280 614 280 683 170.5 c 128,-1,47
 752 61 752 61 897 61 c 0,48,49
 996 61 996 61 1064.5 113.5 c 128,-1,50
 1133 166 1133 166 1164.5 250.5 c 128,-1,51
 1196 335 1196 335 1196 434 c 0,52,53
 1196 520 1196 520 1173.5 596.5 c 128,-1,54
 1151 673 1151 673 1099.5 728.5 c 128,-1,55
 1048 784 1048 784 971 799 c 0,40,41
EndSplineSet
Validated: 1
EndChar

StartChar: ydieresis
Encoding: 464 1103 188
AltUni2: 0000ff.ffffffff.0
Width: 971
Flags: W
LayerCount: 2
Fore
SplineSet
709 496 m 1,0,-1
 709 766 l 1,1,-1
 451 766 l 2,2,3
 393 766 393 766 342 734 c 128,-1,4
 291 702 291 702 291 639 c 0,5,6
 291 569 291 569 338 532.5 c 128,-1,7
 385 496 385 496 463 496 c 2,8,-1
 709 496 l 1,0,-1
930 872 m 1,9,-1
 930 823 l 1,10,11
 898 818 898 818 885 812 c 128,-1,12
 872 806 872 806 866 791.5 c 128,-1,13
 860 777 860 777 860 750 c 2,14,-1
 860 115 l 2,15,16
 860 87 860 87 866 74 c 128,-1,17
 872 61 872 61 888.5 55.5 c 128,-1,18
 905 50 905 50 930 49 c 1,19,-1
 930 0 l 1,20,-1
 643 0 l 1,21,-1
 643 49 l 1,22,23
 678 55 678 55 693.5 71 c 128,-1,24
 709 87 709 87 709 123 c 2,25,-1
 709 393 l 1,26,-1
 631 393 l 1,27,-1
 283 0 l 1,28,-1
 74 0 l 1,29,-1
 74 49 l 1,30,31
 91 53 91 53 122 64 c 128,-1,32
 153 75 153 75 164 86 c 2,33,-1
 451 397 l 1,34,35
 350 407 350 407 279.5 433.5 c 128,-1,36
 209 460 209 460 170 511.5 c 128,-1,37
 131 563 131 563 131 643 c 0,38,39
 131 713 131 713 164.5 764.5 c 128,-1,40
 198 816 198 816 264 844 c 128,-1,41
 330 872 330 872 422 872 c 2,42,-1
 930 872 l 1,9,-1
EndSplineSet
Validated: 1
EndChar

StartChar: multiply
Encoding: 466 215 190
Width: 1155
Flags: W
LayerCount: 2
Fore
SplineSet
221 885 m 1,0,-1
 295 963 l 1,1,-1
 655 623 l 1,2,-1
 987 975 l 1,3,-1
 1065 905 l 1,4,-1
 733 549 l 1,5,-1
 1098 209 l 1,6,-1
 1024 131 l 1,7,-1
 659 471 l 1,8,-1
 328 115 l 1,9,-1
 250 188 l 1,10,-1
 582 545 l 1,11,-1
 221 885 l 1,0,-1
EndSplineSet
Validated: 1
EndChar

StartChar: divide
Encoding: 467 247 191
Width: 893
Flags: W
LayerCount: 2
Fore
SplineSet
430 324 m 1,0,-1
 594 324 l 1,1,-1
 594 156 l 1,2,-1
 430 156 l 1,3,-1
 430 324 l 1,0,-1
430 872 m 1,4,-1
 594 872 l 1,5,-1
 594 709 l 1,6,-1
 430 709 l 1,7,-1
 430 872 l 1,4,-1
160 565 m 1,8,-1
 844 565 l 1,9,-1
 844 451 l 1,10,-1
 160 451 l 1,11,-1
 160 565 l 1,8,-1
EndSplineSet
Validated: 1
EndChar

StartChar: idieresis
Encoding: 468 239 192
Width: 627
Flags: W
LayerCount: 2
Fore
SplineSet
483 1237 m 1,0,1
 520 1228 520 1228 544.5 1196.5 c 128,-1,2
 569 1165 569 1165 569 1126 c 0,3,4
 569 1098 569 1098 561 1085 c 0,5,6
 549 1052 549 1052 521.5 1036 c 128,-1,7
 494 1020 494 1020 463 1020 c 0,8,9
 418 1020 418 1020 385 1050.5 c 128,-1,10
 352 1081 352 1081 352 1130 c 0,11,12
 352 1161 352 1161 366.5 1185 c 128,-1,13
 381 1209 381 1209 405 1223 c 128,-1,14
 429 1237 429 1237 459 1237 c 2,15,-1
 483 1237 l 1,0,1
201 1237 m 1,16,17
 240 1228 240 1228 265.5 1196.5 c 128,-1,18
 291 1165 291 1165 291 1126 c 0,19,20
 291 1111 291 1111 283 1085 c 0,21,22
 253 1020 253 1020 180 1020 c 0,23,24
 137 1020 137 1020 103.5 1050.5 c 128,-1,25
 70 1081 70 1081 70 1130 c 0,26,27
 70 1176 70 1176 103 1206.5 c 128,-1,28
 136 1237 136 1237 180 1237 c 2,29,-1
 201 1237 l 1,16,17
492 49 m 1,30,-1
 492 0 l 1,31,-1
 184 0 l 1,32,-1
 184 49 l 1,33,34
 223 52 223 52 238.5 67 c 128,-1,35
 254 82 254 82 254 123 c 2,36,-1
 254 750 l 2,37,38
 254 789 254 789 238.5 803 c 128,-1,39
 223 817 223 817 184 823 c 1,40,-1
 184 872 l 1,41,-1
 418 872 l 1,42,-1
 418 123 l 2,43,44
 418 82 418 82 434 67 c 128,-1,45
 450 52 450 52 492 49 c 1,30,-1
EndSplineSet
Validated: 1
EndChar

StartChar: Idieresis
Encoding: 469 207 193
Width: 487
Flags: W
LayerCount: 2
Fore
SplineSet
127 0 m 1,0,-1
 127 57 l 1,1,2
 166 65 166 65 179.5 78.5 c 128,-1,3
 193 92 193 92 193 131 c 2,4,-1
 193 1171 l 2,5,6
 193 1208 193 1208 177.5 1223.5 c 128,-1,7
 162 1239 162 1239 127 1245 c 1,8,-1
 127 1298 l 1,9,-1
 430 1298 l 1,10,-1
 430 1245 l 1,11,12
 389 1239 389 1239 377 1225.5 c 128,-1,13
 365 1212 365 1212 365 1171 c 2,14,-1
 365 131 l 2,15,16
 365 92 365 92 378 78.5 c 128,-1,17
 391 65 391 65 430 57 c 1,18,-1
 430 0 l 1,19,-1
 127 0 l 1,0,-1
332 1450 m 1,20,21
 335 1503 335 1503 368 1523.5 c 128,-1,22
 401 1544 401 1544 426 1544 c 0,23,24
 460 1544 460 1544 490 1517.5 c 128,-1,25
 520 1491 520 1491 520 1450 c 0,26,27
 520 1405 520 1405 490.5 1376.5 c 128,-1,28
 461 1348 461 1348 430 1348 c 0,29,30
 395 1348 395 1348 365 1372.5 c 128,-1,31
 335 1397 335 1397 332 1450 c 1,20,21
61 1450 m 1,32,33
 65 1504 65 1504 97.5 1524 c 128,-1,34
 130 1544 130 1544 156 1544 c 0,35,36
 190 1544 190 1544 220 1517.5 c 128,-1,37
 250 1491 250 1491 250 1450 c 0,38,39
 250 1405 250 1405 220.5 1376.5 c 128,-1,40
 191 1348 191 1348 160 1348 c 0,41,42
 123 1348 123 1348 94 1372.5 c 128,-1,43
 65 1397 65 1397 61 1450 c 1,32,33
EndSplineSet
Validated: 1
EndChar

StartChar: edieresis
Encoding: 470 235 194
Width: 950
Flags: W
LayerCount: 2
Fore
SplineSet
274 553 m 1,0,-1
 737 553 l 1,1,2
 735 621 735 621 710.5 674.5 c 128,-1,3
 686 728 686 728 637 757 c 128,-1,4
 588 786 588 786 520 786 c 2,5,-1
 516 786 l 2,6,7
 421 786 421 786 347.5 716.5 c 128,-1,8
 274 647 274 647 274 553 c 1,0,-1
864 41 m 1,9,10
 710 -29 710 -29 565 -29 c 0,11,12
 483 -29 483 -29 389 4 c 0,13,14
 256 55 256 55 179 179.5 c 128,-1,15
 102 304 102 304 102 446 c 0,16,17
 102 504 102 504 115 557 c 0,18,19
 150 709 150 709 259.5 803 c 128,-1,20
 369 897 369 897 512 897 c 0,21,22
 580 897 580 897 635 881 c 0,23,24
 890 802 890 802 905 451 c 1,25,-1
 262 451 l 1,26,27
 271 328 271 328 322.5 246.5 c 128,-1,28
 374 165 374 165 449 125.5 c 128,-1,29
 524 86 524 86 602 86 c 0,30,31
 679 86 679 86 740 121.5 c 128,-1,32
 801 157 801 157 819 217 c 1,33,-1
 864 217 l 1,34,-1
 864 41 l 1,9,10
692 1237 m 1,35,36
 731 1228 731 1228 756.5 1196.5 c 128,-1,37
 782 1165 782 1165 782 1126 c 0,38,39
 782 1111 782 1111 774 1085 c 0,40,41
 759 1051 759 1051 732.5 1035.5 c 128,-1,42
 706 1020 706 1020 676 1020 c 0,43,44
 629 1020 629 1020 595 1050 c 128,-1,45
 561 1080 561 1080 561 1130 c 0,46,47
 561 1176 561 1176 594 1206.5 c 128,-1,48
 627 1237 627 1237 672 1237 c 2,49,-1
 692 1237 l 1,35,36
414 1237 m 1,50,51
 453 1228 453 1228 476.5 1196.5 c 128,-1,52
 500 1165 500 1165 500 1126 c 0,53,54
 500 1098 500 1098 492 1085 c 0,55,56
 480 1053 480 1053 453 1036.5 c 128,-1,57
 426 1020 426 1020 393 1020 c 0,58,59
 348 1020 348 1020 315.5 1050 c 128,-1,60
 283 1080 283 1080 283 1130 c 0,61,62
 283 1177 283 1177 315 1207 c 128,-1,63
 347 1237 347 1237 393 1237 c 2,64,-1
 414 1237 l 1,50,51
EndSplineSet
Validated: 1
EndChar

StartChar: Edieresis
Encoding: 471 203 195
Width: 1176
Flags: W
LayerCount: 2
Fore
SplineSet
0 0 m 1,0,-1
 119 0 l 1,1,-1
 119 57 l 1,2,3
 158 65 158 65 173 80 c 128,-1,4
 188 95 188 95 188 131 c 2,5,-1
 188 1171 l 2,6,7
 188 1208 188 1208 172.5 1223.5 c 128,-1,8
 157 1239 157 1239 119 1245 c 1,9,-1
 119 1298 l 1,10,-1
 1081 1298 l 1,11,-1
 1081 1081 l 1,12,-1
 1032 1081 l 1,13,14
 1026 1143 1026 1143 991.5 1161.5 c 128,-1,15
 957 1180 957 1180 893 1180 c 2,16,-1
 356 1180 l 1,17,-1
 356 795 l 1,18,-1
 819 795 l 2,19,20
 903 795 903 795 913 860 c 1,21,-1
 963 860 l 1,22,-1
 963 610 l 1,23,-1
 913 610 l 1,24,25
 903 676 903 676 819 676 c 2,26,-1
 356 676 l 1,27,-1
 356 127 l 1,28,-1
 946 127 l 2,29,30
 1010 127 1010 127 1042 153 c 128,-1,31
 1074 179 1074 179 1077 242 c 1,32,-1
 1130 242 l 1,33,-1
 1130 0 l 1,34,-1
 0 0 l 1,0,-1
659 1450 m 1,35,36
 663 1504 663 1504 695.5 1524 c 128,-1,37
 728 1544 728 1544 754 1544 c 0,38,39
 788 1544 788 1544 818 1517.5 c 128,-1,40
 848 1491 848 1491 848 1450 c 0,41,42
 848 1405 848 1405 818.5 1376.5 c 128,-1,43
 789 1348 789 1348 758 1348 c 0,44,45
 723 1348 723 1348 693 1372.5 c 128,-1,46
 663 1397 663 1397 659 1450 c 1,35,36
389 1450 m 1,47,48
 392 1503 392 1503 425 1523.5 c 128,-1,49
 458 1544 458 1544 483 1544 c 0,50,51
 517 1544 517 1544 547.5 1517.5 c 128,-1,52
 578 1491 578 1491 578 1450 c 0,53,54
 578 1404 578 1404 548 1376 c 128,-1,55
 518 1348 518 1348 487 1348 c 0,56,57
 454 1348 454 1348 423 1373.5 c 128,-1,58
 392 1399 392 1399 389 1450 c 1,47,48
EndSplineSet
Validated: 5
EndChar

StartChar: Idotaccent
Encoding: 473 304 197
Width: 487
Flags: W
LayerCount: 2
Fore
SplineSet
0 0 m 1,0,-1
 127 0 l 1,1,-1
 127 57 l 1,2,3
 166 65 166 65 179.5 78.5 c 128,-1,4
 193 92 193 92 193 131 c 2,5,-1
 193 1171 l 2,6,7
 193 1208 193 1208 177.5 1223.5 c 128,-1,8
 162 1239 162 1239 127 1245 c 1,9,-1
 127 1298 l 1,10,-1
 430 1298 l 1,11,-1
 430 1245 l 1,12,13
 389 1239 389 1239 377 1225.5 c 128,-1,14
 365 1212 365 1212 365 1171 c 2,15,-1
 365 131 l 2,16,17
 365 92 365 92 378 78.5 c 128,-1,18
 391 65 391 65 430 57 c 1,19,-1
 430 0 l 1,20,-1
 0 0 l 1,0,-1
180 1450 m 1,21,22
 183 1503 183 1503 216 1523.5 c 128,-1,23
 249 1544 249 1544 274 1544 c 0,24,25
 308 1544 308 1544 338.5 1517.5 c 128,-1,26
 369 1491 369 1491 369 1450 c 0,27,28
 369 1405 369 1405 339.5 1376.5 c 128,-1,29
 310 1348 310 1348 279 1348 c 0,30,31
 245 1348 245 1348 214 1373.5 c 128,-1,32
 183 1399 183 1399 180 1450 c 1,21,22
EndSplineSet
Validated: 5
EndChar

